Merriweather-Black-Cyrillic.ufo
<glyph name="quotedbl" format="1">
  <advance width="1290"/>
  <unicode hex="0022"/>
  <outline>
    <contour>
      <point x="515" y="1682" type="line"/>
      <point x="220" y="1682" type="line"/>
      <point x="269" y="846" type="line"/>
      <point x="464" y="846" type="line"/>
    </contour>
    <contour>
      <point x="1071" y="1682" type="line"/>
      <point x="775" y="1682" type="line"/>
      <point x="825" y="846" type="line"/>
      <point x="1019" y="846" type="line"/>
    </contour>
  </outline>
</glyph>
<glyph name="dollar" format="1">
  <advance width="1342"/>
  <unicode hex="0024"/>
  <outline>
    <contour>
      <point x="1206" y="420" type="curve" smooth="yes"/>
      <point x="1206" y="647"/>
      <point x="1022" y="757"/>
      <point x="828" y="863" type="curve" smooth="yes"/>
      <point x="666" y="948"/>
      <point x="493" y="1028"/>
      <point x="493" y="1184" type="curve" smooth="yes"/>
      <point x="493" y="1291"/>
      <point x="572" y="1373"/>
      <point x="710" y="1373" type="curve"/>
      <point x="786" y="1373"/>
      <point x="847" y="1348"/>
      <point x="875" y="1320" type="curve"/>
      <point x="919" y="1100" type="line"/>
      <point x="1104" y="1100" type="line"/>
      <point x="1116" y="1432" type="line"/>
      <point x="1066" y="1447"/>
      <point x="923" y="1491"/>
      <point x="769" y="1502" type="curve"/>
      <point x="769" y="1720" type="line"/>
      <point x="592" y="1720" type="line"/>
      <point x="592" y="1500" type="line"/>
      <point x="318" y="1467"/>
      <point x="171" y="1300"/>
      <point x="171" y="1110" type="curve" smooth="yes"/>
      <point x="171" y="854"/>
      <point x="340" y="736"/>
      <point x="527" y="641" type="curve" smooth="yes"/>
      <point x="728" y="540"/>
      <point x="870" y="461"/>
      <point x="870" y="324" type="curve" smooth="yes"/>
      <point x="870" y="200"/>
      <point x="807" y="117"/>
      <point x="634" y="117" type="curve" smooth="yes"/>
      <point x="519" y="117"/>
      <point x="454" y="148"/>
      <point x="420" y="185" type="curve"/>
      <point x="369" y="428" type="line"/>
      <point x="180" y="428" type="line"/>
      <point x="163" y="65" type="line"/>
      <point x="220" y="51"/>
      <point x="386" y="-8"/>
      <point x="585" y="-20" type="curve"/>
      <point x="583" y="-252" type="line"/>
      <point x="758" y="-252" type="line"/>
      <point x="760" y="-16" type="line"/>
      <point x="1089" y="21"/>
      <point x="1206" y="225"/>
    </contour>
  </outline>
</glyph>
<glyph name="ampersand" format="1">
  <advance width="1532"/>
  <unicode hex="0026"/>
  <outline>
    <contour>
      <point x="1510" y="828" type="line"/>
      <point x="1040" y="828" type="line"/>
      <point x="1040" y="677" type="line"/>
      <point x="1172" y="648" type="line"/>
      <point x="1177" y="551"/>
      <point x="1151" y="457"/>
      <point x="1090" y="377" type="curve"/>
      <point x="981" y="478"/>
      <point x="877" y="607"/>
      <point x="735" y="782" type="curve"/>
      <point x="970" y="897"/>
      <point x="1077" y="1004"/>
      <point x="1077" y="1208" type="curve" smooth="yes"/>
      <point x="1077" y="1362"/>
      <point x="955" y="1505"/>
      <point x="686" y="1505" type="curve" smooth="yes"/>
      <point x="413" y="1505"/>
      <point x="222" y="1335"/>
      <point x="222" y="1121" type="curve" smooth="yes"/>
      <point x="222" y="961"/>
      <point x="313" y="840"/>
      <point x="396" y="732" type="curve"/>
      <point x="217" y="675"/>
      <point x="56" y="542"/>
      <point x="56" y="364" type="curve" smooth="yes"/>
      <point x="56" y="123"/>
      <point x="264" y="-22"/>
      <point x="591" y="-22" type="curve" smooth="yes"/>
      <point x="768" y="-22"/>
      <point x="900" y="16"/>
      <point x="992" y="89" type="curve"/>
      <point x="1078" y="29"/>
      <point x="1168" y="-15"/>
      <point x="1279" y="-15" type="curve" smooth="yes"/>
      <point x="1316" y="-15"/>
      <point x="1441" y="-5"/>
      <point x="1473" y="19" type="curve"/>
      <point x="1473" y="145" type="line"/>
      <point x="1375" y="151"/>
      <point x="1272" y="213"/>
      <point x="1198" y="277" type="curve"/>
      <point x="1275" y="342"/>
      <point x="1359" y="476"/>
      <point x="1371" y="648" type="curve"/>
      <point x="1510" y="677" type="line"/>
    </contour>
    <contour>
      <point x="526" y="1180" type="curve" smooth="yes"/>
      <point x="526" y="1322"/>
      <point x="581" y="1397"/>
      <point x="682" y="1397" type="curve" smooth="yes"/>
      <point x="786" y="1397"/>
      <point x="811" y="1279"/>
      <point x="811" y="1209" type="curve" smooth="yes"/>
      <point x="811" y="1087"/>
      <point x="779" y="977"/>
      <point x="662" y="875" type="curve"/>
      <point x="607" y="943"/>
      <point x="526" y="1049"/>
    </contour>
    <contour>
      <point x="677" y="119" type="curve" smooth="yes"/>
      <point x="453" y="119"/>
      <point x="340" y="251"/>
      <point x="340" y="397" type="curve" smooth="yes"/>
      <point x="340" y="516"/>
      <point x="401" y="585"/>
      <point x="471" y="635" type="curve"/>
      <point x="590" y="487"/>
      <point x="729" y="292"/>
      <point x="871" y="177" type="curve"/>
      <point x="821" y="147"/>
      <point x="757" y="119"/>
    </contour>
  </outline>
</glyph>
<glyph name="quotesingle" format="1">
  <advance width="734"/>
  <unicode hex="0027"/>
  <outline>
    <contour>
      <point x="515" y="1682" type="line"/>
      <point x="220" y="1682" type="line"/>
      <point x="269" y="846" type="line"/>
      <point x="464" y="846" type="line"/>
    </contour>
  </outline>
</glyph>
<glyph name="parenleft" format="1">
  <advance width="896"/>
  <unicode hex="0028"/>
  <outline>
    <contour>
      <point x="103" y="668" type="curve" smooth="yes"/>
      <point x="103" y="-60"/>
      <point x="553" y="-328"/>
      <point x="643" y="-382" type="curve"/>
      <point x="754" y="-295" type="line"/>
      <point x="653" y="-226"/>
      <point x="384" y="95"/>
      <point x="400" y="695" type="curve"/>
      <point x="413" y="1250"/>
      <point x="667" y="1527"/>
      <point x="756" y="1581" type="curve"/>
      <point x="643" y="1670" type="line"/>
      <point x="537" y="1610"/>
      <point x="103" y="1292"/>
    </contour>
  </outline>
</glyph>
<glyph name="parenright" format="1">
  <advance width="896"/>
  <unicode hex="0029"/>
  <outline>
    <contour>
      <point x="793" y="622" type="curve" smooth="yes"/>
      <point x="793" y="1350"/>
      <point x="343" y="1618"/>
      <point x="253" y="1672" type="curve"/>
      <point x="142" y="1585" type="line"/>
      <point x="243" y="1516"/>
      <point x="512" y="1195"/>
      <point x="497" y="595" type="curve"/>
      <point x="484" y="40"/>
      <point x="229" y="-237"/>
      <point x="140" y="-291" type="curve"/>
      <point x="253" y="-380" type="line"/>
      <point x="359" y="-320"/>
      <point x="793" y="-2"/>
    </contour>
  </outline>
</glyph>
<glyph name="hyphen" format="1">
  <advance width="1147"/>
  <unicode hex="002D"/>
  <outline>
    <contour>
      <point x="967" y="745" type="line"/>
      <point x="180" y="745" type="line"/>
      <point x="180" y="533" type="line"/>
      <point x="967" y="533" type="line"/>
    </contour>
  </outline>
</glyph>
<glyph name="zero" format="1">
  <advance width="1305"/>
  <unicode hex="0030"/>
  <outline>
    <contour>
      <point x="623" y="-21" type="curve" smooth="yes"/>
      <point x="991" y="-21"/>
      <point x="1204" y="225"/>
      <point x="1205" y="758" type="curve" smooth="yes"/>
      <point x="1205" y="1249"/>
      <point x="1014" y="1505"/>
      <point x="682" y="1505" type="curve" smooth="yes"/>
      <point x="333" y="1505"/>
      <point x="101" y="1263"/>
      <point x="100" y="727" type="curve" smooth="yes"/>
      <point x="99" y="240"/>
      <point x="287" y="-21"/>
    </contour>
    <contour>
      <point x="655" y="111" type="curve" smooth="yes"/>
      <point x="517" y="111"/>
      <point x="447" y="261"/>
      <point x="447" y="746" type="curve" smooth="yes"/>
      <point x="447" y="1260"/>
      <point x="520" y="1375"/>
      <point x="652" y="1375" type="curve" smooth="yes"/>
      <point x="785" y="1375"/>
      <point x="857" y="1262"/>
      <point x="857" y="722" type="curve" smooth="yes"/>
      <point x="857" y="253"/>
      <point x="807" y="111"/>
    </contour>
  </outline>
</glyph>
<glyph name="three" format="1">
  <advance width="1200"/>
  <unicode hex="0033"/>
  <outline>
    <contour>
      <point x="369" y="-36" type="curve" smooth="yes"/>
      <point x="818" y="-36"/>
      <point x="1085" y="187"/>
      <point x="1084" y="469" type="curve" smooth="yes"/>
      <point x="1083" y="670"/>
      <point x="881" y="793"/>
      <point x="617" y="769" type="curve"/>
      <point x="816" y="839"/>
      <point x="1007" y="966"/>
      <point x="1007" y="1175" type="curve" smooth="yes"/>
      <point x="1007" y="1406"/>
      <point x="811" y="1503"/>
      <point x="562" y="1503" type="curve" smooth="yes"/>
      <point x="359" y="1503"/>
      <point x="144" y="1402"/>
      <point x="78" y="1338" type="curve"/>
      <point x="157" y="1198" type="line"/>
      <point x="214" y="1243"/>
      <point x="326" y="1297"/>
      <point x="455" y="1297" type="curve" smooth="yes"/>
      <point x="559" y="1297"/>
      <point x="659" y="1249"/>
      <point x="659" y="1121" type="curve" smooth="yes"/>
      <point x="660" y="1010"/>
      <point x="587" y="917"/>
      <point x="435" y="850" type="curve" smooth="yes"/>
      <point x="386" y="828"/>
      <point x="329" y="808"/>
      <point x="273" y="799" type="curve"/>
      <point x="318" y="666" type="line"/>
      <point x="349" y="673"/>
      <point x="403" y="687"/>
      <point x="434" y="695" type="curve"/>
      <point x="617" y="686"/>
      <point x="713" y="604"/>
      <point x="713" y="437" type="curve" smooth="yes"/>
      <point x="713" y="258"/>
      <point x="560" y="139"/>
      <point x="294" y="139" type="curve" smooth="yes"/>
      <point x="215" y="139"/>
      <point x="156" y="149"/>
      <point x="100" y="167" type="curve"/>
      <point x="100" y="1" type="line"/>
      <point x="158" y="-19"/>
      <point x="277" y="-36"/>
    </contour>
  </outline>
</glyph>
<glyph name="four" format="1">
  <advance width="1326"/>
  <unicode hex="0034"/>
  <outline>
    <contour>
      <point x="762" y="0" type="line"/>
      <point x="1040" y="0" type="line"/>
      <point x="1040" y="321" type="line"/>
      <point x="1279" y="321" type="line"/>
      <point x="1279" y="546" type="line"/>
      <point x="1040" y="532" type="line"/>
      <point x="1040" y="851" type="line"/>
      <point x="792" y="833" type="line"/>
      <point x="764" y="513" type="line"/>
      <point x="317" y="485" type="line"/>
      <point x="435" y="619" type="line"/>
      <point x="887" y="1368" type="line"/>
      <point x="622" y="1501" type="line"/>
      <point x="552" y="1501" type="line"/>
      <point x="438" y="1217"/>
      <point x="194" y="709"/>
      <point x="41" y="435" type="curve"/>
      <point x="116" y="321" type="line"/>
      <point x="762" y="321" type="line"/>
    </contour>
  </outline>
</glyph>
<glyph name="eight" format="1">
  <advance width="1254"/>
  <unicode hex="0038"/>
  <outline>
    <contour>
      <point x="80" y="364" type="curve" smooth="yes"/>
      <point x="80" y="86"/>
      <point x="342" y="-22"/>
      <point x="612" y="-22" type="curve" smooth="yes"/>
      <point x="942" y="-22"/>
      <point x="1174" y="134"/>
      <point x="1174" y="388" type="curve" smooth="yes"/>
      <point x="1174" y="604"/>
      <point x="1014" y="726"/>
      <point x="840" y="826" type="curve"/>
      <point x="1010" y="904"/>
      <point x="1098" y="1028"/>
      <point x="1098" y="1172" type="curve" smooth="yes"/>
      <point x="1098" y="1364"/>
      <point x="936" y="1506"/>
      <point x="640" y="1506" type="curve" smooth="yes"/>
      <point x="370" y="1506"/>
      <point x="148" y="1364"/>
      <point x="148" y="1114" type="curve" smooth="yes"/>
      <point x="148" y="924"/>
      <point x="250" y="808"/>
      <point x="378" y="722" type="curve"/>
      <point x="184" y="650"/>
      <point x="80" y="506"/>
    </contour>
    <contour>
      <point x="434" y="1188" type="curve" smooth="yes"/>
      <point x="434" y="1314"/>
      <point x="534" y="1380"/>
      <point x="640" y="1380" type="curve" smooth="yes"/>
      <point x="782" y="1380"/>
      <point x="860" y="1288"/>
      <point x="860" y="1128" type="curve" smooth="yes"/>
      <point x="860" y="1038"/>
      <point x="810" y="948"/>
      <point x="728" y="888" type="curve"/>
      <point x="572" y="974"/>
      <point x="434" y="1052"/>
    </contour>
    <contour>
      <point x="848" y="330" type="curve" smooth="yes"/>
      <point x="848" y="194"/>
      <point x="732" y="112"/>
      <point x="618" y="112" type="curve" smooth="yes"/>
      <point x="442" y="112"/>
      <point x="344" y="238"/>
      <point x="344" y="412" type="curve" smooth="yes"/>
      <point x="344" y="514"/>
      <point x="398" y="606"/>
      <point x="476" y="660" type="curve"/>
      <point x="660" y="558"/>
      <point x="848" y="488"/>
    </contour>
  </outline>
</glyph>
<glyph name="equal" format="1">
  <advance width="1279"/>
  <unicode hex="003D"/>
  <outline>
    <contour>
      <point x="1099" y="971" type="line"/>
      <point x="180" y="971" type="line"/>
      <point x="180" y="773" type="line"/>
      <point x="1099" y="773" type="line"/>
    </contour>
    <contour>
      <point x="1099" y="429" type="line"/>
      <point x="180" y="429" type="line"/>
      <point x="180" y="231" type="line"/>
      <point x="1099" y="231" type="line"/>
    </contour>
  </outline>
</glyph>
<glyph name="at" format="1">
  <advance width="2155"/>
  <unicode hex="0040"/>
  <outline>
    <contour>
      <point x="150" y="322" type="curve" smooth="yes"/>
      <point x="150" y="-200"/>
      <point x="509" y="-522"/>
      <point x="939" y="-522" type="curve" smooth="yes"/>
      <point x="1137" y="-522"/>
      <point x="1331" y="-468"/>
      <point x="1442" y="-373" type="curve"/>
      <point x="1403" y="-281" type="line"/>
      <point x="1326" y="-332"/>
      <point x="1150" y="-373"/>
      <point x="991" y="-373" type="curve" smooth="yes"/>
      <point x="658" y="-373"/>
      <point x="355" y="-133"/>
      <point x="355" y="364" type="curve" smooth="yes"/>
      <point x="355" y="955"/>
      <point x="679" y="1396"/>
      <point x="1184" y="1396" type="curve" smooth="yes"/>
      <point x="1515" y="1396"/>
      <point x="1863" y="1253"/>
      <point x="1863" y="727" type="curve" smooth="yes"/>
      <point x="1863" y="389"/>
      <point x="1696" y="170"/>
      <point x="1517" y="170" type="curve" smooth="yes"/>
      <point x="1500" y="170"/>
      <point x="1470" y="237"/>
      <point x="1476" y="338" type="curve" smooth="yes"/>
      <point x="1483" y="530"/>
      <point x="1558" y="846"/>
      <point x="1590" y="991" type="curve"/>
      <point x="1536" y="1007"/>
      <point x="1477" y="1032"/>
      <point x="1432" y="1044" type="curve" smooth="yes"/>
      <point x="1404" y="1050"/>
      <point x="1375" y="1020"/>
      <point x="1367" y="996" type="curve"/>
      <point x="1296" y="1033"/>
      <point x="1207" y="1051"/>
      <point x="1136" y="1051" type="curve" smooth="yes"/>
      <point x="808" y="1051"/>
      <point x="607" y="701"/>
      <point x="607" y="380" type="curve" smooth="yes"/>
      <point x="607" y="123"/>
      <point x="757" y="-29"/>
      <point x="893" y="-29" type="curve" smooth="yes"/>
      <point x="1070" y="-29"/>
      <point x="1206" y="206"/>
      <point x="1291" y="438" type="curve"/>
      <point x="1267" y="302"/>
      <point x="1256" y="214"/>
      <point x="1259" y="160" type="curve" smooth="yes"/>
      <point x="1264" y="48"/>
      <point x="1326" y="-8"/>
      <point x="1394" y="-8" type="curve" smooth="yes"/>
      <point x="1618" y="-8"/>
      <point x="2035" y="256"/>
      <point x="2035" y="803" type="curve" smooth="yes"/>
      <point x="2035" y="1276"/>
      <point x="1708" y="1562"/>
      <point x="1271" y="1562" type="curve" smooth="yes"/>
      <point x="581" y="1562"/>
      <point x="150" y="1000"/>
    </contour>
    <contour>
      <point x="853" y="453" type="curve" smooth="yes"/>
      <point x="853" y="672"/>
      <point x="934" y="888"/>
      <point x="1095" y="888" type="curve" smooth="yes"/>
      <point x="1145" y="888"/>
      <point x="1265" y="844"/>
      <point x="1296" y="808" type="curve"/>
      <point x="1288" y="755"/>
      <point x="1262" y="667"/>
      <point x="1241" y="603" type="curve" smooth="yes"/>
      <point x="1173" y="406"/>
      <point x="1044" y="209"/>
      <point x="960" y="209" type="curve" smooth="yes"/>
      <point x="885" y="209"/>
      <point x="853" y="362"/>
    </contour>
  </outline>
</glyph>
<glyph name="A" format="1">
  <advance width="1419"/>
  <unicode hex="0041"/>
  <outline>
    <contour>
      <point x="79" y="154" type="line"/>
      <point x="-37" y="132" type="line"/>
      <point x="-35" y="0" type="line"/>
      <point x="498" y="0" type="line"/>
      <point x="498" y="132" type="line"/>
      <point x="342" y="150" type="line"/>
      <point x="409" y="392" type="line"/>
      <point x="887" y="392" type="line"/>
      <point x="956" y="153" type="line"/>
      <point x="814" y="132" type="line"/>
      <point x="814" y="0" type="line"/>
      <point x="1444" y="0" type="line"/>
      <point x="1444" y="132" type="line"/>
      <point x="1333" y="153" type="line"/>
      <point x="887" y="1493" type="line"/>
      <point x="527" y="1493" type="line"/>
    </contour>
    <contour>
      <point x="845" y="545" type="line"/>
      <point x="449" y="545" type="line"/>
      <point x="614" y="1142" type="line"/>
      <point x="645" y="1284" type="line"/>
      <point x="675" y="1143" type="line"/>
    </contour>
    <contour>
      <point x="685" y="0" type="move" name="bottom"/>
    </contour>
    <contour>
      <point x="587" y="-166" type="move" name="mark0"/>
    </contour>
    <contour>
      <point x="1282" y="20" type="move" name="ogonek"/>
    </contour>
    <contour>
      <point x="706" y="1486" type="move" name="top"/>
    </contour>
  </outline>
</glyph>
<glyph name="C" format="1">
  <advance width="1326"/>
  <unicode hex="0043"/>
  <outline>
    <contour>
      <point x="758" y="-22" type="curve" smooth="yes"/>
      <point x="1009" y="-22"/>
      <point x="1090" y="43"/>
      <point x="1225" y="54" type="curve"/>
      <point x="1265" y="405" type="line"/>
      <point x="1074" y="423" type="line"/>
      <point x="980" y="183" type="line"/>
      <point x="946" y="150"/>
      <point x="897" y="121"/>
      <point x="779" y="121" type="curve" smooth="yes"/>
      <point x="549" y="121"/>
      <point x="437" y="386"/>
      <point x="437" y="758" type="curve" smooth="yes"/>
      <point x="437" y="1163"/>
      <point x="572" y="1360"/>
      <point x="771" y="1360" type="curve" smooth="yes"/>
      <point x="872" y="1360"/>
      <point x="932" y="1336"/>
      <point x="955" y="1313" type="curve"/>
      <point x="1022" y="1006" type="line"/>
      <point x="1225" y="1006" type="line"/>
      <point x="1250" y="1462" type="line"/>
      <point x="1108" y="1466"/>
      <point x="990" y="1502"/>
      <point x="793" y="1502" type="curve" smooth="yes"/>
      <point x="367" y="1502"/>
      <point x="51" y="1210"/>
      <point x="51" y="726" type="curve" smooth="yes"/>
      <point x="51" y="272"/>
      <point x="285" y="-22"/>
    </contour>
    <contour>
      <point x="727" y="0" type="move" name="bottom"/>
    </contour>
    <contour>
      <point x="730" y="-166" type="move" name="mark0"/>
    </contour>
    <contour>
      <point x="757" y="1486" type="move" name="top"/>
    </contour>
  </outline>
</glyph>
<glyph name="D" format="1">
  <advance width="1537"/>
  <unicode hex="0044"/>
  <outline>
    <contour>
      <point x="232" y="154" type="line"/>
      <point x="79" y="132" type="line"/>
      <point x="79" y="0" type="line"/>
      <point x="401" y="0" type="line" smooth="yes"/>
      <point x="479" y="0"/>
      <point x="614" y="-13"/>
      <point x="719" y="-16" type="curve" smooth="yes"/>
      <point x="1195" y="-26"/>
      <point x="1483" y="323"/>
      <point x="1483" y="795" type="curve" smooth="yes"/>
      <point x="1483" y="1241"/>
      <point x="1245" y="1499"/>
      <point x="749" y="1499" type="curve" smooth="yes"/>
      <point x="623" y="1499"/>
      <point x="527" y="1486"/>
      <point x="398" y="1486" type="curve" smooth="yes"/>
      <point x="85" y="1486" type="line"/>
      <point x="85" y="1347" type="line"/>
      <point x="232" y="1319" type="line"/>
    </contour>
    <contour>
      <point x="570" y="148" type="curve"/>
      <point x="570" y="1345" type="line"/>
      <point x="594" y="1347"/>
      <point x="638" y="1360"/>
      <point x="706" y="1360" type="curve" smooth="yes"/>
      <point x="997" y="1360"/>
      <point x="1109" y="1110"/>
      <point x="1109" y="746" type="curve" smooth="yes"/>
      <point x="1109" y="315"/>
      <point x="961" y="132"/>
      <point x="731" y="129" type="curve" smooth="yes"/>
      <point x="671" y="129"/>
      <point x="616" y="133"/>
    </contour>
    <contour>
      <point x="773" y="0" type="move" name="bottom"/>
    </contour>
    <contour>
      <point x="773" y="744" type="move" name="center"/>
    </contour>
    <contour>
      <point x="806" y="-166" type="move" name="mark0"/>
    </contour>
    <contour>
      <point x="773" y="1486" type="move" name="top"/>
    </contour>
  </outline>
</glyph>
<glyph name="E" format="1">
  <advance width="1327"/>
  <unicode hex="0045"/>
  <outline>
    <contour>
      <point x="235" y="153" type="line"/>
      <point x="82" y="132" type="line"/>
      <point x="82" y="0" type="line"/>
      <point x="1259" y="0" type="line"/>
      <point x="1306" y="376" type="line"/>
      <point x="1136" y="424" type="line"/>
      <point x="1015" y="165" type="line"/>
      <point x="581" y="138" type="line"/>
      <point x="581" y="691" type="line"/>
      <point x="823" y="686" type="line"/>
      <point x="856" y="511" type="line"/>
      <point x="995" y="511" type="line"/>
      <point x="995" y="1012" type="line"/>
      <point x="856" y="1012" type="line"/>
      <point x="821" y="849" type="line"/>
      <point x="581" y="843" type="line"/>
      <point x="581" y="1354" type="line"/>
      <point x="972" y="1334" type="line"/>
      <point x="1040" y="1133" type="line"/>
      <point x="1199" y="1133" type="line"/>
      <point x="1172" y="1486" type="line"/>
      <point x="79" y="1486" type="line"/>
      <point x="79" y="1347" type="line"/>
      <point x="235" y="1319" type="line"/>
    </contour>
    <contour>
      <point x="670" y="0" type="move" name="bottom"/>
    </contour>
    <contour>
      <point x="710" y="-166" type="move" name="mark0"/>
    </contour>
    <contour>
      <point x="1196" y="20" type="move" name="ogonek"/>
    </contour>
    <contour>
      <point x="695" y="1486" type="move" name="top"/>
    </contour>
    <contour>
      <point x="53" y="1486" type="move" name="topleft"/>
    </contour>
  </outline>
</glyph>
<glyph name="K" format="1">
  <advance width="1517"/>
  <unicode hex="004B"/>
  <outline>
    <contour>
      <point x="1122" y="0" type="curve"/>
      <point x="1526" y="0" type="line"/>
      <point x="1526" y="131" type="line"/>
      <point x="1431" y="153" type="line"/>
      <point x="1355" y="197"/>
      <point x="1112" y="743"/>
      <point x="924" y="913" type="curve"/>
      <point x="1284" y="1320" type="line"/>
      <point x="1460" y="1348" type="line"/>
      <point x="1460" y="1486" type="line"/>
      <point x="889" y="1486" type="line"/>
      <point x="889" y="1347" type="line"/>
      <point x="1052" y="1319" type="line"/>
      <point x="565" y="696" type="line"/>
      <point x="565" y="1319" type="line"/>
      <point x="712" y="1347" type="line"/>
      <point x="712" y="1486" type="line"/>
      <point x="70" y="1486" type="line"/>
      <point x="70" y="1347" type="line"/>
      <point x="223" y="1319" type="line"/>
      <point x="223" y="154" type="line"/>
      <point x="69" y="132" type="line"/>
      <point x="69" y="0" type="line"/>
      <point x="730" y="0" type="line"/>
      <point x="730" y="131" type="line"/>
      <point x="565" y="153" type="line"/>
      <point x="565" y="492" type="line"/>
      <point x="725" y="679" type="line"/>
      <point x="870" y="486"/>
      <point x="1045" y="0"/>
    </contour>
    <contour>
      <point x="831" y="0" type="move" name="bottom"/>
    </contour>
    <contour>
      <point x="780" y="-159" type="move" name="mark0"/>
    </contour>
    <contour>
      <point x="812" y="1483" type="move" name="top"/>
    </contour>
  </outline>
</glyph>
<glyph name="L" format="1">
  <advance width="1281"/>
  <unicode hex="004C"/>
  <outline>
    <contour>
      <point x="223" y="153" type="line"/>
      <point x="71" y="132" type="line"/>
      <point x="71" y="0" type="line"/>
      <point x="1202" y="0" type="line"/>
      <point x="1260" y="548" type="line"/>
      <point x="1072" y="572" type="line"/>
      <point x="941" y="176" type="line"/>
      <point x="566" y="156" type="line"/>
      <point x="566" y="1319" type="line"/>
      <point x="756" y="1347" type="line"/>
      <point x="756" y="1486" type="line"/>
      <point x="73" y="1486" type="line"/>
      <point x="73" y="1347" type="line"/>
      <point x="223" y="1319" type="line"/>
    </contour>
    <contour>
      <point x="670" y="0" type="move" name="bottom"/>
    </contour>
    <contour>
      <point x="641" y="744" type="move" name="center"/>
    </contour>
    <contour>
      <point x="688" y="-166" type="move" name="mark0"/>
    </contour>
    <contour>
      <point x="408" y="1486" type="move" name="top"/>
    </contour>
    <contour>
      <point x="989" y="1111" type="move" name="topright"/>
    </contour>
  </outline>
</glyph>
<glyph name="P" format="1">
  <advance width="1337"/>
  <unicode hex="0050"/>
  <outline>
    <contour>
      <point x="223" y="153" type="line"/>
      <point x="71" y="132" type="line"/>
      <point x="71" y="0" type="line"/>
      <point x="829" y="0" type="line"/>
      <point x="829" y="132" type="line"/>
      <point x="566" y="153" type="line"/>
      <point x="566" y="518" type="line"/>
      <point x="583" y="516"/>
      <point x="647" y="512"/>
      <point x="704" y="512" type="curve" smooth="yes"/>
      <point x="1090" y="512"/>
      <point x="1304" y="713"/>
      <point x="1304" y="1052" type="curve" smooth="yes"/>
      <point x="1304" y="1337"/>
      <point x="1176" y="1496"/>
      <point x="737" y="1497" type="curve" smooth="yes"/>
      <point x="583" y="1499"/>
      <point x="492" y="1486"/>
      <point x="401" y="1486" type="curve" smooth="yes"/>
      <point x="77" y="1486" type="line"/>
      <point x="77" y="1347" type="line"/>
      <point x="223" y="1319" type="line"/>
    </contour>
    <contour>
      <point x="565" y="656" type="curve"/>
      <point x="565" y="1352" type="line"/>
      <point x="596" y="1357"/>
      <point x="622" y="1364"/>
      <point x="695" y="1364" type="curve" smooth="yes"/>
      <point x="866" y="1364"/>
      <point x="955" y="1269"/>
      <point x="955" y="1045" type="curve" smooth="yes"/>
      <point x="955" y="740"/>
      <point x="841" y="647"/>
      <point x="696" y="647" type="curve" smooth="yes"/>
      <point x="630" y="647"/>
      <point x="588" y="650"/>
    </contour>
    <contour>
      <point x="497" y="0" type="move" name="bottom"/>
    </contour>
    <contour>
      <point x="669" y="-166" type="move" name="mark0"/>
    </contour>
    <contour>
      <point x="743" y="1486" type="move" name="top"/>
    </contour>
  </outline>
</glyph>
<glyph name="Q" format="1">
  <advance width="1462"/>
  <unicode hex="0051"/>
  <outline>
    <contour>
      <point x="1460" y="-370" type="curve" smooth="yes"/>
      <point x="1577" y="-370"/>
      <point x="1647" y="-337"/>
      <point x="1714" y="-251" type="curve"/>
      <point x="1684" y="-151" type="line"/>
      <point x="1665" y="-157"/>
      <point x="1638" y="-162"/>
      <point x="1579" y="-162" type="curve"/>
      <point x="1352" y="-162"/>
      <point x="1238" y="18"/>
      <point x="1014" y="57" type="curve"/>
      <point x="849" y="3" type="line"/>
      <point x="1076" y="-77"/>
      <point x="1200" y="-370"/>
    </contour>
    <component base="O"/>
  </outline>
</glyph>
<glyph name="S" format="1">
  <advance width="1217"/>
  <unicode hex="0053"/>
  <outline>
    <contour>
      <point x="602" y="-22" type="curve" smooth="yes"/>
      <point x="1048" y="-22"/>
      <point x="1171" y="232"/>
      <point x="1171" y="428" type="curve" smooth="yes"/>
      <point x="1171" y="672"/>
      <point x="956" y="789"/>
      <point x="796" y="865" type="curve" smooth="yes"/>
      <point x="607" y="959"/>
      <point x="440" y="1032"/>
      <point x="440" y="1185" type="curve" smooth="yes"/>
      <point x="440" y="1287"/>
      <point x="503" y="1371"/>
      <point x="659" y="1371" type="curve" smooth="yes"/>
      <point x="748" y="1371"/>
      <point x="817" y="1344"/>
      <point x="833" y="1323" type="curve"/>
      <point x="878" y="1078" type="line"/>
      <point x="1060" y="1078" type="line"/>
      <point x="1072" y="1434" type="line"/>
      <point x="1014" y="1439"/>
      <point x="875" y="1505"/>
      <point x="644" y="1505" type="curve" smooth="yes"/>
      <point x="278" y="1505"/>
      <point x="116" y="1310"/>
      <point x="116" y="1096" type="curve" smooth="yes"/>
      <point x="116" y="819"/>
      <point x="340" y="691"/>
      <point x="493" y="620" type="curve" smooth="yes"/>
      <point x="698" y="525"/>
      <point x="829" y="456"/>
      <point x="829" y="320" type="curve" smooth="yes"/>
      <point x="829" y="197"/>
      <point x="752" y="117"/>
      <point x="585" y="117" type="curve" smooth="yes"/>
      <point x="468" y="117"/>
      <point x="388" y="153"/>
      <point x="361" y="185" type="curve"/>
      <point x="312" y="439" type="line"/>
      <point x="125" y="439" type="line"/>
      <point x="108" y="66" type="line"/>
      <point x="174" y="61"/>
      <point x="356" y="-22"/>
    </contour>
    <contour>
      <point x="609" y="0" type="move" name="bottom"/>
    </contour>
    <contour>
      <point x="604" y="-166" type="move" name="mark0"/>
    </contour>
    <contour>
      <point x="669" y="1486" type="move" name="top"/>
    </contour>
  </outline>
</glyph>
<glyph name="T" format="1">
  <advance width="1456"/>
  <unicode hex="0054"/>
  <outline>
    <contour>
      <point x="554" y="154" type="line"/>
      <point x="288" y="132" type="line"/>
      <point x="288" y="0" type="line"/>
      <point x="1168" y="0" type="line"/>
      <point x="1168" y="132" type="line"/>
      <point x="900" y="154" type="line"/>
      <point x="900" y="1338" type="line"/>
      <point x="1150" y="1328" type="line"/>
      <point x="1238" y="882" type="line"/>
      <point x="1416" y="882" type="line"/>
      <point x="1384" y="1486" type="line"/>
      <point x="72" y="1486" type="line"/>
      <point x="40" y="882" type="line"/>
      <point x="218" y="882" type="line"/>
      <point x="308" y="1328" type="line"/>
      <point x="554" y="1338" type="line"/>
    </contour>
    <contour>
      <point x="734" y="0" type="move" name="bottom"/>
    </contour>
    <contour>
      <point x="734" y="744" type="move" name="center"/>
    </contour>
    <contour>
      <point x="740" y="-166" type="move" name="mark0"/>
    </contour>
    <contour>
      <point x="734" y="1486" type="move" name="top"/>
    </contour>
  </outline>
</glyph>
<glyph name="U" format="1">
  <advance width="1489"/>
  <unicode hex="0055"/>
  <outline>
    <contour>
      <point x="774" y="-16" type="curve" smooth="yes"/>
      <point x="1103" y="-16"/>
      <point x="1343" y="157"/>
      <point x="1343" y="591" type="curve" smooth="yes"/>
      <point x="1343" y="1319" type="line"/>
      <point x="1474" y="1347" type="line"/>
      <point x="1474" y="1486" type="line"/>
      <point x="953" y="1486" type="line"/>
      <point x="953" y="1347" type="line"/>
      <point x="1127" y="1318" type="line"/>
      <point x="1127" y="572" type="line" smooth="yes"/>
      <point x="1127" y="308"/>
      <point x="1042" y="123"/>
      <point x="824" y="123" type="curve" smooth="yes"/>
      <point x="608" y="123"/>
      <point x="511" y="284"/>
      <point x="511" y="577" type="curve" smooth="yes"/>
      <point x="511" y="1316" type="line"/>
      <point x="678" y="1347" type="line"/>
      <point x="678" y="1486" type="line"/>
      <point x="32" y="1486" type="line"/>
      <point x="32" y="1347" type="line"/>
      <point x="157" y="1319" type="line"/>
      <point x="157" y="605" type="line" smooth="yes"/>
      <point x="157" y="170"/>
      <point x="366" y="-16"/>
    </contour>
    <contour>
      <point x="745" y="0" type="move" name="bottom"/>
    </contour>
    <contour>
      <point x="745" y="-166" type="move" name="mark0"/>
    </contour>
    <contour>
      <point x="1340" y="20" type="move" name="ogonek"/>
    </contour>
    <contour>
      <point x="813" y="1486" type="move" name="top"/>
    </contour>
    <contour>
      <point x="1449" y="1486" type="move" name="topright"/>
    </contour>
  </outline>
</glyph>
<glyph name="V" format="1">
  <advance width="1394"/>
  <unicode hex="0056"/>
  <outline>
    <contour>
      <point x="-39" y="1347" type="line"/>
      <point x="79" y="1319" type="line"/>
      <point x="577" y="-15" type="line"/>
      <point x="855" y="-15" type="line"/>
      <point x="1309" y="1319" type="line"/>
      <point x="1438" y="1347" type="line"/>
      <point x="1438" y="1486" type="line"/>
      <point x="929" y="1486" type="line"/>
      <point x="929" y="1347" type="line"/>
      <point x="1086" y="1319" type="line"/>
      <point x="819" y="452" type="line"/>
      <point x="778" y="275" type="line"/>
      <point x="730" y="451" type="line"/>
      <point x="452" y="1320" type="line"/>
      <point x="616" y="1347" type="line"/>
      <point x="616" y="1486" type="line"/>
      <point x="-39" y="1486" type="line"/>
    </contour>
    <contour>
      <point x="668" y="-166" type="move" name="mark0"/>
    </contour>
  </outline>
</glyph>
<glyph name="X" format="1">
  <advance width="1446"/>
  <unicode hex="0058"/>
  <outline>
    <contour>
      <point x="176" y="153" type="line"/>
      <point x="11" y="132" type="line"/>
      <point x="11" y="0" type="line"/>
      <point x="564" y="0" type="line"/>
      <point x="564" y="132" type="line"/>
      <point x="378" y="153" type="line"/>
      <point x="643" y="610" type="line"/>
      <point x="918" y="154" type="line"/>
      <point x="762" y="132" type="line"/>
      <point x="762" y="0" type="line"/>
      <point x="1448" y="0" type="line"/>
      <point x="1448" y="132" type="line"/>
      <point x="1316" y="154" type="line"/>
      <point x="886" y="797" type="line"/>
      <point x="1264" y="1318" type="line"/>
      <point x="1427" y="1347" type="line"/>
      <point x="1427" y="1486" type="line"/>
      <point x="900" y="1486" type="line"/>
      <point x="900" y="1347" type="line"/>
      <point x="1068" y="1319" type="line"/>
      <point x="806" y="897" type="line"/>
      <point x="555" y="1317" type="line"/>
      <point x="712" y="1347" type="line"/>
      <point x="712" y="1486" type="line"/>
      <point x="23" y="1486" type="line"/>
      <point x="23" y="1347" type="line"/>
      <point x="155" y="1318" type="line"/>
      <point x="558" y="715" type="line"/>
    </contour>
    <contour>
      <point x="715" y="-166" type="move" name="mark0"/>
    </contour>
  </outline>
</glyph>
<glyph name="bracketleft" format="1">
  <advance width="893"/>
  <unicode hex="005B"/>
  <outline>
    <contour>
      <point x="189" y="1392" type="curve"/>
      <point x="189" y="-58" type="line" smooth="yes"/>
      <point x="189" y="-243"/>
      <point x="284" y="-274"/>
      <point x="439" y="-274" type="curve" smooth="yes"/>
      <point x="545" y="-274"/>
      <point x="636" y="-255"/>
      <point x="718" y="-234" type="curve"/>
      <point x="718" y="-121" type="line"/>
      <point x="474" y="-121" type="line"/>
      <point x="474" y="1457" type="line"/>
      <point x="718" y="1457" type="line"/>
      <point x="718" y="1568" type="line"/>
      <point x="637" y="1587"/>
      <point x="546" y="1608"/>
      <point x="439" y="1608" type="curve" smooth="yes"/>
      <point x="284" y="1608"/>
      <point x="189" y="1577"/>
    </contour>
  </outline>
</glyph>
<glyph name="bracketright" format="1">
  <advance width="893"/>
  <unicode hex="005D"/>
  <outline>
    <contour>
      <point x="704" y="-58" type="curve" smooth="yes"/>
      <point x="704" y="1392" type="line"/>
      <point x="704" y="1577"/>
      <point x="610" y="1608"/>
      <point x="455" y="1608" type="curve" smooth="yes"/>
      <point x="347" y="1608"/>
      <point x="256" y="1587"/>
      <point x="175" y="1568" type="curve"/>
      <point x="175" y="1457" type="line"/>
      <point x="420" y="1457" type="line"/>
      <point x="420" y="-121" type="line"/>
      <point x="175" y="-121" type="line"/>
      <point x="175" y="-234" type="line"/>
      <point x="257" y="-255"/>
      <point x="349" y="-274"/>
      <point x="455" y="-274" type="curve" smooth="yes"/>
      <point x="610" y="-274"/>
      <point x="704" y="-243"/>
    </contour>
  </outline>
</glyph>
<glyph name="grave" format="1">
  <advance width="666"/>
  <unicode hex="0060"/>
  <outline>
    <contour>
      <point x="371" y="1272" type="curve"/>
      <point x="373" y="1272" type="line"/>
      <point x="496" y="1371" type="line"/>
      <point x="139" y="1797" type="line"/>
      <point x="-50" y="1626" type="line"/>
      <point x="19" y="1506"/>
      <point x="259" y="1314"/>
    </contour>
  </outline>
</glyph>
<glyph name="a" format="1">
  <advance width="1141"/>
  <unicode hex="0061"/>
  <outline>
    <contour>
      <point x="39" y="320" type="curve" smooth="yes"/>
      <point x="39" y="102"/>
      <point x="194" y="-22"/>
      <point x="377" y="-22" type="curve" smooth="yes"/>
      <point x="541" y="-22"/>
      <point x="654" y="68"/>
      <point x="705" y="133" type="curve"/>
      <point x="705" y="87" type="line" smooth="yes"/>
      <point x="705" y="0"/>
      <point x="728" y="-24"/>
      <point x="831" y="-24" type="curve" smooth="yes"/>
      <point x="917" y="-24"/>
      <point x="1051" y="-4"/>
      <point x="1098" y="6" type="curve"/>
      <point x="1098" y="132" type="line"/>
      <point x="995" y="132" type="line"/>
      <point x="995" y="727" type="line" smooth="yes"/>
      <point x="995" y="1020"/>
      <point x="895" y="1138"/>
      <point x="576" y="1138" type="curve" smooth="yes"/>
      <point x="333" y="1138"/>
      <point x="138" y="1026"/>
      <point x="87" y="985" type="curve"/>
      <point x="157" y="840" type="line"/>
      <point x="221" y="869"/>
      <point x="338" y="924"/>
      <point x="491" y="924" type="curve" smooth="yes"/>
      <point x="657" y="924"/>
      <point x="688" y="863"/>
      <point x="688" y="726" type="curve" smooth="yes"/>
      <point x="688" y="687" type="line"/>
      <point x="314" y="684"/>
      <point x="39" y="563"/>
    </contour>
    <contour>
      <point x="532" y="161" type="curve" smooth="yes"/>
      <point x="441" y="161"/>
      <point x="383" y="232"/>
      <point x="383" y="352" type="curve" smooth="yes"/>
      <point x="383" y="458"/>
      <point x="467" y="552"/>
      <point x="688" y="553" type="curve"/>
      <point x="688" y="234" type="line"/>
      <point x="647" y="194"/>
      <point x="581" y="161"/>
    </contour>
    <contour>
      <point x="559" y="0" type="move" name="bottom"/>
    </contour>
    <contour>
      <point x="526" y="-166" type="move" name="mark0"/>
    </contour>
    <contour>
      <point x="963" y="20" type="move" name="ogonek"/>
    </contour>
    <contour>
      <point x="545" y="1111" type="move" name="top"/>
    </contour>
  </outline>
</glyph>
<glyph name="i" format="1">
  <advance width="706"/>
  <unicode hex="0069"/>
  <outline>
    <contour>
      <point x="328" y="1283" type="curve"/>
      <point x="330" y="1283" type="line"/>
      <point x="464" y="1283"/>
      <point x="535" y="1366"/>
      <point x="535" y="1476" type="curve" smooth="yes"/>
      <point x="535" y="1566"/>
      <point x="474" y="1640"/>
      <point x="351" y="1640" type="curve" smooth="yes"/>
      <point x="228" y="1640"/>
      <point x="154" y="1556"/>
      <point x="154" y="1447" type="curve" smooth="yes"/>
      <point x="154" y="1354"/>
      <point x="223" y="1283"/>
    </contour>
    <contour>
      <point x="207" y="151" type="line"/>
      <point x="81" y="132" type="line"/>
      <point x="81" y="0" type="line"/>
      <point x="658" y="0" type="line"/>
      <point x="658" y="132" type="line"/>
      <point x="537" y="150" type="line"/>
      <point x="537" y="1096" type="line"/>
      <point x="476" y="1138" type="line"/>
      <point x="472" y="1138" type="line"/>
      <point x="71" y="1090" type="line"/>
      <point x="71" y="940" type="line"/>
      <point x="207" y="901" type="line"/>
    </contour>
    <contour>
      <point x="356" y="-166" type="move" name="mark0"/>
    </contour>
  </outline>
</glyph>
<glyph name="j" format="1">
  <advance width="680"/>
  <unicode hex="006A"/>
  <outline>
    <contour>
      <point x="76" y="937" type="line"/>
      <point x="213" y="898" type="line"/>
      <point x="213" y="84" type="line" smooth="yes"/>
      <point x="213" y="-142"/>
      <point x="176" y="-283"/>
      <point x="76" y="-329" type="curve" smooth="yes"/>
      <point x="36" y="-348"/>
      <point x="-6" y="-352"/>
      <point x="-23" y="-352" type="curve"/>
      <point x="-8" y="-478" type="line"/>
      <point x="10" y="-485"/>
      <point x="85" y="-487"/>
      <point x="117" y="-486" type="curve" smooth="yes"/>
      <point x="282" y="-481"/>
      <point x="535" y="-313"/>
      <point x="535" y="19" type="curve" smooth="yes"/>
      <point x="535" y="1096" type="line"/>
      <point x="475" y="1138" type="line"/>
      <point x="471" y="1138" type="line"/>
      <point x="76" y="1090" type="line"/>
    </contour>
    <contour>
      <point x="342" y="1283" type="curve"/>
      <point x="344" y="1283" type="line"/>
      <point x="478" y="1283"/>
      <point x="546" y="1366"/>
      <point x="546" y="1476" type="curve" smooth="yes"/>
      <point x="546" y="1566"/>
      <point x="488" y="1640"/>
      <point x="365" y="1640" type="curve" smooth="yes"/>
      <point x="242" y="1640"/>
      <point x="169" y="1556"/>
      <point x="169" y="1447" type="curve" smooth="yes"/>
      <point x="169" y="1354"/>
      <point x="237" y="1283"/>
    </contour>
  </outline>
</glyph>
<glyph name="n" format="1">
  <advance width="1375"/>
  <unicode hex="006E"/>
  <outline>
    <contour>
      <point x="193" y="151" type="line"/>
      <point x="83" y="132" type="line"/>
      <point x="83" y="0" type="line"/>
      <point x="637" y="0" type="line"/>
      <point x="637" y="132" type="line"/>
      <point x="527" y="151" type="line"/>
      <point x="527" y="860" type="line"/>
      <point x="572" y="895"/>
      <point x="649" y="946"/>
      <point x="735" y="946" type="curve" smooth="yes"/>
      <point x="854" y="946"/>
      <point x="903" y="881"/>
      <point x="903" y="696" type="curve" smooth="yes"/>
      <point x="903" y="150" type="line"/>
      <point x="806" y="132" type="line"/>
      <point x="806" y="0" type="line"/>
      <point x="1350" y="0" type="line"/>
      <point x="1350" y="133" type="line"/>
      <point x="1238" y="150" type="line"/>
      <point x="1238" y="697" type="line" smooth="yes"/>
      <point x="1238" y="1016"/>
      <point x="1134" y="1135"/>
      <point x="898" y="1135" type="curve" smooth="yes"/>
      <point x="730" y="1135"/>
      <point x="579" y="1055"/>
      <point x="495" y="976" type="curve"/>
      <point x="497" y="1023" type="line"/>
      <point x="497" y="1096" type="line"/>
      <point x="444" y="1138" type="line"/>
      <point x="438" y="1138" type="line"/>
      <point x="75" y="1095" type="line"/>
      <point x="75" y="938" type="line"/>
      <point x="193" y="901" type="line"/>
    </contour>
    <contour>
      <point x="701" y="0" type="move" name="bottom"/>
    </contour>
    <contour>
      <point x="693" y="-166" type="move" name="mark0"/>
    </contour>
    <contour>
      <point x="676" y="1111" type="move" name="top"/>
    </contour>
  </outline>
</glyph>
<glyph name="o" format="1">
  <advance width="1207"/>
  <unicode hex="006F"/>
  <outline>
    <contour>
      <point x="52" y="550" type="curve" smooth="yes"/>
      <point x="52" y="187"/>
      <point x="259" y="-22"/>
      <point x="589" y="-22" type="curve" smooth="yes"/>
      <point x="891" y="-22"/>
      <point x="1155" y="157"/>
      <point x="1155" y="568" type="curve" smooth="yes"/>
      <point x="1155" y="931"/>
      <point x="949" y="1140"/>
      <point x="617" y="1140" type="curve" smooth="yes"/>
      <point x="316" y="1140"/>
      <point x="52" y="950"/>
    </contour>
    <contour>
      <point x="608" y="117" type="curve" smooth="yes"/>
      <point x="465" y="117"/>
      <point x="406" y="271"/>
      <point x="406" y="574" type="curve" smooth="yes"/>
      <point x="406" y="871"/>
      <point x="476" y="1001"/>
      <point x="603" y="1001" type="curve" smooth="yes"/>
      <point x="747" y="1001"/>
      <point x="799" y="846"/>
      <point x="799" y="544" type="curve" smooth="yes"/>
      <point x="799" y="247"/>
      <point x="735" y="117"/>
    </contour>
    <contour>
      <point x="604" y="0" type="move" name="bottom"/>
    </contour>
    <contour>
      <point x="604" y="556" type="move" name="center"/>
    </contour>
    <contour>
      <point x="733" y="45" type="move" name="ogonek"/>
    </contour>
    <contour>
      <point x="612" y="1111" type="move" name="top"/>
    </contour>
    <contour>
      <point x="1034" y="1111" type="move" name="topright"/>
    </contour>
  </outline>
</glyph>
<glyph name="t" format="1">
  <advance width="851"/>
  <unicode hex="0074"/>
  <outline>
    <contour>
      <point x="436" y="-18" type="curve"/>
      <point x="594" y="-18"/>
      <point x="751" y="40"/>
      <point x="823" y="96" type="curve"/>
      <point x="780" y="221" type="line"/>
      <point x="738" y="206"/>
      <point x="672" y="190"/>
      <point x="612" y="190" type="curve" smooth="yes"/>
      <point x="527" y="190"/>
      <point x="511" y="206"/>
      <point x="511" y="415" type="curve" smooth="yes"/>
      <point x="511" y="944" type="line"/>
      <point x="783" y="944" type="line"/>
      <point x="783" y="1111" type="line"/>
      <point x="508" y="1111" type="line"/>
      <point x="496" y="1412" type="line"/>
      <point x="307" y="1412" type="line"/>
      <point x="289" y="1346"/>
      <point x="266" y="1276"/>
      <point x="245" y="1225" type="curve" smooth="yes"/>
      <point x="226" y="1177"/>
      <point x="213" y="1150"/>
      <point x="185" y="1123" type="curve" smooth="yes"/>
      <point x="157" y="1097"/>
      <point x="106" y="1089"/>
      <point x="56" y="1069" type="curve"/>
      <point x="56" y="944" type="line"/>
      <point x="178" y="944" type="line"/>
      <point x="178" y="232" type="line" smooth="yes"/>
      <point x="178" y="63"/>
      <point x="260" y="-18"/>
    </contour>
    <contour>
      <point x="460" y="0" type="move" name="bottom"/>
    </contour>
    <contour>
      <point x="415" y="556" type="move" name="center"/>
    </contour>
    <contour>
      <point x="447" y="-166" type="move" name="mark0"/>
    </contour>
    <contour>
      <point x="414" y="1356" type="move" name="top"/>
    </contour>
    <contour>
      <point x="684" y="1111" type="move" name="topright"/>
    </contour>
  </outline>
</glyph>
<glyph name="v" format="1">
  <advance width="1198"/>
  <unicode hex="0076"/>
  <outline>
    <contour>
      <point x="-2" y="984" type="line"/>
      <point x="76" y="959" type="line"/>
      <point x="467" y="-16" type="line"/>
      <point x="734" y="-16" type="line"/>
      <point x="1104" y="959" type="line"/>
      <point x="1209" y="984" type="line"/>
      <point x="1209" y="1111" type="line"/>
      <point x="746" y="1111" type="line"/>
      <point x="746" y="984" type="line"/>
      <point x="868" y="959" type="line"/>
      <point x="697" y="429" type="line"/>
      <point x="654" y="250" type="line"/>
      <point x="603" y="432" type="line"/>
      <point x="441" y="959" type="line"/>
      <point x="566" y="984" type="line"/>
      <point x="566" y="1111" type="line"/>
      <point x="-2" y="1111" type="line"/>
    </contour>
    <contour>
      <point x="574" y="-166" type="move" name="mark0"/>
    </contour>
  </outline>
</glyph>
<glyph name="w" format="1">
  <advance width="1760"/>
  <unicode hex="0077"/>
  <outline>
    <contour>
      <point x="-2" y="984" type="line"/>
      <point x="91" y="963" type="line"/>
      <point x="409" y="-16" type="line"/>
      <point x="669" y="-16" type="line"/>
      <point x="847" y="596" type="line"/>
      <point x="877" y="828" type="line"/>
      <point x="920" y="596" type="line"/>
      <point x="1117" y="-16" type="line"/>
      <point x="1371" y="-16" type="line"/>
      <point x="1674" y="962" type="line"/>
      <point x="1771" y="984" type="line"/>
      <point x="1771" y="1110" type="line"/>
      <point x="1330" y="1110" type="line"/>
      <point x="1330" y="984" type="line"/>
      <point x="1473" y="959" type="line"/>
      <point x="1348" y="463" type="line"/>
      <point x="1307" y="267" type="line"/>
      <point x="1266" y="464" type="line"/>
      <point x="1068" y="1110" type="line"/>
      <point x="797" y="1110" type="line"/>
      <point x="625" y="464" type="line"/>
      <point x="590" y="267" type="line"/>
      <point x="548" y="463" type="line"/>
      <point x="413" y="961" type="line"/>
      <point x="546" y="984" type="line"/>
      <point x="546" y="1110" type="line"/>
      <point x="-2" y="1110" type="line"/>
    </contour>
    <contour>
      <point x="875" y="0" type="move" name="bottom"/>
    </contour>
    <contour>
      <point x="844" y="-166" type="move" name="mark0"/>
    </contour>
    <contour>
      <point x="921" y="1111" type="move" name="top"/>
    </contour>
  </outline>
</glyph>
<glyph name="x" format="1">
  <advance width="1255"/>
  <unicode hex="0078"/>
  <outline>
    <contour>
      <point x="136" y="151" type="line"/>
      <point x="13" y="130" type="line"/>
      <point x="13" y="0" type="line"/>
      <point x="502" y="0" type="line"/>
      <point x="502" y="130" type="line"/>
      <point x="355" y="151" type="line"/>
      <point x="499" y="364" type="line"/>
      <point x="546" y="451" type="line"/>
      <point x="605" y="363" type="line"/>
      <point x="746" y="151" type="line"/>
      <point x="637" y="130" type="line"/>
      <point x="637" y="0" type="line"/>
      <point x="1242" y="0" type="line"/>
      <point x="1242" y="130" type="line"/>
      <point x="1143" y="150" type="line"/>
      <point x="808" y="586" type="line"/>
      <point x="1107" y="961" type="line"/>
      <point x="1218" y="984" type="line"/>
      <point x="1218" y="1111" type="line"/>
      <point x="782" y="1111" type="line"/>
      <point x="782" y="984" type="line"/>
      <point x="909" y="961" type="line"/>
      <point x="766" y="762" type="line"/>
      <point x="715" y="677" type="line"/>
      <point x="665" y="761" type="line"/>
      <point x="525" y="961" type="line"/>
      <point x="648" y="984" type="line"/>
      <point x="648" y="1111" type="line"/>
      <point x="33" y="1111" type="line"/>
      <point x="33" y="984" type="line"/>
      <point x="133" y="961" type="line"/>
      <point x="451" y="542" type="line"/>
    </contour>
    <contour>
      <point x="650" y="-166" type="move" name="mark0"/>
    </contour>
  </outline>
</glyph>
<glyph name="bar" format="1">
  <advance width="844"/>
  <unicode hex="007C"/>
  <outline>
    <contour>
      <point x="532" y="1738" type="line"/>
      <point x="312" y="1738" type="line"/>
      <point x="312" y="-182" type="line"/>
      <point x="532" y="-182" type="line"/>
    </contour>
  </outline>
</glyph>
<glyph name="braceright" format="1">
  <advance width="1080"/>
  <unicode hex="007D"/>
  <outline>
    <contour>
      <point x="436" y="-282" type="curve" smooth="yes"/>
      <point x="694" y="-282"/>
      <point x="791" y="-181"/>
      <point x="791" y="-14" type="curve" smooth="yes"/>
      <point x="791" y="168"/>
      <point x="663" y="271"/>
      <point x="663" y="440" type="curve" smooth="yes"/>
      <point x="663" y="525"/>
      <point x="676" y="592"/>
      <point x="918" y="592" type="curve"/>
      <point x="918" y="764" type="line"/>
      <point x="676" y="764"/>
      <point x="663" y="808"/>
      <point x="663" y="892" type="curve" smooth="yes"/>
      <point x="663" y="1061"/>
      <point x="791" y="1168"/>
      <point x="791" y="1351" type="curve" smooth="yes"/>
      <point x="791" y="1519"/>
      <point x="694" y="1620"/>
      <point x="436" y="1620" type="curve" smooth="yes"/>
      <point x="328" y="1620"/>
      <point x="239" y="1596"/>
      <point x="149" y="1576" type="curve"/>
      <point x="149" y="1455" type="line"/>
      <point x="189" y="1456"/>
      <point x="254" y="1456"/>
      <point x="295" y="1456" type="curve" smooth="yes"/>
      <point x="391" y="1456"/>
      <point x="479" y="1430"/>
      <point x="479" y="1305" type="curve" smooth="yes"/>
      <point x="479" y="1195"/>
      <point x="394" y="1034"/>
      <point x="394" y="899" type="curve" smooth="yes"/>
      <point x="394" y="757"/>
      <point x="533" y="695"/>
      <point x="696" y="672" type="curve"/>
      <point x="533" y="650"/>
      <point x="394" y="579"/>
      <point x="394" y="437" type="curve" smooth="yes"/>
      <point x="394" y="304"/>
      <point x="479" y="148"/>
      <point x="479" y="37" type="curve" smooth="yes"/>
      <point x="479" y="-90"/>
      <point x="391" y="-114"/>
      <point x="295" y="-114" type="curve" smooth="yes"/>
      <point x="253" y="-114"/>
      <point x="189" y="-113"/>
      <point x="149" y="-112" type="curve"/>
      <point x="149" y="-238" type="line"/>
      <point x="239" y="-258"/>
      <point x="328" y="-282"/>
    </contour>
  </outline>
</glyph>
<glyph name="exclamdown" format="1">
  <advance width="703"/>
  <unicode hex="00A1"/>
  <outline>
    <contour>
      <point x="532" y="1233" type="curve" smooth="yes"/>
      <point x="532" y="1331"/>
      <point x="448" y="1398"/>
      <point x="362" y="1398" type="curve" smooth="yes"/>
      <point x="240" y="1398"/>
      <point x="154" y="1333"/>
      <point x="154" y="1218" type="curve" smooth="yes"/>
      <point x="154" y="1133"/>
      <point x="219" y="1052"/>
      <point x="332" y="1052" type="curve" smooth="yes"/>
      <point x="442" y="1052"/>
      <point x="532" y="1125"/>
    </contour>
    <contour>
      <point x="169" y="-375" type="line"/>
      <point x="545" y="-375" type="line"/>
      <point x="459" y="866" type="line"/>
      <point x="248" y="866" type="line"/>
    </contour>
  </outline>
</glyph>
<glyph name="sterling" format="1">
  <advance width="1562"/>
  <unicode hex="00A3"/>
  <outline>
    <contour>
      <point x="363" y="859" type="line"/>
      <point x="186" y="859" type="line"/>
      <point x="186" y="712" type="line"/>
      <point x="363" y="712" type="line"/>
      <point x="363" y="469" type="line" smooth="yes"/>
      <point x="363" y="366"/>
      <point x="347" y="284"/>
      <point x="328" y="258" type="curve"/>
      <point x="218" y="259"/>
      <point x="79" y="199"/>
      <point x="79" y="104" type="curve" smooth="yes"/>
      <point x="79" y="32"/>
      <point x="142" y="0"/>
      <point x="215" y="0" type="curve" smooth="yes"/>
      <point x="296" y="0"/>
      <point x="369" y="47"/>
      <point x="428" y="104" type="curve"/>
      <point x="580" y="100"/>
      <point x="748" y="-14"/>
      <point x="1015" y="-14" type="curve" smooth="yes"/>
      <point x="1304" y="-14"/>
      <point x="1480" y="156"/>
      <point x="1480" y="366" type="curve" smooth="yes"/>
      <point x="1480" y="445"/>
      <point x="1452" y="512"/>
      <point x="1430" y="533" type="curve"/>
      <point x="1098" y="533" type="line"/>
      <point x="1130" y="505"/>
      <point x="1158" y="429"/>
      <point x="1158" y="352" type="curve" smooth="yes"/>
      <point x="1158" y="225"/>
      <point x="1107" y="159"/>
      <point x="931" y="159" type="curve" smooth="yes"/>
      <point x="801" y="159"/>
      <point x="685" y="201"/>
      <point x="584" y="213" type="curve"/>
      <point x="655" y="270"/>
      <point x="707" y="349"/>
      <point x="707" y="513" type="curve" smooth="yes"/>
      <point x="707" y="712" type="line"/>
      <point x="983" y="712" type="line"/>
      <point x="983" y="859" type="line"/>
      <point x="707" y="859" type="line"/>
      <point x="707" y="1071" type="line" smooth="yes"/>
      <point x="707" y="1311"/>
      <point x="802" y="1347"/>
      <point x="881" y="1347" type="curve" smooth="yes"/>
      <point x="1021" y="1347"/>
      <point x="1151" y="1221"/>
      <point x="1174" y="1179" type="curve"/>
      <point x="1314" y="1379" type="line"/>
      <point x="1238" y="1440"/>
      <point x="1094" y="1505"/>
      <point x="908" y="1505" type="curve" smooth="yes"/>
      <point x="606" y="1505"/>
      <point x="363" y="1304"/>
      <point x="363" y="999" type="curve" smooth="yes"/>
    </contour>
  </outline>
</glyph>
<glyph name="dieresis" format="1">
  <advance width="1000"/>
  <unicode hex="00A8"/>
  <outline>
    <contour>
      <point x="725" y="1305" type="curve"/>
      <point x="858" y="1305"/>
      <point x="914" y="1387"/>
      <point x="914" y="1492" type="curve" smooth="yes"/>
      <point x="914" y="1575"/>
      <point x="866" y="1650"/>
      <point x="755" y="1650" type="curve" smooth="yes"/>
      <point x="637" y="1650"/>
      <point x="582" y="1567"/>
      <point x="582" y="1463" type="curve" smooth="yes"/>
      <point x="582" y="1387"/>
      <point x="640" y="1305"/>
    </contour>
    <contour>
      <point x="229" y="1305" type="curve" smooth="yes"/>
      <point x="361" y="1305"/>
      <point x="418" y="1387"/>
      <point x="418" y="1492" type="curve" smooth="yes"/>
      <point x="418" y="1575"/>
      <point x="369" y="1650"/>
      <point x="258" y="1650" type="curve"/>
      <point x="140" y="1650"/>
      <point x="86" y="1567"/>
      <point x="86" y="1463" type="curve" smooth="yes"/>
      <point x="86" y="1378"/>
      <point x="144" y="1305"/>
    </contour>
  </outline>
</glyph>
<glyph name="guillemetleft" format="1">
  <advance width="1404"/>
  <unicode hex="00AB"/>
  <outline>
    <contour>
      <point x="563" y="1122" type="line"/>
      <point x="117" y="673" type="line"/>
      <point x="117" y="520" type="line"/>
      <point x="563" y="80" type="line"/>
      <point x="689" y="137" type="line"/>
      <point x="421" y="596" type="line"/>
      <point x="689" y="1068" type="line"/>
    </contour>
    <contour>
      <point x="1140" y="1122" type="line"/>
      <point x="666" y="673" type="line"/>
      <point x="666" y="520" type="line"/>
      <point x="1140" y="80" type="line"/>
      <point x="1267" y="137" type="line"/>
      <point x="970" y="596" type="line"/>
      <point x="1267" y="1068" type="line"/>
    </contour>
  </outline>
</glyph>
<glyph name="logicalnot" format="1">
  <advance width="1350"/>
  <unicode hex="00AC"/>
  <outline>
    <contour>
      <point x="1146" y="712" type="line"/>
      <point x="180" y="712" type="line"/>
      <point x="180" y="526" type="line"/>
      <point x="926" y="526" type="line"/>
      <point x="926" y="163" type="line"/>
      <point x="1146" y="163" type="line"/>
    </contour>
  </outline>
</glyph>
<glyph name="macron" format="1">
  <advance width="666"/>
  <unicode hex="00AF"/>
  <outline>
    <contour>
      <point x="642" y="1576" type="line"/>
      <point x="21" y="1576" type="line"/>
      <point x="21" y="1385" type="line"/>
      <point x="642" y="1385" type="line"/>
    </contour>
  </outline>
</glyph>
<glyph name="acute" format="1">
  <advance width="666"/>
  <unicode hex="00B4"/>
  <outline>
    <contour>
      <point x="270" y="1272" type="line"/>
      <point x="387" y="1317"/>
      <point x="622" y="1506"/>
      <point x="694" y="1626" type="curve"/>
      <point x="504" y="1797" type="line"/>
      <point x="148" y="1371" type="line"/>
    </contour>
  </outline>
</glyph>
<glyph name="periodcentered" format="1">
  <advance width="747"/>
  <unicode hex="00B7"/>
  <outline>
    <contour>
      <point x="356" y="599" type="curve" smooth="yes"/>
      <point x="476" y="599"/>
      <point x="562" y="664"/>
      <point x="562" y="779" type="curve" smooth="yes"/>
      <point x="562" y="865"/>
      <point x="498" y="948"/>
      <point x="386" y="948" type="curve" smooth="yes"/>
      <point x="276" y="948"/>
      <point x="185" y="874"/>
      <point x="185" y="765" type="curve" smooth="yes"/>
      <point x="185" y="668"/>
      <point x="268" y="599"/>
    </contour>
  </outline>
</glyph>
<glyph name="Aacute" format="1">
  <advance width="1419"/>
  <unicode hex="00C1"/>
  <outline>
    <component base="A"/>
    <component base="acutecomb.case" xOffset="706"/>
    <contour>
      <point x="586" y="-166" type="move" name="mark0"/>
    </contour>
  </outline>
</glyph>
<glyph name="Adieresis" format="1">
  <advance width="1419"/>
  <unicode hex="00C4"/>
  <outline>
    <component base="A"/>
    <component base="dieresiscomb.case" xOffset="706"/>
    <contour>
      <point x="586" y="-166" type="move" name="mark0"/>
    </contour>
  </outline>
</glyph>
<glyph name="AE" format="1">
  <advance width="1952"/>
  <unicode hex="00C6"/>
  <outline>
    <contour>
      <point x="860" y="152" type="line"/>
      <point x="704" y="130" type="line"/>
      <point x="704" y="0" type="line"/>
      <point x="1890" y="0" type="line"/>
      <point x="1956" y="372" type="line"/>
      <point x="1768" y="424" type="line"/>
      <point x="1640" y="166" type="line"/>
      <point x="1200" y="138" type="line"/>
      <point x="1200" y="682" type="line"/>
      <point x="1446" y="676" type="line"/>
      <point x="1478" y="502" type="line"/>
      <point x="1616" y="502" type="line"/>
      <point x="1616" y="1004" type="line"/>
      <point x="1478" y="1004" type="line"/>
      <point x="1444" y="842" type="line"/>
      <point x="1200" y="834" type="line"/>
      <point x="1200" y="1356" type="line"/>
      <point x="1598" y="1334" type="line"/>
      <point x="1668" y="1132" type="line"/>
      <point x="1826" y="1132" type="line"/>
      <point x="1796" y="1486" type="line"/>
      <point x="270" y="1486" type="line"/>
      <point x="270" y="1348" type="line"/>
      <point x="526" y="1320" type="line"/>
      <point x="40" y="152" type="line"/>
      <point x="-102" y="130" type="line"/>
      <point x="-102" y="0" type="line"/>
      <point x="456" y="0" type="line"/>
      <point x="456" y="130" type="line"/>
      <point x="308" y="152" type="line"/>
      <point x="404" y="410" type="line"/>
      <point x="860" y="410" type="line"/>
    </contour>
    <contour>
      <point x="860" y="568" type="line"/>
      <point x="460" y="568" type="line"/>
      <point x="644" y="1062" type="line"/>
      <point x="744" y="1342" type="line"/>
      <point x="860" y="1342" type="line"/>
    </contour>
    <contour>
      <point x="1008" y="0" type="move" name="bottom"/>
    </contour>
    <contour>
      <point x="970" y="-166" type="move" name="mark0"/>
    </contour>
    <contour>
      <point x="1008" y="1486" type="move" name="top"/>
    </contour>
  </outline>
</glyph>
<glyph name="Ccedilla" format="1">
  <advance width="1326"/>
  <unicode hex="00C7"/>
  <outline>
    <component base="C"/>
    <component base="cedillacomb" xOffset="727"/>
    <contour>
      <point x="730" y="-166" type="move" name="mark0"/>
    </contour>
  </outline>
</glyph>
<glyph name="Ecircumflex" format="1">
  <advance width="1327"/>
  <unicode hex="00CA"/>
  <outline>
    <component base="E"/>
    <component base="circumflexcomb.case" xOffset="695"/>
    <contour>
      <point x="697" y="-166" type="move" name="mark0"/>
    </contour>
  </outline>
</glyph>
<glyph name="Icircumflex" format="1">
  <advance width="832"/>
  <unicode hex="00CE"/>
  <outline>
    <component base="I"/>
    <component base="circumflexcomb.case" xOffset="416"/>
    <contour>
      <point x="443" y="-166" type="move" name="mark0"/>
    </contour>
  </outline>
</glyph>
<glyph name="Eth" format="1">
  <advance width="1537"/>
  <unicode hex="00D0"/>
  <outline>
    <contour>
      <point x="84" y="700" type="line"/>
      <point x="839" y="700" type="line"/>
      <point x="839" y="838" type="line"/>
      <point x="84" y="838" type="line"/>
    </contour>
    <component base="D"/>
  </outline>
</glyph>
<glyph name="Odieresis" format="1">
  <advance width="1462"/>
  <unicode hex="00D6"/>
  <outline>
    <component base="O"/>
    <component base="dieresiscomb.case" xOffset="742"/>
    <contour>
      <point x="728" y="-166" type="move" name="mark0"/>
    </contour>
  </outline>
</glyph>
<glyph name="multiply" format="1">
  <advance width="1238"/>
  <unicode hex="00D7"/>
  <outline>
    <contour>
      <point x="472" y="602" type="line"/>
      <point x="142" y="285" type="line"/>
      <point x="311" y="114" type="line"/>
      <point x="622" y="456" type="line"/>
      <point x="932" y="114" type="line"/>
      <point x="1102" y="285" type="line"/>
      <point x="771" y="602" type="line"/>
      <point x="1102" y="920" type="line"/>
      <point x="932" y="1092" type="line"/>
      <point x="622" y="748" type="line"/>
      <point x="309" y="1092" type="line"/>
      <point x="136" y="919" type="line"/>
    </contour>
  </outline>
</glyph>
<glyph name="Oslash" format="1">
  <advance width="1462"/>
  <unicode hex="00D8"/>
  <outline>
    <contour>
      <point x="372" y="54" type="curve"/>
      <point x="268" y="-190" type="line"/>
      <point x="421" y="-232" type="line"/>
      <point x="519" y="0" type="line"/>
      <point x="580" y="-15"/>
      <point x="648" y="-23"/>
      <point x="722" y="-22" type="curve" smooth="yes"/>
      <point x="1138" y="-19"/>
      <point x="1409" y="301"/>
      <point x="1409" y="768" type="curve" smooth="yes"/>
      <point x="1409" y="1085"/>
      <point x="1312" y="1322"/>
      <point x="1088" y="1434" type="curve"/>
      <point x="1177" y="1663" type="line"/>
      <point x="1035" y="1706" type="line"/>
      <point x="948" y="1483" type="line"/>
      <point x="885" y="1497"/>
      <point x="817" y="1505"/>
      <point x="743" y="1505" type="curve" smooth="yes"/>
      <point x="326" y="1506"/>
      <point x="53" y="1207"/>
      <point x="53" y="741" type="curve" smooth="yes"/>
      <point x="53" y="420"/>
      <point x="151" y="172"/>
    </contour>
    <contour>
      <point x="733" y="1373" type="curve" smooth="yes"/>
      <point x="794" y="1373"/>
      <point x="848" y="1352"/>
      <point x="890" y="1308" type="curve"/>
      <point x="508" y="312" type="line"/>
      <point x="457" y="410"/>
      <point x="430" y="557"/>
      <point x="430" y="742" type="curve" smooth="yes"/>
      <point x="430" y="1170"/>
      <point x="544" y="1373"/>
    </contour>
    <contour>
      <point x="1031" y="766" type="curve" smooth="yes"/>
      <point x="1031" y="337"/>
      <point x="917" y="112"/>
      <point x="730" y="112" type="curve" smooth="yes"/>
      <point x="665" y="112"/>
      <point x="612" y="135"/>
      <point x="568" y="187" type="curve"/>
      <point x="955" y="1185" type="line"/>
      <point x="1004" y="1090"/>
      <point x="1031" y="950"/>
    </contour>
    <contour>
      <point x="739" y="1486" type="move" name="top"/>
    </contour>
  </outline>
</glyph>
<glyph name="Ugrave" format="1">
  <advance width="1489"/>
  <unicode hex="00D9"/>
  <outline>
    <component base="U"/>
    <component base="gravecomb.case" xOffset="813"/>
    <contour>
      <point x="745" y="-166" type="move" name="mark0"/>
    </contour>
  </outline>
</glyph>
<glyph name="Yacute" format="1">
  <advance width="1311"/>
  <unicode hex="00DD"/>
  <outline>
    <component base="Y"/>
    <component base="acutecomb.case" xOffset="724"/>
    <contour>
      <point x="551" y="-166" type="move" name="mark0"/>
    </contour>
  </outline>
</glyph>
<glyph name="aacute" format="1">
  <advance width="1141"/>
  <unicode hex="00E1"/>
  <outline>
    <component base="a"/>
    <component base="acutecomb" xOffset="545" yOffset="1"/>
    <contour>
      <point x="544" y="-166" type="move" name="mark0"/>
    </contour>
  </outline>
</glyph>
<glyph name="adieresis" format="1">
  <advance width="1141"/>
  <unicode hex="00E4"/>
  <outline>
    <component base="a"/>
    <component base="dieresiscomb" xOffset="545"/>
    <contour>
      <point x="544" y="-166" type="move" name="mark0"/>
    </contour>
  </outline>
</glyph>
<glyph name="ccedilla" format="1">
  <advance width="1046"/>
  <unicode hex="00E7"/>
  <outline>
    <contour>
      <point x="62" y="548" type="curve" smooth="yes"/>
      <point x="63" y="242"/>
      <point x="197" y="12"/>
      <point x="514" y="-19" type="curve"/>
      <point x="535" y="-55"/>
      <point x="563" y="-118"/>
      <point x="563" y="-175" type="curve" smooth="yes"/>
      <point x="563" y="-298"/>
      <point x="515" y="-312"/>
      <point x="424" y="-312" type="curve" smooth="yes"/>
      <point x="408" y="-312"/>
      <point x="369" y="-308"/>
      <point x="341" y="-299" type="curve"/>
      <point x="340" y="-484" type="line"/>
      <point x="375" y="-499"/>
      <point x="436" y="-513"/>
      <point x="482" y="-513" type="curve" smooth="yes"/>
      <point x="666" y="-513"/>
      <point x="772" y="-460"/>
      <point x="781" y="-289" type="curve" smooth="yes"/>
      <point x="787" y="-172"/>
      <point x="713" y="-67"/>
      <point x="664" y="-16" type="curve"/>
      <point x="820" y="5"/>
      <point x="941" y="85"/>
      <point x="985" y="133" type="curve"/>
      <point x="932" y="251" type="line"/>
      <point x="869" y="213"/>
      <point x="783" y="175"/>
      <point x="659" y="175" type="curve" smooth="yes"/>
      <point x="508" y="175"/>
      <point x="411" y="321"/>
      <point x="411" y="607" type="curve" smooth="yes"/>
      <point x="413" y="902"/>
      <point x="496" y="996"/>
      <point x="612" y="996" type="curve" smooth="yes"/>
      <point x="655" y="996"/>
      <point x="701" y="984"/>
      <point x="710" y="948" type="curve" smooth="yes"/>
      <point x="762" y="717" type="line"/>
      <point x="964" y="717" type="line"/>
      <point x="978" y="1080" type="line"/>
      <point x="913" y="1089"/>
      <point x="821" y="1140"/>
      <point x="636" y="1140" type="curve" smooth="yes"/>
      <point x="292" y="1140"/>
      <point x="62" y="907"/>
    </contour>
    <contour>
      <point x="568" y="0" type="move" name="_bottom"/>
    </contour>
    <contour>
      <point x="568" y="0" type="move" name="bottom"/>
    </contour>
    <contour>
      <point x="585" y="-166" type="move" name="mark0"/>
    </contour>
    <contour>
      <point x="583" y="1111" type="move" name="top"/>
    </contour>
  </outline>
</glyph>
<glyph name="eacute" format="1">
  <advance width="1105"/>
  <unicode hex="00E9"/>
  <outline>
    <component base="e"/>
    <component base="acutecomb" xOffset="593" yOffset="1"/>
    <contour>
      <point x="556" y="-166" type="move" name="mark0"/>
    </contour>
  </outline>
</glyph>
<glyph name="edieresis" format="1">
  <advance width="1105"/>
  <unicode hex="00EB"/>
  <outline>
    <component base="e"/>
    <component base="dieresiscomb" xOffset="593"/>
    <contour>
      <point x="556" y="-166" type="move" name="mark0"/>
    </contour>
  </outline>
</glyph>
<glyph name="iacute" format="1">
  <advance width="706"/>
  <unicode hex="00ED"/>
  <outline>
    <component base="idotless"/>
    <component base="acutecomb" xOffset="356" yOffset="2"/>
    <contour>
      <point x="359" y="-166" type="move" name="mark0"/>
    </contour>
  </outline>
</glyph>
<glyph name="idieresis" format="1">
  <advance width="706"/>
  <unicode hex="00EF"/>
  <outline>
    <component base="idotless"/>
    <component base="dieresiscomb" xOffset="356" yOffset="1"/>
    <contour>
      <point x="359" y="-166" type="move" name="mark0"/>
    </contour>
  </outline>
</glyph>
<glyph name="ntilde" format="1">
  <advance width="1375"/>
  <unicode hex="00F1"/>
  <outline>
    <component base="n"/>
    <component base="tildecomb" xOffset="676"/>
    <contour>
      <point x="696" y="-166" type="move" name="mark0"/>
    </contour>
  </outline>
</glyph>
<glyph name="odieresis" format="1">
  <advance width="1207"/>
  <unicode hex="00F6"/>
  <outline>
    <component base="o"/>
    <component base="dieresiscomb" xOffset="612"/>
    <contour>
      <point x="558" y="-166" type="move" name="mark0"/>
    </contour>
  </outline>
</glyph>
<glyph name="uacute" format="1">
  <advance width="1298"/>
  <unicode hex="00FA"/>
  <outline>
    <component base="u"/>
    <component base="acutecomb" xOffset="614" yOffset="2"/>
    <contour>
      <point x="682" y="-166" type="move" name="mark0"/>
    </contour>
  </outline>
</glyph>
<glyph name="ucircumflex" format="1">
  <advance width="1298"/>
  <unicode hex="00FB"/>
  <outline>
    <component base="u"/>
    <component base="circumflexcomb" xOffset="614" yOffset="1"/>
    <contour>
      <point x="682" y="-166" type="move" name="mark0"/>
    </contour>
  </outline>
</glyph>
<glyph name="yacute" format="1">
  <advance width="1199"/>
  <unicode hex="00FD"/>
  <outline>
    <component base="y"/>
    <component base="acutecomb" xOffset="656" yOffset="1"/>
    <contour>
      <point x="626" y="-166" type="move" name="mark0"/>
    </contour>
  </outline>
</glyph>
<glyph name="ydieresis" format="1">
  <advance width="1199"/>
  <unicode hex="00FF"/>
  <outline>
    <component base="y"/>
    <component base="dieresiscomb" xOffset="656"/>
    <contour>
      <point x="626" y="-166" type="move" name="mark0"/>
    </contour>
  </outline>
</glyph>
<glyph name="Abreve" format="1">
  <advance width="1419"/>
  <unicode hex="0102"/>
  <outline>
    <component base="A"/>
    <component base="brevecomb.case" xOffset="706"/>
    <contour>
      <point x="586" y="-166" type="move" name="mark0"/>
    </contour>
  </outline>
</glyph>
<glyph name="aogonek" format="1">
  <advance width="1139"/>
  <unicode hex="0105"/>
  <outline>
    <contour>
      <point x="395" y="-22" type="curve" smooth="yes"/>
      <point x="558" y="-22"/>
      <point x="671" y="68"/>
      <point x="722" y="133" type="curve"/>
      <point x="722" y="87" type="line" smooth="yes"/>
      <point x="722" y="7"/>
      <point x="742" y="-21"/>
      <point x="830" y="-23" type="curve"/>
      <point x="707" y="-93"/>
      <point x="637" y="-195"/>
      <point x="637" y="-284" type="curve" smooth="yes"/>
      <point x="637" y="-426"/>
      <point x="774" y="-483"/>
      <point x="899" y="-483" type="curve" smooth="yes"/>
      <point x="1001" y="-483"/>
      <point x="1109" y="-446"/>
      <point x="1163" y="-405" type="curve"/>
      <point x="1160" y="-269" type="line"/>
      <point x="1117" y="-286"/>
      <point x="1084" y="-307"/>
      <point x="1026" y="-307" type="curve" smooth="yes"/>
      <point x="942" y="-307"/>
      <point x="898" y="-267"/>
      <point x="898" y="-201" type="curve" smooth="yes"/>
      <point x="898" y="-140"/>
      <point x="955" y="-58"/>
      <point x="1058" y="-5" type="curve"/>
      <point x="1078" y="0"/>
      <point x="1100" y="3"/>
      <point x="1115" y="6" type="curve"/>
      <point x="1115" y="132" type="line"/>
      <point x="1012" y="132" type="line"/>
      <point x="1012" y="727" type="line" smooth="yes"/>
      <point x="1012" y="1020"/>
      <point x="912" y="1138"/>
      <point x="592" y="1138" type="curve" smooth="yes"/>
      <point x="351" y="1138"/>
      <point x="148" y="1025"/>
      <point x="98" y="984" type="curve"/>
      <point x="167" y="840" type="line"/>
      <point x="231" y="868"/>
      <point x="351" y="924"/>
      <point x="508" y="924" type="curve" smooth="yes"/>
      <point x="674" y="924"/>
      <point x="706" y="862"/>
      <point x="706" y="725" type="curve" smooth="yes"/>
      <point x="706" y="687" type="line"/>
      <point x="327" y="684"/>
      <point x="56" y="563"/>
      <point x="56" y="320" type="curve" smooth="yes"/>
      <point x="56" y="102"/>
      <point x="211" y="-22"/>
    </contour>
    <contour>
      <point x="400" y="352" type="curve" smooth="yes"/>
      <point x="400" y="458"/>
      <point x="484" y="552"/>
      <point x="706" y="553" type="curve"/>
      <point x="706" y="234" type="line"/>
      <point x="664" y="194"/>
      <point x="598" y="161"/>
      <point x="549" y="161" type="curve" smooth="yes"/>
      <point x="458" y="161"/>
      <point x="400" y="232"/>
    </contour>
    <contour>
      <point x="980" y="20" type="move" name="_ogonek"/>
    </contour>
    <contour>
      <point x="576" y="0" type="move" name="bottom"/>
    </contour>
    <contour>
      <point x="544" y="-166" type="move" name="mark0"/>
    </contour>
    <contour>
      <point x="980" y="20" type="move" name="ogonek"/>
    </contour>
    <contour>
      <point x="562" y="1111" type="move" name="top"/>
    </contour>
  </outline>
</glyph>
<glyph name="cacute" format="1">
  <advance width="1047"/>
  <unicode hex="0107"/>
  <outline>
    <component base="c"/>
    <component base="acutecomb" xOffset="574" yOffset="1"/>
    <contour>
      <point x="582" y="-166" type="move" name="mark0"/>
    </contour>
  </outline>
</glyph>
<glyph name="Ccircumflex" format="1">
  <advance width="1326"/>
  <unicode hex="0108"/>
  <outline>
    <component base="C"/>
    <component base="circumflexcomb.case" xOffset="757"/>
    <contour>
      <point x="730" y="-166" type="move" name="mark0"/>
    </contour>
  </outline>
</glyph>
<glyph name="ccaron" format="1">
  <advance width="1047"/>
  <unicode hex="010D"/>
  <outline>
    <component base="c"/>
    <component base="caroncomb" xOffset="574" yOffset="-10"/>
    <contour>
      <point x="582" y="-166" type="move" name="mark0"/>
    </contour>
  </outline>
</glyph>
<glyph name="Dcaron" format="1">
  <advance width="1537"/>
  <unicode hex="010E"/>
  <outline>
    <component base="D"/>
    <component base="caroncomb.case" xOffset="773"/>
    <contour>
      <point x="796" y="-166" type="move" name="mark0"/>
    </contour>
  </outline>
</glyph>
<glyph name="dcroat" format="1">
  <advance width="1253"/>
  <unicode hex="0111"/>
  <outline>
    <contour>
      <point x="779" y="1363" type="line"/>
      <point x="515" y="1363" type="line"/>
      <point x="515" y="1234" type="line"/>
      <point x="779" y="1234" type="line"/>
      <point x="779" y="1126" type="line"/>
      <point x="744" y="1134"/>
      <point x="702" y="1140"/>
      <point x="661" y="1140" type="curve" smooth="yes"/>
      <point x="262" y="1140"/>
      <point x="60" y="852"/>
      <point x="60" y="529" type="curve" smooth="yes"/>
      <point x="60" y="142"/>
      <point x="252" y="-22"/>
      <point x="494" y="-22" type="curve" smooth="yes"/>
      <point x="622" y="-22"/>
      <point x="752" y="44"/>
      <point x="816" y="138" type="curve"/>
      <point x="816" y="87" type="line" smooth="yes"/>
      <point x="816" y="-6"/>
      <point x="859" y="-24"/>
      <point x="949" y="-24" type="curve" smooth="yes"/>
      <point x="1033" y="-24"/>
      <point x="1142" y="-6"/>
      <point x="1204" y="6" type="curve"/>
      <point x="1204" y="134" type="line"/>
      <point x="1100" y="134" type="line"/>
      <point x="1100" y="1234" type="line"/>
      <point x="1242" y="1234" type="line"/>
      <point x="1242" y="1363" type="line"/>
      <point x="1100" y="1363" type="line"/>
      <point x="1100" y="1592" type="line"/>
      <point x="1039" y="1639" type="line"/>
      <point x="1030" y="1639" type="line"/>
      <point x="587" y="1600" type="line"/>
      <point x="587" y="1473" type="line"/>
      <point x="779" y="1444" type="line"/>
    </contour>
    <contour>
      <point x="613" y="159" type="curve" smooth="yes"/>
      <point x="493" y="159"/>
      <point x="404" y="276"/>
      <point x="406" y="563" type="curve" smooth="yes"/>
      <point x="409" y="893"/>
      <point x="517" y="1002"/>
      <point x="650" y="1002" type="curve" smooth="yes"/>
      <point x="709" y="1002"/>
      <point x="763" y="983"/>
      <point x="779" y="960" type="curve"/>
      <point x="779" y="236" type="line"/>
      <point x="751" y="199"/>
      <point x="693" y="159"/>
    </contour>
  </outline>
</glyph>
<glyph name="Eogonek" format="1">
  <advance width="1315"/>
  <unicode hex="0118"/>
  <outline>
    <contour>
      <point x="222" y="153" type="line"/>
      <point x="69" y="132" type="line"/>
      <point x="69" y="0" type="line"/>
      <point x="1011" y="0" type="line"/>
      <point x="827" y="-64"/>
      <point x="720" y="-184"/>
      <point x="720" y="-301" type="curve" smooth="yes"/>
      <point x="720" y="-427"/>
      <point x="824" y="-501"/>
      <point x="988" y="-501" type="curve" smooth="yes"/>
      <point x="1070" y="-501"/>
      <point x="1177" y="-478"/>
      <point x="1233" y="-436" type="curve"/>
      <point x="1233" y="-296" type="line"/>
      <point x="1188" y="-315"/>
      <point x="1160" y="-322"/>
      <point x="1112" y="-322" type="curve" smooth="yes"/>
      <point x="1032" y="-322"/>
      <point x="983" y="-283"/>
      <point x="983" y="-215" type="curve" smooth="yes"/>
      <point x="983" y="-144"/>
      <point x="1095" y="-32"/>
      <point x="1229" y="0" type="curve"/>
      <point x="1246" y="0" type="line"/>
      <point x="1293" y="376" type="line"/>
      <point x="1123" y="424" type="line"/>
      <point x="1002" y="165" type="line"/>
      <point x="565" y="139" type="line"/>
      <point x="565" y="681" type="line"/>
      <point x="810" y="677" type="line"/>
      <point x="843" y="502" type="line"/>
      <point x="982" y="502" type="line"/>
      <point x="982" y="1003" type="line"/>
      <point x="843" y="1003" type="line"/>
      <point x="808" y="840" type="line"/>
      <point x="565" y="834" type="line"/>
      <point x="565" y="1354" type="line"/>
      <point x="959" y="1334" type="line"/>
      <point x="1027" y="1133" type="line"/>
      <point x="1186" y="1133" type="line"/>
      <point x="1159" y="1486" type="line"/>
      <point x="66" y="1486" type="line"/>
      <point x="66" y="1347" type="line"/>
      <point x="222" y="1319" type="line"/>
    </contour>
  </outline>
</glyph>
<glyph name="eogonek" format="1">
  <advance width="1105"/>
  <unicode hex="0119"/>
  <outline>
    <contour>
      <point x="613" y="-483" type="curve" smooth="yes"/>
      <point x="715" y="-483"/>
      <point x="819" y="-446"/>
      <point x="892" y="-391" type="curve"/>
      <point x="890" y="-269" type="line"/>
      <point x="847" y="-286"/>
      <point x="798" y="-307"/>
      <point x="740" y="-307" type="curve" smooth="yes"/>
      <point x="656" y="-307"/>
      <point x="612" y="-267"/>
      <point x="612" y="-201" type="curve" smooth="yes"/>
      <point x="612" y="-118"/>
      <point x="705" y="-26"/>
      <point x="816" y="18" type="curve"/>
      <point x="914" y="52"/>
      <point x="993" y="106"/>
      <point x="1028" y="141" type="curve"/>
      <point x="972" y="262" type="line"/>
      <point x="912" y="224"/>
      <point x="792" y="179"/>
      <point x="686" y="179" type="curve" smooth="yes"/>
      <point x="508" y="179"/>
      <point x="412" y="302"/>
      <point x="398" y="528" type="curve"/>
      <point x="1025" y="528" type="line"/>
      <point x="1036" y="579"/>
      <point x="1042" y="643"/>
      <point x="1042" y="734" type="curve"/>
      <point x="1037" y="989"/>
      <point x="890" y="1140"/>
      <point x="607" y="1140" type="curve" smooth="yes"/>
      <point x="276" y="1140"/>
      <point x="59" y="926"/>
      <point x="59" y="556" type="curve" smooth="yes"/>
      <point x="59" y="230"/>
      <point x="202" y="-3"/>
      <point x="550" y="-21" type="curve"/>
      <point x="421" y="-91"/>
      <point x="351" y="-188"/>
      <point x="351" y="-284" type="curve" smooth="yes"/>
      <point x="351" y="-424"/>
      <point x="491" y="-483"/>
    </contour>
    <contour>
      <point x="396" y="661" type="line"/>
      <point x="402" y="940"/>
      <point x="475" y="1001"/>
      <point x="577" y="1001" type="curve" smooth="yes"/>
      <point x="690" y="1001"/>
      <point x="726" y="901"/>
      <point x="727" y="744" type="curve" smooth="yes"/>
      <point x="727" y="716"/>
      <point x="725" y="689"/>
      <point x="724" y="661" type="curve"/>
    </contour>
    <contour>
      <point x="694" y="20" type="move" name="_ogonek"/>
    </contour>
    <contour>
      <point x="551" y="0" type="move" name="bottom"/>
    </contour>
    <contour>
      <point x="552" y="-166" type="move" name="mark0"/>
    </contour>
    <contour>
      <point x="694" y="20" type="move" name="ogonek"/>
    </contour>
    <contour>
      <point x="578" y="1111" type="move" name="top"/>
    </contour>
  </outline>
</glyph>
<glyph name="ecaron" format="1">
  <advance width="1105"/>
  <unicode hex="011B"/>
  <outline>
    <component base="e"/>
    <component base="caroncomb" xOffset="593" yOffset="-10"/>
    <contour>
      <point x="556" y="-166" type="move" name="mark0"/>
    </contour>
  </outline>
</glyph>
<glyph name="Gcircumflex" format="1">
  <advance width="1503"/>
  <unicode hex="011C"/>
  <outline>
    <component base="G"/>
    <component base="circumflexcomb.case" xOffset="807"/>
    <contour>
      <point x="757" y="-166" type="move" name="mark0"/>
    </contour>
  </outline>
</glyph>
<glyph name="Gdotaccent" format="1">
  <advance width="1503"/>
  <unicode hex="0120"/>
  <outline>
    <component base="G"/>
    <component base="dotaccentcomb.case" xOffset="807"/>
    <contour>
      <point x="756" y="-166" type="move" name="mark0"/>
    </contour>
  </outline>
</glyph>
<glyph name="Hbar" format="1">
  <advance width="1678"/>
  <unicode hex="0126"/>
  <outline>
    <contour>
      <point x="223" y="1109" type="line"/>
      <point x="52" y="1109" type="line"/>
      <point x="52" y="980" type="line"/>
      <point x="223" y="980" type="line"/>
      <point x="223" y="153" type="line"/>
      <point x="77" y="132" type="line"/>
      <point x="77" y="0" type="line"/>
      <point x="728" y="0" type="line"/>
      <point x="728" y="132" type="line"/>
      <point x="563" y="154" type="line"/>
      <point x="564" y="574" type="line"/>
      <point x="1113" y="574" type="line"/>
      <point x="1112" y="155" type="line"/>
      <point x="961" y="131" type="line"/>
      <point x="961" y="0" type="line"/>
      <point x="1602" y="0" type="line"/>
      <point x="1602" y="131" type="line"/>
      <point x="1455" y="153" type="line"/>
      <point x="1455" y="980" type="line"/>
      <point x="1647" y="980" type="line"/>
      <point x="1647" y="1109" type="line"/>
      <point x="1455" y="1109" type="line"/>
      <point x="1455" y="1320" type="line"/>
      <point x="1602" y="1347" type="line"/>
      <point x="1602" y="1487" type="line"/>
      <point x="962" y="1487" type="line"/>
      <point x="962" y="1347" type="line"/>
      <point x="1113" y="1319" type="line"/>
      <point x="1113" y="1109" type="line"/>
      <point x="564" y="1109" type="line"/>
      <point x="564" y="1320" type="line"/>
      <point x="728" y="1347" type="line"/>
      <point x="728" y="1487" type="line"/>
      <point x="80" y="1487" type="line"/>
      <point x="80" y="1347" type="line"/>
      <point x="223" y="1320" type="line"/>
    </contour>
    <contour>
      <point x="1113" y="980" type="line"/>
      <point x="1113" y="742" type="line"/>
      <point x="564" y="742" type="line"/>
      <point x="564" y="980" type="line"/>
    </contour>
  </outline>
</glyph>
<glyph name="hbar" format="1">
  <advance width="1362"/>
  <unicode hex="0127"/>
  <outline>
    <contour>
      <point x="176" y="1351" type="line"/>
      <point x="18" y="1351" type="line"/>
      <point x="18" y="1218" type="line"/>
      <point x="176" y="1218" type="line"/>
      <point x="176" y="150" type="line"/>
      <point x="73" y="132" type="line"/>
      <point x="73" y="0" type="line"/>
      <point x="622" y="0" type="line"/>
      <point x="622" y="132" type="line"/>
      <point x="510" y="151" type="line"/>
      <point x="510" y="861" type="line"/>
      <point x="557" y="903"/>
      <point x="637" y="946"/>
      <point x="718" y="946" type="curve" smooth="yes"/>
      <point x="843" y="946"/>
      <point x="868" y="874"/>
      <point x="868" y="696" type="curve" smooth="yes"/>
      <point x="868" y="151" type="line"/>
      <point x="764" y="132" type="line"/>
      <point x="764" y="0" type="line"/>
      <point x="1318" y="0" type="line"/>
      <point x="1318" y="132" type="line"/>
      <point x="1197" y="151" type="line"/>
      <point x="1197" y="697" type="line" smooth="yes"/>
      <point x="1197" y="996"/>
      <point x="1129" y="1135"/>
      <point x="874" y="1135" type="curve" smooth="yes"/>
      <point x="694" y="1135"/>
      <point x="554" y="1046"/>
      <point x="486" y="986" type="curve"/>
      <point x="502" y="1164" type="line"/>
      <point x="502" y="1218" type="line"/>
      <point x="766" y="1218" type="line"/>
      <point x="766" y="1351" type="line"/>
      <point x="502" y="1351" type="line"/>
      <point x="502" y="1597" type="line"/>
      <point x="444" y="1639" type="line"/>
      <point x="438" y="1639" type="line"/>
      <point x="34" y="1592" type="line"/>
      <point x="34" y="1471" type="line"/>
      <point x="176" y="1444" type="line"/>
    </contour>
  </outline>
</glyph>
<glyph name="Imacron" format="1">
  <advance width="832"/>
  <unicode hex="012A"/>
  <outline>
    <component base="I"/>
    <component base="macroncomb.case" xOffset="416"/>
    <contour>
      <point x="443" y="-166" type="move" name="mark0"/>
    </contour>
  </outline>
</glyph>
<glyph name="Iogonek" format="1">
  <advance width="835"/>
  <unicode hex="012E"/>
  <outline>
    <contour>
      <point x="246" y="154" type="line"/>
      <point x="85" y="132" type="line"/>
      <point x="85" y="0" type="line"/>
      <point x="481" y="0" type="line"/>
      <point x="320" y="-64"/>
      <point x="200" y="-184"/>
      <point x="200" y="-301" type="curve" smooth="yes"/>
      <point x="200" y="-427"/>
      <point x="315" y="-501"/>
      <point x="478" y="-501" type="curve" smooth="yes"/>
      <point x="560" y="-501"/>
      <point x="672" y="-478"/>
      <point x="728" y="-436" type="curve"/>
      <point x="728" y="-296" type="line"/>
      <point x="683" y="-315"/>
      <point x="656" y="-322"/>
      <point x="609" y="-322" type="curve" smooth="yes"/>
      <point x="514" y="-322"/>
      <point x="463" y="-283"/>
      <point x="463" y="-215" type="curve" smooth="yes"/>
      <point x="463" y="-147"/>
      <point x="547" y="-47"/>
      <point x="672" y="0" type="curve"/>
      <point x="757" y="0" type="line"/>
      <point x="757" y="130" type="line"/>
      <point x="589" y="153" type="line"/>
      <point x="589" y="1319" type="line"/>
      <point x="757" y="1347" type="line"/>
      <point x="757" y="1486" type="line"/>
      <point x="83" y="1486" type="line"/>
      <point x="83" y="1347" type="line"/>
      <point x="246" y="1319" type="line"/>
    </contour>
  </outline>
</glyph>
<glyph name="iogonek" format="1">
  <advance width="712"/>
  <unicode hex="012F"/>
  <outline>
    <contour>
      <point x="339" y="1283" type="curve"/>
      <point x="341" y="1283" type="line"/>
      <point x="475" y="1283"/>
      <point x="546" y="1366"/>
      <point x="546" y="1476" type="curve" smooth="yes"/>
      <point x="546" y="1566"/>
      <point x="485" y="1640"/>
      <point x="362" y="1640" type="curve" smooth="yes"/>
      <point x="239" y="1640"/>
      <point x="165" y="1556"/>
      <point x="165" y="1447" type="curve" smooth="yes"/>
      <point x="165" y="1354"/>
      <point x="234" y="1283"/>
    </contour>
    <contour>
      <point x="379" y="-483" type="curve" smooth="yes"/>
      <point x="481" y="-483"/>
      <point x="583" y="-449"/>
      <point x="638" y="-408" type="curve"/>
      <point x="639" y="-269" type="line"/>
      <point x="596" y="-286"/>
      <point x="563" y="-307"/>
      <point x="505" y="-307" type="curve" smooth="yes"/>
      <point x="427" y="-307"/>
      <point x="382" y="-265"/>
      <point x="382" y="-201" type="curve" smooth="yes"/>
      <point x="382" y="-138"/>
      <point x="433" y="-53"/>
      <point x="543" y="0" type="curve"/>
      <point x="658" y="0" type="line"/>
      <point x="658" y="132" type="line"/>
      <point x="537" y="150" type="line"/>
      <point x="537" y="1096" type="line"/>
      <point x="477" y="1138" type="line"/>
      <point x="473" y="1138" type="line"/>
      <point x="71" y="1090" type="line"/>
      <point x="71" y="940" type="line"/>
      <point x="207" y="901" type="line"/>
      <point x="207" y="151" type="line"/>
      <point x="81" y="132" type="line"/>
      <point x="81" y="0" type="line"/>
      <point x="352" y="0" type="line"/>
      <point x="198" y="-69"/>
      <point x="121" y="-185"/>
      <point x="121" y="-284" type="curve" smooth="yes"/>
      <point x="121" y="-423"/>
      <point x="261" y="-483"/>
    </contour>
    <contour>
      <point x="445" y="20" type="move" name="_ogonek"/>
    </contour>
    <contour>
      <point x="364" y="0" type="move" name="bottom"/>
    </contour>
    <contour>
      <point x="359" y="-166" type="move" name="mark0"/>
    </contour>
    <contour>
      <point x="445" y="20" type="move" name="ogonek"/>
    </contour>
    <contour>
      <point x="357" y="1111" type="move" name="top"/>
    </contour>
  </outline>
</glyph>
<glyph name="IJ" format="1">
  <advance width="1626"/>
  <unicode hex="0132"/>
  <outline>
    <component base="I"/>
    <component base="J" xOffset="832"/>
    <contour>
      <point x="1160" y="-166" type="move" name="mark0"/>
    </contour>
  </outline>
</glyph>
<glyph name="ij" format="1">
  <advance width="1386"/>
  <unicode hex="0133"/>
  <outline>
    <component base="i"/>
    <component base="j" xOffset="706"/>
    <contour>
      <point x="1036" y="-166" type="move" name="mark0"/>
    </contour>
  </outline>
</glyph>
<glyph name="Jcircumflex" format="1">
  <advance width="794"/>
  <unicode hex="0134"/>
  <outline>
    <component base="J"/>
    <component base="circumflexcomb.case" xOffset="413"/>
    <contour>
      <point x="325" y="-166" type="move" name="mark0"/>
    </contour>
  </outline>
</glyph>
<glyph name="Kcommaaccent" format="1">
  <advance width="1517"/>
  <unicode hex="0136"/>
  <outline>
    <component base="K"/>
    <component base="commaaccentcomb" xOffset="831"/>
    <contour>
      <point x="780" y="-166" type="move" name="mark0"/>
    </contour>
  </outline>
</glyph>
<glyph name="kcommaaccent" format="1">
  <advance width="1335"/>
  <unicode hex="0137"/>
  <outline>
    <component base="k"/>
    <component base="commaaccentcomb" xOffset="690"/>
    <contour>
      <point x="696" y="-166" type="move" name="mark0"/>
    </contour>
  </outline>
</glyph>
<glyph name="kgreenlandic" format="1">
  <advance width="1364"/>
  <unicode hex="0138"/>
  <outline>
    <contour>
      <point x="211" y="150" type="line"/>
      <point x="87" y="131" type="line"/>
      <point x="87" y="0" type="line"/>
      <point x="660" y="0" type="line"/>
      <point x="660" y="131" type="line"/>
      <point x="544" y="150" type="line"/>
      <point x="544" y="271" type="line"/>
      <point x="537" y="361" type="line"/>
      <point x="701" y="530" type="line"/>
      <point x="899" y="148" type="line"/>
      <point x="817" y="131" type="line"/>
      <point x="817" y="0" type="line"/>
      <point x="1368" y="0" type="line"/>
      <point x="1368" y="131" type="line"/>
      <point x="1262" y="151" type="line"/>
      <point x="924" y="742" type="line"/>
      <point x="1159" y="962" type="line"/>
      <point x="1318" y="982" type="line"/>
      <point x="1318" y="1109" type="line"/>
      <point x="757" y="1109" type="line"/>
      <point x="757" y="982" type="line"/>
      <point x="921" y="960" type="line"/>
      <point x="536" y="536" type="line"/>
      <point x="541" y="698" type="line"/>
      <point x="541" y="1096" type="line"/>
      <point x="466" y="1138" type="line"/>
      <point x="462" y="1138" type="line"/>
      <point x="90" y="1095" type="line"/>
      <point x="90" y="938" type="line"/>
      <point x="213" y="901" type="line"/>
    </contour>
  </outline>
</glyph>
<glyph name="Lacute" format="1">
  <advance width="1281"/>
  <unicode hex="0139"/>
  <outline>
    <component base="L"/>
    <component base="acutecomb.case" xOffset="408"/>
    <contour>
      <point x="688" y="-166" type="move" name="mark0"/>
    </contour>
  </outline>
</glyph>
<glyph name="Lcommaaccent" format="1">
  <advance width="1281"/>
  <unicode hex="013B"/>
  <outline>
    <component base="L"/>
    <component base="commaaccentcomb" xOffset="670"/>
    <contour>
      <point x="688" y="-166" type="move" name="mark0"/>
    </contour>
  </outline>
</glyph>
<glyph name="lcommaaccent" format="1">
  <advance width="668"/>
  <unicode hex="013C"/>
  <outline>
    <component base="l"/>
    <component base="commaaccentcomb" xOffset="342"/>
    <contour>
      <point x="344" y="-166" type="move" name="mark0"/>
    </contour>
  </outline>
</glyph>
<glyph name="Ldot" format="1">
  <advance width="1560"/>
  <unicode hex="013F"/>
  <outline>
    <contour>
      <point x="223" y="153" type="line"/>
      <point x="71" y="132" type="line"/>
      <point x="71" y="0" type="line"/>
      <point x="1202" y="0" type="line"/>
      <point x="1260" y="548" type="line"/>
      <point x="1072" y="572" type="line"/>
      <point x="941" y="176" type="line"/>
      <point x="566" y="156" type="line"/>
      <point x="566" y="1319" type="line"/>
      <point x="756" y="1347" type="line"/>
      <point x="756" y="1486" type="line"/>
      <point x="73" y="1486" type="line"/>
      <point x="73" y="1347" type="line"/>
      <point x="223" y="1319" type="line"/>
    </contour>
    <contour>
      <point x="1319" y="693" type="curve" smooth="yes"/>
      <point x="1440" y="693"/>
      <point x="1525" y="759"/>
      <point x="1525" y="874" type="curve" smooth="yes"/>
      <point x="1525" y="960"/>
      <point x="1461" y="1042"/>
      <point x="1350" y="1042" type="curve" smooth="yes"/>
      <point x="1239" y="1042"/>
      <point x="1149" y="968"/>
      <point x="1149" y="860" type="curve" smooth="yes"/>
      <point x="1149" y="762"/>
      <point x="1231" y="693"/>
    </contour>
    <contour>
      <point x="688" y="-166" type="move" name="mark0"/>
    </contour>
  </outline>
</glyph>
<glyph name="Lslash" format="1">
  <advance width="1276"/>
  <unicode hex="0141"/>
  <outline>
    <contour>
      <point x="366" y="890" type="line"/>
      <point x="44" y="763" type="line"/>
      <point x="44" y="613" type="line"/>
      <point x="366" y="739" type="line"/>
      <point x="423" y="759" type="line"/>
      <point x="906" y="953" type="line"/>
      <point x="906" y="1113" type="line"/>
      <point x="425" y="914" type="line"/>
    </contour>
    <component base="L"/>
  </outline>
</glyph>
<glyph name="lslash" format="1">
  <advance width="823"/>
  <unicode hex="0142"/>
  <outline>
    <contour>
      <point x="252" y="890" type="line"/>
      <point x="65" y="805" type="line"/>
      <point x="65" y="652" type="line"/>
      <point x="252" y="735" type="line"/>
      <point x="252" y="151" type="line"/>
      <point x="125" y="132" type="line"/>
      <point x="125" y="0" type="line"/>
      <point x="706" y="0" type="line"/>
      <point x="706" y="132" type="line"/>
      <point x="576" y="150" type="line"/>
      <point x="576" y="863" type="line"/>
      <point x="781" y="956" type="line"/>
      <point x="781" y="1119" type="line"/>
      <point x="576" y="1022" type="line"/>
      <point x="576" y="1597" type="line"/>
      <point x="517" y="1639" type="line"/>
      <point x="512" y="1639" type="line"/>
      <point x="112" y="1592" type="line"/>
      <point x="112" y="1471" type="line"/>
      <point x="252" y="1444" type="line"/>
    </contour>
  </outline>
</glyph>
<glyph name="Ncommaaccent" format="1">
  <advance width="1606"/>
  <unicode hex="0145"/>
  <outline>
    <component base="N"/>
    <component base="commaaccentcomb" xOffset="805"/>
    <contour>
      <point x="860" y="-166" type="move" name="mark0"/>
    </contour>
  </outline>
</glyph>
<glyph name="Ncaron" format="1">
  <advance width="1606"/>
  <unicode hex="0147"/>
  <outline>
    <component base="N"/>
    <component base="caroncomb.case" xOffset="840"/>
    <contour>
      <point x="860" y="-166" type="move" name="mark0"/>
    </contour>
  </outline>
</glyph>
<glyph name="ncaron" format="1">
  <advance width="1375"/>
  <unicode hex="0148"/>
  <outline>
    <component base="n"/>
    <component base="caroncomb" xOffset="676" yOffset="-10"/>
    <contour>
      <point x="696" y="-166" type="move" name="mark0"/>
    </contour>
  </outline>
</glyph>
<glyph name="obreve" format="1">
  <advance width="1207"/>
  <unicode hex="014F"/>
  <outline>
    <component base="o"/>
    <component base="brevecomb" xOffset="612" yOffset="-13"/>
    <contour>
      <point x="558" y="-166" type="move" name="mark0"/>
    </contour>
  </outline>
</glyph>
<glyph name="OE" format="1">
  <advance width="2079"/>
  <unicode hex="0152"/>
  <outline>
    <contour>
      <point x="958" y="43" type="curve"/>
      <point x="958" y="0" type="line"/>
      <point x="1994" y="0" type="line"/>
      <point x="2061" y="372" type="line"/>
      <point x="1899" y="418" type="line"/>
      <point x="1759" y="165" type="line"/>
      <point x="1308" y="138" type="line"/>
      <point x="1308" y="682" type="line"/>
      <point x="1554" y="676" type="line"/>
      <point x="1587" y="502" type="line"/>
      <point x="1734" y="502" type="line"/>
      <point x="1734" y="1003" type="line"/>
      <point x="1587" y="1003" type="line"/>
      <point x="1554" y="842" type="line"/>
      <point x="1308" y="835" type="line"/>
      <point x="1308" y="1355" type="line"/>
      <point x="1707" y="1333" type="line"/>
      <point x="1774" y="1131" type="line"/>
      <point x="1933" y="1131" type="line"/>
      <point x="1905" y="1486" type="line"/>
      <point x="958" y="1486" type="line"/>
      <point x="958" y="1471" type="line"/>
      <point x="894" y="1497"/>
      <point x="823" y="1509"/>
      <point x="746" y="1509" type="curve" smooth="yes"/>
      <point x="316" y="1505"/>
      <point x="53" y="1207"/>
      <point x="53" y="741" type="curve" smooth="yes"/>
      <point x="53" y="293"/>
      <point x="264" y="-18"/>
      <point x="725" y="-16" type="curve"/>
      <point x="810" y="-15"/>
      <point x="887" y="4"/>
    </contour>
    <contour>
      <point x="734" y="113" type="curve" smooth="yes"/>
      <point x="543" y="113"/>
      <point x="428" y="318"/>
      <point x="428" y="743" type="curve" smooth="yes"/>
      <point x="428" y="1164"/>
      <point x="538" y="1377"/>
      <point x="731" y="1377" type="curve" smooth="yes"/>
      <point x="839" y="1377"/>
      <point x="914" y="1334"/>
      <point x="958" y="1192" type="curve"/>
      <point x="958" y="341" type="line"/>
      <point x="913" y="201"/>
      <point x="840" y="113"/>
    </contour>
    <contour>
      <point x="1003" y="-166" type="move" name="mark0"/>
    </contour>
  </outline>
</glyph>
<glyph name="oe" format="1">
  <advance width="1854"/>
  <unicode hex="0153"/>
  <outline>
    <contour>
      <point x="590" y="-22" type="curve" smooth="yes"/>
      <point x="739" y="-22"/>
      <point x="865" y="31"/>
      <point x="955" y="128" type="curve"/>
      <point x="1039" y="33"/>
      <point x="1167" y="-22"/>
      <point x="1345" y="-22" type="curve" smooth="yes"/>
      <point x="1535" y="-22"/>
      <point x="1716" y="75"/>
      <point x="1778" y="141" type="curve"/>
      <point x="1725" y="260" type="line"/>
      <point x="1664" y="223"/>
      <point x="1541" y="179"/>
      <point x="1436" y="179" type="curve" smooth="yes"/>
      <point x="1257" y="179"/>
      <point x="1161" y="303"/>
      <point x="1147" y="528" type="curve"/>
      <point x="1776" y="528" type="line"/>
      <point x="1786" y="579"/>
      <point x="1792" y="643"/>
      <point x="1791" y="734" type="curve"/>
      <point x="1787" y="989"/>
      <point x="1639" y="1140"/>
      <point x="1355" y="1140" type="curve" smooth="yes"/>
      <point x="1203" y="1140"/>
      <point x="1077" y="1090"/>
      <point x="986" y="1000" type="curve"/>
      <point x="905" y="1095"/>
      <point x="781" y="1140"/>
      <point x="619" y="1140" type="curve" smooth="yes"/>
      <point x="316" y="1140"/>
      <point x="52" y="948"/>
      <point x="52" y="549" type="curve" smooth="yes"/>
      <point x="52" y="178"/>
      <point x="263" y="-22"/>
    </contour>
    <contour>
      <point x="608" y="118" type="curve" smooth="yes"/>
      <point x="472" y="118"/>
      <point x="407" y="248"/>
      <point x="407" y="573" type="curve" smooth="yes"/>
      <point x="407" y="875"/>
      <point x="474" y="1001"/>
      <point x="601" y="1001" type="curve" smooth="yes"/>
      <point x="742" y="1001"/>
      <point x="796" y="862"/>
      <point x="796" y="546" type="curve" smooth="yes"/>
      <point x="796" y="241"/>
      <point x="733" y="118"/>
    </contour>
    <contour>
      <point x="1144" y="661" type="line"/>
      <point x="1150" y="941"/>
      <point x="1225" y="1001"/>
      <point x="1327" y="1001" type="curve" smooth="yes"/>
      <point x="1440" y="1001"/>
      <point x="1474" y="898"/>
      <point x="1474" y="744" type="curve" smooth="yes"/>
      <point x="1474" y="716"/>
      <point x="1474" y="689"/>
      <point x="1473" y="661" type="curve"/>
    </contour>
    <contour>
      <point x="1061" y="-166" type="move" name="mark0"/>
    </contour>
  </outline>
</glyph>
<glyph name="racute" format="1">
  <advance width="952"/>
  <unicode hex="0155"/>
  <outline>
    <component base="r"/>
    <component base="acutecomb" xOffset="514" yOffset="1"/>
    <contour>
      <point x="396" y="-166" type="move" name="mark0"/>
    </contour>
  </outline>
</glyph>
<glyph name="Rcommaaccent" format="1">
  <advance width="1463"/>
  <unicode hex="0156"/>
  <outline>
    <component base="R"/>
    <component base="commaaccentcomb" xOffset="816"/>
    <contour>
      <point x="757" y="-166" type="move" name="mark0"/>
    </contour>
  </outline>
</glyph>
<glyph name="rcommaaccent" format="1">
  <advance width="952"/>
  <unicode hex="0157"/>
  <outline>
    <component base="r"/>
    <component base="commaaccentcomb" xOffset="369"/>
    <contour>
      <point x="394" y="-166" type="move" name="mark0"/>
    </contour>
  </outline>
</glyph>
<glyph name="Rcaron" format="1">
  <advance width="1463"/>
  <unicode hex="0158"/>
  <outline>
    <component base="R"/>
    <component base="caroncomb.case" xOffset="732"/>
    <contour>
      <point x="757" y="-166" type="move" name="mark0"/>
    </contour>
  </outline>
</glyph>
<glyph name="rcaron" format="1">
  <advance width="952"/>
  <unicode hex="0159"/>
  <outline>
    <component base="r"/>
    <component base="caroncomb" xOffset="514" yOffset="-10"/>
    <contour>
      <point x="396" y="-166" type="move" name="mark0"/>
    </contour>
  </outline>
</glyph>
<glyph name="sacute" format="1">
  <advance width="1066"/>
  <unicode hex="015B"/>
  <outline>
    <component base="s"/>
    <component base="acutecomb" xOffset="535" yOffset="1"/>
    <contour>
      <point x="489" y="-166" type="move" name="mark0"/>
    </contour>
  </outline>
</glyph>
<glyph name="scircumflex" format="1">
  <advance width="1066"/>
  <unicode hex="015D"/>
  <outline>
    <component base="s"/>
    <component base="circumflexcomb" xOffset="535"/>
    <contour>
      <point x="489" y="-166" type="move" name="mark0"/>
    </contour>
  </outline>
</glyph>
<glyph name="Scedilla" format="1">
  <advance width="1217"/>
  <unicode hex="015E"/>
  <outline>
    <contour>
      <point x="108" y="66" type="line"/>
      <point x="170" y="61"/>
      <point x="334" y="-12"/>
      <point x="556" y="-21" type="curve"/>
      <point x="577" y="-58"/>
      <point x="604" y="-119"/>
      <point x="604" y="-175" type="curve" smooth="yes"/>
      <point x="604" y="-298"/>
      <point x="556" y="-312"/>
      <point x="465" y="-312" type="curve" smooth="yes"/>
      <point x="449" y="-312"/>
      <point x="410" y="-308"/>
      <point x="382" y="-299" type="curve"/>
      <point x="381" y="-484" type="line"/>
      <point x="416" y="-499"/>
      <point x="477" y="-513"/>
      <point x="523" y="-513" type="curve" smooth="yes"/>
      <point x="707" y="-513"/>
      <point x="813" y="-460"/>
      <point x="822" y="-289" type="curve" smooth="yes"/>
      <point x="828" y="-173"/>
      <point x="755" y="-69"/>
      <point x="706" y="-17" type="curve"/>
      <point x="1068" y="20"/>
      <point x="1171" y="248"/>
      <point x="1171" y="428" type="curve" smooth="yes"/>
      <point x="1171" y="672"/>
      <point x="956" y="789"/>
      <point x="796" y="865" type="curve" smooth="yes"/>
      <point x="607" y="959"/>
      <point x="440" y="1032"/>
      <point x="440" y="1185" type="curve" smooth="yes"/>
      <point x="440" y="1287"/>
      <point x="503" y="1371"/>
      <point x="659" y="1371" type="curve" smooth="yes"/>
      <point x="748" y="1371"/>
      <point x="817" y="1344"/>
      <point x="833" y="1323" type="curve"/>
      <point x="878" y="1078" type="line"/>
      <point x="1060" y="1078" type="line"/>
      <point x="1072" y="1434" type="line"/>
      <point x="1014" y="1439"/>
      <point x="875" y="1505"/>
      <point x="644" y="1505" type="curve" smooth="yes"/>
      <point x="278" y="1505"/>
      <point x="116" y="1310"/>
      <point x="116" y="1096" type="curve" smooth="yes"/>
      <point x="116" y="819"/>
      <point x="340" y="691"/>
      <point x="493" y="620" type="curve" smooth="yes"/>
      <point x="698" y="525"/>
      <point x="829" y="456"/>
      <point x="829" y="320" type="curve" smooth="yes"/>
      <point x="829" y="197"/>
      <point x="752" y="117"/>
      <point x="585" y="117" type="curve" smooth="yes"/>
      <point x="468" y="117"/>
      <point x="388" y="153"/>
      <point x="361" y="185" type="curve"/>
      <point x="312" y="439" type="line"/>
      <point x="125" y="439" type="line"/>
    </contour>
    <contour>
      <point x="609" y="0" type="move" name="_bottom"/>
    </contour>
    <contour>
      <point x="609" y="-513" type="move" name="bottom"/>
    </contour>
    <contour>
      <point x="604" y="-166" type="move" name="mark0"/>
    </contour>
  </outline>
</glyph>
<glyph name="scedilla" format="1">
  <advance width="1056"/>
  <unicode hex="015F"/>
  <outline>
    <contour>
      <point x="443" y="-513" type="curve" smooth="yes"/>
      <point x="627" y="-513"/>
      <point x="733" y="-460"/>
      <point x="742" y="-289" type="curve" smooth="yes"/>
      <point x="748" y="-173"/>
      <point x="675" y="-69"/>
      <point x="626" y="-17" type="curve"/>
      <point x="881" y="12"/>
      <point x="993" y="153"/>
      <point x="993" y="315" type="curve" smooth="yes"/>
      <point x="993" y="523"/>
      <point x="818" y="609"/>
      <point x="649" y="681" type="curve" smooth="yes"/>
      <point x="518" y="738"/>
      <point x="397" y="778"/>
      <point x="397" y="887" type="curve" smooth="yes"/>
      <point x="397" y="961"/>
      <point x="459" y="1009"/>
      <point x="560" y="1008" type="curve" smooth="yes"/>
      <point x="629" y="1008"/>
      <point x="681" y="983"/>
      <point x="695" y="959" type="curve"/>
      <point x="746" y="806" type="line"/>
      <point x="925" y="806" type="line"/>
      <point x="925" y="1078" type="line"/>
      <point x="856" y="1085"/>
      <point x="750" y="1137"/>
      <point x="543" y="1137" type="curve" smooth="yes"/>
      <point x="260" y="1137"/>
      <point x="93" y="998"/>
      <point x="93" y="815" type="curve" smooth="yes"/>
      <point x="93" y="638"/>
      <point x="189" y="537"/>
      <point x="354" y="463" type="curve" smooth="yes"/>
      <point x="529" y="381"/>
      <point x="669" y="339"/>
      <point x="669" y="234" type="curve" smooth="yes"/>
      <point x="669" y="163"/>
      <point x="616" y="109"/>
      <point x="502" y="109" type="curve" smooth="yes"/>
      <point x="432" y="109"/>
      <point x="351" y="138"/>
      <point x="334" y="167" type="curve"/>
      <point x="283" y="324" type="line"/>
      <point x="94" y="324" type="line"/>
      <point x="94" y="58" type="line"/>
      <point x="162" y="42"/>
      <point x="294" y="-12"/>
      <point x="476" y="-21" type="curve"/>
      <point x="497" y="-58"/>
      <point x="523" y="-119"/>
      <point x="523" y="-175" type="curve" smooth="yes"/>
      <point x="523" y="-298"/>
      <point x="475" y="-312"/>
      <point x="385" y="-312" type="curve" smooth="yes"/>
      <point x="369" y="-312"/>
      <point x="330" y="-308"/>
      <point x="302" y="-299" type="curve"/>
      <point x="301" y="-484" type="line"/>
      <point x="336" y="-499"/>
      <point x="397" y="-513"/>
    </contour>
    <contour>
      <point x="529" y="0" type="move" name="_bottom"/>
    </contour>
    <contour>
      <point x="529" y="0" type="move" name="bottom"/>
    </contour>
    <contour>
      <point x="489" y="-166" type="move" name="mark0"/>
    </contour>
    <contour>
      <point x="529" y="1111" type="move" name="top"/>
    </contour>
  </outline>
</glyph>
<glyph name="Tcedilla" format="1">
  <advance width="1450"/>
  <unicode hex="0162"/>
  <outline>
    <contour>
      <point x="32" y="882" type="line"/>
      <point x="220" y="882" type="line"/>
      <point x="305" y="1328" type="line"/>
      <point x="555" y="1338" type="line"/>
      <point x="555" y="154" type="line"/>
      <point x="300" y="132" type="line"/>
      <point x="300" y="0" type="line"/>
      <point x="660" y="0" type="line"/>
      <point x="682" y="-31"/>
      <point x="721" y="-107"/>
      <point x="721" y="-175" type="curve" smooth="yes"/>
      <point x="721" y="-298"/>
      <point x="673" y="-312"/>
      <point x="582" y="-312" type="curve" smooth="yes"/>
      <point x="567" y="-312"/>
      <point x="527" y="-308"/>
      <point x="499" y="-299" type="curve"/>
      <point x="498" y="-484" type="line"/>
      <point x="533" y="-499"/>
      <point x="594" y="-513"/>
      <point x="640" y="-513" type="curve" smooth="yes"/>
      <point x="824" y="-513"/>
      <point x="930" y="-460"/>
      <point x="939" y="-289" type="curve" smooth="yes"/>
      <point x="946" y="-159"/>
      <point x="853" y="-43"/>
      <point x="806" y="0" type="curve"/>
      <point x="1178" y="0" type="line"/>
      <point x="1178" y="132" type="line"/>
      <point x="899" y="154" type="line"/>
      <point x="899" y="1338" type="line"/>
      <point x="1142" y="1328" type="line"/>
      <point x="1229" y="882" type="line"/>
      <point x="1408" y="882" type="line"/>
      <point x="1383" y="1486" type="line"/>
      <point x="64" y="1486" type="line"/>
    </contour>
    <contour>
      <point x="726" y="0" type="move" name="_bottom"/>
    </contour>
    <contour>
      <point x="726" y="0" type="move" name="bottom"/>
    </contour>
    <contour>
      <point x="726" y="744" type="move" name="center"/>
    </contour>
    <contour>
      <point x="731" y="-166" type="move" name="mark0"/>
    </contour>
    <contour>
      <point x="726" y="1486" type="move" name="top"/>
    </contour>
  </outline>
</glyph>
<glyph name="Tbar" format="1">
  <advance width="1468"/>
  <unicode hex="0166"/>
  <outline>
    <contour>
      <point x="563" y="715" type="line"/>
      <point x="348" y="715" type="line"/>
      <point x="348" y="563" type="line"/>
      <point x="563" y="563" type="line"/>
      <point x="563" y="154" type="line"/>
      <point x="310" y="132" type="line"/>
      <point x="310" y="0" type="line"/>
      <point x="1188" y="0" type="line"/>
      <point x="1188" y="132" type="line"/>
      <point x="909" y="154" type="line"/>
      <point x="909" y="563" type="line"/>
      <point x="1120" y="563" type="line"/>
      <point x="1120" y="715" type="line"/>
      <point x="909" y="715" type="line"/>
      <point x="909" y="1338" type="line"/>
      <point x="1151" y="1328" type="line"/>
      <point x="1238" y="882" type="line"/>
      <point x="1417" y="882" type="line"/>
      <point x="1391" y="1486" type="line"/>
      <point x="73" y="1486" type="line"/>
      <point x="41" y="882" type="line"/>
      <point x="230" y="882" type="line"/>
      <point x="314" y="1328" type="line"/>
      <point x="563" y="1338" type="line"/>
    </contour>
  </outline>
</glyph>
<glyph name="tbar" format="1">
  <advance width="857"/>
  <unicode hex="0167"/>
  <outline>
    <contour>
      <point x="183" y="719" type="line"/>
      <point x="56" y="719" type="line"/>
      <point x="56" y="566" type="line"/>
      <point x="183" y="566" type="line"/>
      <point x="183" y="232" type="line" smooth="yes"/>
      <point x="183" y="63"/>
      <point x="263" y="-18"/>
      <point x="437" y="-18" type="curve"/>
      <point x="439" y="-18" type="line"/>
      <point x="597" y="-18"/>
      <point x="757" y="40"/>
      <point x="829" y="96" type="curve"/>
      <point x="787" y="221" type="line"/>
      <point x="785" y="221" type="line"/>
      <point x="742" y="206"/>
      <point x="676" y="190"/>
      <point x="609" y="190" type="curve" smooth="yes"/>
      <point x="524" y="190"/>
      <point x="514" y="206"/>
      <point x="514" y="415" type="curve" smooth="yes"/>
      <point x="514" y="566" type="line"/>
      <point x="789" y="566" type="line"/>
      <point x="789" y="719" type="line"/>
      <point x="514" y="719" type="line"/>
      <point x="514" y="945" type="line"/>
      <point x="798" y="945" type="line"/>
      <point x="798" y="1111" type="line"/>
      <point x="512" y="1111" type="line"/>
      <point x="500" y="1412" type="line"/>
      <point x="315" y="1412" type="line"/>
      <point x="295" y="1346"/>
      <point x="271" y="1262"/>
      <point x="247" y="1210" type="curve"/>
      <point x="228" y="1162"/>
      <point x="207" y="1132"/>
      <point x="185" y="1111" type="curve" smooth="yes"/>
      <point x="181" y="1107"/>
      <point x="68" y="1063"/>
      <point x="60" y="1060" type="curve"/>
      <point x="60" y="945" type="line"/>
      <point x="183" y="945" type="line"/>
    </contour>
  </outline>
</glyph>
<glyph name="Utilde" format="1">
  <advance width="1489"/>
  <unicode hex="0168"/>
  <outline>
    <component base="U"/>
    <component base="tildecomb.case" xOffset="813"/>
    <contour>
      <point x="745" y="-166" type="move" name="mark0"/>
    </contour>
  </outline>
</glyph>
<glyph name="ubreve" format="1">
  <advance width="1298"/>
  <unicode hex="016D"/>
  <outline>
    <component base="u"/>
    <component base="brevecomb" xOffset="614" yOffset="-12"/>
    <contour>
      <point x="682" y="-166" type="move" name="mark0"/>
    </contour>
  </outline>
</glyph>
<glyph name="uring" format="1">
  <advance width="1298"/>
  <unicode hex="016F"/>
  <outline>
    <component base="u"/>
    <component base="ringcomb" xOffset="614" yOffset="11"/>
    <contour>
      <point x="682" y="-166" type="move" name="mark0"/>
    </contour>
  </outline>
</glyph>
<glyph name="Uogonek" format="1">
  <advance width="1489"/>
  <unicode hex="0172"/>
  <outline>
    <contour>
      <point x="774" y="-16" type="curve" smooth="yes"/>
      <point x="795" y="-16"/>
      <point x="814" y="-15"/>
      <point x="834" y="-13" type="curve"/>
      <point x="719" y="-70"/>
      <point x="589" y="-184"/>
      <point x="589" y="-301" type="curve" smooth="yes"/>
      <point x="589" y="-443"/>
      <point x="714" y="-501"/>
      <point x="852" y="-501" type="curve" smooth="yes"/>
      <point x="936" y="-501"/>
      <point x="1045" y="-476"/>
      <point x="1100" y="-434" type="curve"/>
      <point x="1100" y="-296" type="line"/>
      <point x="1054" y="-315"/>
      <point x="1028" y="-322"/>
      <point x="978" y="-322" type="curve" smooth="yes"/>
      <point x="901" y="-322"/>
      <point x="852" y="-271"/>
      <point x="852" y="-204" type="curve" smooth="yes"/>
      <point x="852" y="-130"/>
      <point x="925" y="-47"/>
      <point x="1028" y="29" type="curve"/>
      <point x="1219" y="103"/>
      <point x="1343" y="280"/>
      <point x="1343" y="591" type="curve" smooth="yes"/>
      <point x="1343" y="1319" type="line"/>
      <point x="1474" y="1347" type="line"/>
      <point x="1474" y="1486" type="line"/>
      <point x="953" y="1486" type="line"/>
      <point x="953" y="1347" type="line"/>
      <point x="1127" y="1318" type="line"/>
      <point x="1127" y="572" type="line" smooth="yes"/>
      <point x="1127" y="308"/>
      <point x="1042" y="123"/>
      <point x="824" y="123" type="curve" smooth="yes"/>
      <point x="608" y="123"/>
      <point x="511" y="284"/>
      <point x="511" y="577" type="curve" smooth="yes"/>
      <point x="511" y="1316" type="line"/>
      <point x="678" y="1347" type="line"/>
      <point x="678" y="1486" type="line"/>
      <point x="32" y="1486" type="line"/>
      <point x="32" y="1347" type="line"/>
      <point x="157" y="1319" type="line"/>
      <point x="157" y="605" type="line" smooth="yes"/>
      <point x="157" y="170"/>
      <point x="366" y="-16"/>
    </contour>
  </outline>
</glyph>
<glyph name="wcircumflex" format="1">
  <advance width="1760"/>
  <unicode hex="0175"/>
  <outline>
    <component base="w"/>
    <component base="circumflexcomb" xOffset="921"/>
    <contour>
      <point x="810" y="-166" type="move" name="mark0"/>
    </contour>
  </outline>
</glyph>
<glyph name="Ycircumflex" format="1">
  <advance width="1311"/>
  <unicode hex="0176"/>
  <outline>
    <component base="Y"/>
    <component base="circumflexcomb.case" xOffset="724"/>
    <contour>
      <point x="551" y="-166" type="move" name="mark0"/>
    </contour>
  </outline>
</glyph>
<glyph name="Zacute" format="1">
  <advance width="1310"/>
  <unicode hex="0179"/>
  <outline>
    <component base="Z"/>
    <component base="acutecomb.case" xOffset="678"/>
    <contour>
      <point x="675" y="-166" type="move" name="mark0"/>
    </contour>
  </outline>
</glyph>
<glyph name="zacute" format="1">
  <advance width="1131"/>
  <unicode hex="017A"/>
  <outline>
    <component base="z"/>
    <component base="acutecomb" xOffset="595" yOffset="1"/>
    <contour>
      <point x="572" y="-166" type="move" name="mark0"/>
    </contour>
  </outline>
</glyph>
<glyph name="Zdotaccent" format="1">
  <advance width="1310"/>
  <unicode hex="017B"/>
  <outline>
    <component base="Z"/>
    <component base="dotaccentcomb.case" xOffset="678"/>
    <contour>
      <point x="675" y="-166" type="move" name="mark0"/>
    </contour>
  </outline>
</glyph>
<glyph name="zdotaccent" format="1">
  <advance width="1131"/>
  <unicode hex="017C"/>
  <outline>
    <component base="z"/>
    <component base="dotaccentcomb" xOffset="595"/>
    <contour>
      <point x="572" y="-166" type="move" name="mark0"/>
    </contour>
  </outline>
</glyph>
<glyph name="Zcaron" format="1">
  <advance width="1310"/>
  <unicode hex="017D"/>
  <outline>
    <component base="Z"/>
    <component base="caroncomb.case" xOffset="678"/>
    <contour>
      <point x="675" y="-166" type="move" name="mark0"/>
    </contour>
  </outline>
</glyph>
<glyph name="zcaron" format="1">
  <advance width="1131"/>
  <unicode hex="017E"/>
  <outline>
    <component base="z"/>
    <component base="caroncomb" xOffset="595" yOffset="-10"/>
    <contour>
      <point x="572" y="-166" type="move" name="mark0"/>
    </contour>
  </outline>
</glyph>
<glyph name="Schwa" format="1">
  <advance width="1379"/>
  <unicode hex="018F"/>
  <outline>
    <contour>
      <point x="639" y="-22" type="curve" smooth="yes"/>
      <point x="1038" y="-22"/>
      <point x="1330" y="261"/>
      <point x="1330" y="756" type="curve" smooth="yes"/>
      <point x="1330" y="1236"/>
      <point x="1059" y="1502"/>
      <point x="675" y="1502" type="curve" smooth="yes"/>
      <point x="395" y="1502"/>
      <point x="245" y="1430"/>
      <point x="133" y="1424" type="curve"/>
      <point x="131" y="1098" type="line"/>
      <point x="365" y="1089" type="line"/>
      <point x="401" y="1227" type="line"/>
      <point x="442" y="1297"/>
      <point x="479" y="1366"/>
      <point x="643" y="1366" type="curve" smooth="yes"/>
      <point x="847" y="1366"/>
      <point x="961" y="1142"/>
      <point x="977" y="809" type="curve"/>
      <point x="88" y="811" type="line"/>
      <point x="77" y="760"/>
      <point x="69" y="647"/>
      <point x="69" y="559" type="curve"/>
      <point x="80" y="154"/>
      <point x="339" y="-22"/>
    </contour>
    <contour>
      <point x="684" y="141" type="curve" smooth="yes"/>
      <point x="473" y="141"/>
      <point x="412" y="368"/>
      <point x="412" y="545" type="curve" smooth="yes"/>
      <point x="412" y="586"/>
      <point x="413" y="615"/>
      <point x="416" y="651" type="curve"/>
      <point x="980" y="649" type="line"/>
      <point x="978" y="302"/>
      <point x="873" y="141"/>
    </contour>
  </outline>
</glyph>
<glyph name="florin" format="1">
  <advance width="1023"/>
  <unicode hex="0192"/>
  <outline>
    <contour>
      <point x="101" y="922" type="line"/>
      <point x="291" y="922" type="line"/>
      <point x="179" y="-348" type="line"/>
      <point x="474" y="-348" type="line"/>
      <point x="586" y="922" type="line"/>
      <point x="865" y="922" type="line"/>
      <point x="882" y="1109" type="line"/>
      <point x="607" y="1109" type="line"/>
      <point x="623" y="1245" type="line"/>
      <point x="638" y="1385"/>
      <point x="705" y="1426"/>
      <point x="778" y="1426" type="curve" smooth="yes"/>
      <point x="879" y="1426"/>
      <point x="923" y="1394"/>
      <point x="939" y="1380" type="curve"/>
      <point x="963" y="1625" type="line"/>
      <point x="943" y="1632"/>
      <point x="885" y="1646"/>
      <point x="779" y="1646" type="curve" smooth="yes"/>
      <point x="575" y="1646"/>
      <point x="346" y="1481"/>
      <point x="322" y="1189" type="curve"/>
      <point x="312" y="1109" type="line"/>
      <point x="116" y="1053" type="line"/>
    </contour>
  </outline>
</glyph>
<glyph name="Ohorn" format="1">
  <advance width="1462"/>
  <unicode hex="01A0"/>
  <outline>
    <contour>
      <point x="722" y="-22" type="curve" smooth="yes"/>
      <point x="1138" y="-19"/>
      <point x="1409" y="301"/>
      <point x="1409" y="768" type="curve" smooth="yes"/>
      <point x="1409" y="1218"/>
      <point x="1213" y="1503"/>
      <point x="743" y="1505" type="curve" smooth="yes"/>
      <point x="325" y="1506"/>
      <point x="53" y="1207"/>
      <point x="53" y="741" type="curve" smooth="yes"/>
      <point x="53" y="285"/>
      <point x="251" y="-26"/>
    </contour>
    <contour>
      <point x="732" y="1373" type="curve" smooth="yes"/>
      <point x="920" y="1373"/>
      <point x="1031" y="1205"/>
      <point x="1031" y="766" type="curve" smooth="yes"/>
      <point x="1031" y="337"/>
      <point x="917" y="112"/>
      <point x="729" y="112" type="curve" smooth="yes"/>
      <point x="542" y="112"/>
      <point x="430" y="304"/>
      <point x="430" y="742" type="curve" smooth="yes"/>
      <point x="430" y="1170"/>
      <point x="544" y="1373"/>
    </contour>
    <contour>
      <point x="1126" y="1299" type="line"/>
      <point x="1346" y="1299"/>
      <point x="1485" y="1420"/>
      <point x="1485" y="1687" type="curve" smooth="yes"/>
      <point x="1485" y="1701"/>
      <point x="1483" y="1717"/>
      <point x="1480" y="1730" type="curve"/>
      <point x="1270" y="1730" type="line"/>
      <point x="1274" y="1718"/>
      <point x="1277" y="1703"/>
      <point x="1277" y="1678" type="curve" smooth="yes"/>
      <point x="1277" y="1593"/>
      <point x="1251" y="1423"/>
      <point x="1061" y="1423" type="curve"/>
    </contour>
    <contour>
      <point x="1140" y="1486" type="move" name="_topright"/>
    </contour>
    <contour>
      <point x="732" y="0" type="move" name="bottom"/>
    </contour>
    <contour>
      <point x="732" y="744" type="move" name="center"/>
    </contour>
    <contour>
      <point x="725" y="-166" type="move" name="mark0"/>
    </contour>
    <contour>
      <point x="1315" y="20" type="move" name="ogonek"/>
    </contour>
    <contour>
      <point x="748" y="1486" type="move" name="top"/>
    </contour>
    <contour>
      <point x="40" y="1486" type="move" name="topleft"/>
    </contour>
    <contour>
      <point x="1140" y="1486" type="move" name="topright"/>
    </contour>
  </outline>
</glyph>
<glyph name="Uhorn" format="1">
  <advance width="1489"/>
  <unicode hex="01AF"/>
  <outline>
    <contour>
      <point x="32" y="1347" type="line"/>
      <point x="157" y="1319" type="line"/>
      <point x="157" y="605" type="line" smooth="yes"/>
      <point x="157" y="170"/>
      <point x="366" y="-16"/>
      <point x="774" y="-16" type="curve" smooth="yes"/>
      <point x="1103" y="-16"/>
      <point x="1343" y="157"/>
      <point x="1343" y="591" type="curve" smooth="yes"/>
      <point x="1343" y="1338" type="line"/>
      <point x="1500" y="1368"/>
      <point x="1623" y="1470"/>
      <point x="1622" y="1687" type="curve"/>
      <point x="1622" y="1701"/>
      <point x="1620" y="1717"/>
      <point x="1617" y="1730" type="curve"/>
      <point x="1408" y="1730" type="line"/>
      <point x="1411" y="1718"/>
      <point x="1414" y="1703"/>
      <point x="1414" y="1678" type="curve" smooth="yes"/>
      <point x="1414" y="1593"/>
      <point x="1383" y="1486"/>
      <point x="1200" y="1486" type="curve" smooth="yes"/>
      <point x="953" y="1486" type="line"/>
      <point x="953" y="1347" type="line"/>
      <point x="1127" y="1318" type="line"/>
      <point x="1127" y="572" type="line" smooth="yes"/>
      <point x="1127" y="308"/>
      <point x="1042" y="123"/>
      <point x="824" y="123" type="curve" smooth="yes"/>
      <point x="608" y="123"/>
      <point x="511" y="284"/>
      <point x="511" y="577" type="curve" smooth="yes"/>
      <point x="511" y="1316" type="line"/>
      <point x="678" y="1347" type="line"/>
      <point x="678" y="1486" type="line"/>
      <point x="32" y="1486" type="line"/>
    </contour>
    <contour>
      <point x="774" y="0" type="move" name="bottom"/>
    </contour>
    <contour>
      <point x="745" y="-166" type="move" name="mark0"/>
    </contour>
    <contour>
      <point x="1340" y="20" type="move" name="ogonek"/>
    </contour>
    <contour>
      <point x="791" y="1486" type="move" name="top"/>
    </contour>
  </outline>
</glyph>
<glyph name="dzcaron" format="1">
  <advance width="2392"/>
  <unicode hex="01C6"/>
  <outline>
    <component base="d"/>
    <component base="z" xOffset="1261"/>
    <component base="caroncomb" xOffset="1856" yOffset="-10"/>
    <contour>
      <point x="559" y="-166" type="move" name="mark0"/>
    </contour>
  </outline>
</glyph>
<glyph name="lj" format="1">
  <advance width="1348"/>
  <unicode hex="01C9"/>
  <outline>
    <component base="l"/>
    <component base="j" xOffset="668"/>
    <contour>
      <point x="1020" y="-166" type="move" name="mark0"/>
    </contour>
  </outline>
</glyph>
<glyph name="nj" format="1">
  <advance width="2029"/>
  <unicode hex="01CC"/>
  <outline>
    <component base="n"/>
    <component base="j" xOffset="1349"/>
    <contour>
      <point x="1373" y="-166" type="move" name="mark0"/>
    </contour>
  </outline>
</glyph>
<glyph name="gstroke" format="1">
  <advance width="1273"/>
  <unicode hex="01E5"/>
  <outline>
    <contour>
      <point x="1304" y="-148" type="line"/>
      <point x="-39" y="-148" type="line"/>
      <point x="-39" y="-268" type="line"/>
      <point x="1304" y="-268" type="line"/>
    </contour>
    <component base="g"/>
  </outline>
</glyph>
<glyph name="dz" format="1">
  <advance width="2392"/>
  <unicode hex="01F3"/>
  <outline>
    <component base="d"/>
    <component base="z" xOffset="1261"/>
    <contour>
      <point x="1682" y="-166" type="move" name="mark0"/>
    </contour>
  </outline>
</glyph>
<glyph name="Aringacute" format="1">
  <advance width="1419"/>
  <unicode hex="01FA"/>
  <outline>
    <component base="A"/>
    <component base="ringcomb.case" xOffset="706"/>
    <component base="acutecomb.case" xOffset="772" yOffset="391"/>
    <contour>
      <point x="702" y="1486" type="move" name="_top"/>
    </contour>
    <contour>
      <point x="586" y="-166" type="move" name="mark0"/>
    </contour>
    <contour>
      <point x="1280" y="20" type="move" name="ogonek"/>
    </contour>
    <contour>
      <point x="702" y="1728" type="move" name="top"/>
    </contour>
  </outline>
</glyph>
<glyph name="AEacute" format="1">
  <advance width="1952"/>
  <unicode hex="01FC"/>
  <outline>
    <component base="AE"/>
    <component base="acutecomb.case" xOffset="1008"/>
    <contour>
      <point x="909" y="-166" type="move" name="mark0"/>
    </contour>
  </outline>
</glyph>
<glyph name="scommaaccent" format="1">
  <advance width="1066"/>
  <unicode hex="0219"/>
  <outline>
    <component base="s"/>
    <component base="commaaccentcomb" xOffset="530" yOffset="-9"/>
    <contour>
      <point x="490" y="-166" type="move" name="mark0"/>
    </contour>
  </outline>
</glyph>
<glyph name="Ecedilla" format="1">
  <advance width="1314"/>
  <unicode hex="0228"/>
  <outline>
    <contour>
      <point x="572" y="-513" type="curve" smooth="yes"/>
      <point x="756" y="-513"/>
      <point x="862" y="-460"/>
      <point x="871" y="-289" type="curve" smooth="yes"/>
      <point x="878" y="-159"/>
      <point x="784" y="-43"/>
      <point x="738" y="0" type="curve"/>
      <point x="1246" y="0" type="line"/>
      <point x="1293" y="376" type="line"/>
      <point x="1123" y="424" type="line"/>
      <point x="1002" y="165" type="line"/>
      <point x="565" y="139" type="line"/>
      <point x="565" y="681" type="line"/>
      <point x="810" y="677" type="line"/>
      <point x="843" y="502" type="line"/>
      <point x="982" y="502" type="line"/>
      <point x="982" y="1003" type="line"/>
      <point x="843" y="1003" type="line"/>
      <point x="808" y="840" type="line"/>
      <point x="565" y="834" type="line"/>
      <point x="565" y="1354" type="line"/>
      <point x="959" y="1334" type="line"/>
      <point x="1027" y="1133" type="line"/>
      <point x="1186" y="1133" type="line"/>
      <point x="1159" y="1486" type="line"/>
      <point x="66" y="1486" type="line"/>
      <point x="66" y="1347" type="line"/>
      <point x="222" y="1319" type="line"/>
      <point x="222" y="153" type="line"/>
      <point x="69" y="132" type="line"/>
      <point x="69" y="0" type="line"/>
      <point x="592" y="0" type="line"/>
      <point x="613" y="-31"/>
      <point x="652" y="-107"/>
      <point x="652" y="-175" type="curve" smooth="yes"/>
      <point x="652" y="-298"/>
      <point x="604" y="-312"/>
      <point x="514" y="-312" type="curve" smooth="yes"/>
      <point x="498" y="-312"/>
      <point x="459" y="-308"/>
      <point x="431" y="-299" type="curve"/>
      <point x="430" y="-484" type="line"/>
      <point x="465" y="-499"/>
      <point x="526" y="-513"/>
    </contour>
    <contour>
      <point x="657" y="0" type="move" name="_bottom"/>
    </contour>
    <contour>
      <point x="657" y="0" type="move" name="bottom"/>
    </contour>
    <contour>
      <point x="697" y="-166" type="move" name="mark0"/>
    </contour>
    <contour>
      <point x="1183" y="20" type="move" name="ogonek"/>
    </contour>
    <contour>
      <point x="665" y="1486" type="move" name="top"/>
    </contour>
    <contour>
      <point x="40" y="1486" type="move" name="topleft"/>
    </contour>
  </outline>
</glyph>
<glyph name="ecedilla" format="1">
  <advance width="1105"/>
  <unicode hex="0229"/>
  <outline>
    <contour>
      <point x="59" y="556" type="curve" smooth="yes"/>
      <point x="59" y="247"/>
      <point x="187" y="23"/>
      <point x="496" y="-16" type="curve"/>
      <point x="518" y="-53"/>
      <point x="546" y="-117"/>
      <point x="546" y="-175" type="curve" smooth="yes"/>
      <point x="546" y="-298"/>
      <point x="498" y="-312"/>
      <point x="407" y="-312" type="curve" smooth="yes"/>
      <point x="392" y="-312"/>
      <point x="351" y="-308"/>
      <point x="323" y="-299" type="curve"/>
      <point x="324" y="-484" type="line"/>
      <point x="358" y="-499"/>
      <point x="420" y="-513"/>
      <point x="466" y="-513" type="curve" smooth="yes"/>
      <point x="650" y="-513"/>
      <point x="755" y="-460"/>
      <point x="764" y="-289" type="curve" smooth="yes"/>
      <point x="771" y="-175"/>
      <point x="700" y="-72"/>
      <point x="650" y="-19" type="curve"/>
      <point x="819" y="-3"/>
      <point x="974" y="81"/>
      <point x="1028" y="141" type="curve"/>
      <point x="972" y="262" type="line"/>
      <point x="912" y="224"/>
      <point x="792" y="179"/>
      <point x="686" y="179" type="curve" smooth="yes"/>
      <point x="508" y="179"/>
      <point x="412" y="302"/>
      <point x="398" y="528" type="curve"/>
      <point x="1025" y="528" type="line"/>
      <point x="1036" y="579"/>
      <point x="1042" y="643"/>
      <point x="1042" y="734" type="curve"/>
      <point x="1037" y="989"/>
      <point x="890" y="1140"/>
      <point x="607" y="1140" type="curve" smooth="yes"/>
      <point x="276" y="1140"/>
      <point x="59" y="926"/>
    </contour>
    <contour>
      <point x="396" y="661" type="line"/>
      <point x="402" y="940"/>
      <point x="475" y="1001"/>
      <point x="577" y="1001" type="curve" smooth="yes"/>
      <point x="690" y="1001"/>
      <point x="726" y="901"/>
      <point x="727" y="744" type="curve" smooth="yes"/>
      <point x="727" y="716"/>
      <point x="725" y="689"/>
      <point x="724" y="661" type="curve"/>
    </contour>
    <contour>
      <point x="551" y="0" type="move" name="_bottom"/>
    </contour>
    <contour>
      <point x="551" y="0" type="move" name="bottom"/>
    </contour>
    <contour>
      <point x="552" y="-166" type="move" name="mark0"/>
    </contour>
    <contour>
      <point x="694" y="20" type="move" name="ogonek"/>
    </contour>
    <contour>
      <point x="576" y="1111" type="move" name="top"/>
    </contour>
  </outline>
</glyph>
<glyph name="jdotless" format="1">
  <advance width="680"/>
  <unicode hex="0237"/>
  <outline>
    <contour>
      <point x="72" y="937" type="line"/>
      <point x="208" y="898" type="line"/>
      <point x="209" y="84" type="line" smooth="yes"/>
      <point x="209" y="-142"/>
      <point x="172" y="-282"/>
      <point x="72" y="-329" type="curve" smooth="yes"/>
      <point x="31" y="-349"/>
      <point x="-10" y="-352"/>
      <point x="-27" y="-352" type="curve"/>
      <point x="-12" y="-478" type="line"/>
      <point x="6" y="-485"/>
      <point x="81" y="-487"/>
      <point x="112" y="-486" type="curve" smooth="yes"/>
      <point x="278" y="-481"/>
      <point x="531" y="-313"/>
      <point x="531" y="19" type="curve" smooth="yes"/>
      <point x="531" y="1096" type="line"/>
      <point x="470" y="1138" type="line"/>
      <point x="466" y="1138" type="line"/>
      <point x="72" y="1090" type="line"/>
    </contour>
    <contour>
      <point x="352" y="1111" type="move" name="top"/>
    </contour>
  </outline>
</glyph>
<glyph name="schwa" format="1">
  <advance width="1105"/>
  <unicode hex="0259"/>
  <outline>
    <component base="e" xScale="-1" yScale="-1" xOffset="1105" yOffset="1112"/>
    <contour>
      <point x="539" y="-166" type="move" name="mark0"/>
    </contour>
  </outline>
</glyph>
<glyph name="circumflex" format="1">
  <advance width="1006"/>
  <unicode hex="02C6"/>
  <outline>
    <contour>
      <point x="411" y="1752" type="line"/>
      <point x="105" y="1360" type="line"/>
      <point x="210" y="1269" type="line"/>
      <point x="504" y="1521" type="line"/>
      <point x="792" y="1271" type="line"/>
      <point x="902" y="1360" type="line"/>
      <point x="593" y="1752" type="line"/>
    </contour>
  </outline>
</glyph>
<glyph name="verticallinemod" format="1">
  <advance width="0"/>
  <unicode hex="02C8"/>
  <outline>
    <contour>
      <point x="114" y="2034" type="line"/>
      <point x="-114" y="2034" type="line"/>
      <point x="-79" y="1374" type="line"/>
      <point x="79" y="1374" type="line"/>
    </contour>
    <contour>
      <point x="0" y="1110" type="move" name="_top"/>
    </contour>
    <contour>
      <point x="0" y="1496" type="move" name="top"/>
    </contour>
  </outline>
</glyph>
<glyph name="breve" format="1">
  <advance width="998"/>
  <unicode hex="02D8"/>
  <outline>
    <contour>
      <point x="500" y="1297" type="curve" smooth="yes"/>
      <point x="713" y="1297"/>
      <point x="860" y="1445"/>
      <point x="860" y="1633" type="curve" smooth="yes"/>
      <point x="860" y="1662"/>
      <point x="858" y="1705"/>
      <point x="858" y="1726" type="curve"/>
      <point x="712" y="1726" type="line"/>
      <point x="713" y="1713"/>
      <point x="711" y="1698"/>
      <point x="709" y="1681" type="curve" smooth="yes"/>
      <point x="697" y="1601"/>
      <point x="646" y="1516"/>
      <point x="500" y="1516" type="curve" smooth="yes"/>
      <point x="352" y="1516"/>
      <point x="299" y="1602"/>
      <point x="287" y="1683" type="curve" smooth="yes"/>
      <point x="285" y="1698"/>
      <point x="285" y="1713"/>
      <point x="285" y="1726" type="curve"/>
      <point x="136" y="1726" type="line"/>
      <point x="132" y="1705"/>
      <point x="132" y="1661"/>
      <point x="132" y="1631" type="curve" smooth="yes"/>
      <point x="132" y="1446"/>
      <point x="275" y="1297"/>
    </contour>
  </outline>
</glyph>
<glyph name="dotaccent" format="1">
  <advance width="553"/>
  <unicode hex="02D9"/>
  <outline>
    <contour>
      <point x="261" y="1288" type="curve"/>
      <point x="263" y="1288" type="line"/>
      <point x="396" y="1288"/>
      <point x="462" y="1373"/>
      <point x="462" y="1481" type="curve" smooth="yes"/>
      <point x="462" y="1571"/>
      <point x="401" y="1645"/>
      <point x="283" y="1645" type="curve" smooth="yes"/>
      <point x="160" y="1645"/>
      <point x="90" y="1558"/>
      <point x="90" y="1453" type="curve" smooth="yes"/>
      <point x="90" y="1359"/>
      <point x="160" y="1288"/>
    </contour>
  </outline>
</glyph>
<glyph name="horncomb" format="1">
  <advance width="0"/>
  <unicode hex="031B"/>
  <outline>
    <contour>
      <point x="-20" y="912" type="line"/>
      <point x="174" y="912"/>
      <point x="416" y="1054"/>
      <point x="416" y="1312" type="curve" smooth="yes"/>
      <point x="416" y="1326"/>
      <point x="414" y="1340"/>
      <point x="412" y="1356" type="curve"/>
      <point x="204" y="1356" type="line"/>
      <point x="206" y="1348"/>
      <point x="204" y="1336"/>
      <point x="202" y="1322" type="curve" smooth="yes"/>
      <point x="190" y="1240"/>
      <point x="144" y="1111"/>
      <point x="-20" y="1111" type="curve"/>
    </contour>
    <contour>
      <point x="0" y="1111" type="move" name="_topright"/>
    </contour>
  </outline>
</glyph>
<glyph name="commaaccentcomb" format="1">
  <advance width="0"/>
  <unicode hex="0326"/>
  <outline>
    <contour>
      <point x="158" y="-298" type="curve" smooth="yes"/>
      <point x="159" y="-193"/>
      <point x="94" y="-137"/>
      <point x="2" y="-137" type="curve" smooth="yes"/>
      <point x="-5" y="-137" type="line" smooth="yes"/>
      <point x="-48" y="-137"/>
      <point x="-140" y="-162"/>
      <point x="-140" y="-256" type="curve" smooth="yes"/>
      <point x="-140" y="-306"/>
      <point x="-116" y="-335"/>
      <point x="-95" y="-350" type="curve" smooth="yes"/>
      <point x="-78" y="-363"/>
      <point x="-57" y="-379"/>
      <point x="-57" y="-421" type="curve" smooth="yes"/>
      <point x="-57" y="-469"/>
      <point x="-92" y="-533"/>
      <point x="-122" y="-546" type="curve"/>
      <point x="-118" y="-561" type="line"/>
      <point x="-34" y="-604" type="line"/>
      <point x="-31" y="-604" type="line"/>
      <point x="43" y="-561"/>
      <point x="156" y="-447"/>
    </contour>
    <contour>
      <point x="0" y="0" type="move" name="_bottom"/>
    </contour>
    <contour>
      <point x="0" y="-545" type="move" name="bottom"/>
    </contour>
  </outline>
</glyph>
<glyph name="strokeshortcomb" format="1">
  <advance width="0"/>
  <unicode hex="0335"/>
  <outline>
    <contour>
      <point x="408" y="665" type="line"/>
      <point x="-408" y="665" type="line"/>
      <point x="-408" y="453" type="line"/>
      <point x="408" y="453" type="line"/>
    </contour>
    <contour>
      <point x="0" y="556" type="move" name="_center"/>
    </contour>
  </outline>
</glyph>
<glyph name="slashshortcomb" format="1">
  <advance width="0"/>
  <unicode hex="0337"/>
  <outline>
    <contour>
      <point x="247" y="1113" type="line"/>
      <point x="-440" y="-198" type="line"/>
      <point x="-247" y="-203" type="line"/>
      <point x="440" y="1111" type="line"/>
    </contour>
    <contour>
      <point x="0" y="556" type="move" name="_center"/>
    </contour>
  </outline>
</glyph>
<glyph name="E-cy" format="1">
  <advance width="1334"/>
  <unicode hex="0404"/>
  <outline>
    <contour>
      <point x="1261" y="54" type="curve"/>
      <point x="1273" y="400" type="line"/>
      <point x="1082" y="404" type="line"/>
      <point x="997" y="178" type="line"/>
      <point x="968" y="149"/>
      <point x="917" y="116"/>
      <point x="792" y="116" type="curve" smooth="yes"/>
      <point x="576" y="116"/>
      <point x="455" y="364"/>
      <point x="434" y="669" type="curve"/>
      <point x="994" y="654" type="line"/>
      <point x="994" y="853" type="line"/>
      <point x="432" y="837" type="line"/>
      <point x="448" y="1196"/>
      <point x="597" y="1367"/>
      <point x="810" y="1367" type="curve" smooth="yes"/>
      <point x="915" y="1367"/>
      <point x="943" y="1339"/>
      <point x="971" y="1309" type="curve"/>
      <point x="1026" y="1039" type="line"/>
      <point x="1250" y="1039" type="line"/>
      <point x="1272" y="1439" type="line"/>
      <point x="1174" y="1450"/>
      <point x="1029" y="1502"/>
      <point x="832" y="1502" type="curve" smooth="yes"/>
      <point x="359" y="1502"/>
      <point x="51" y="1211"/>
      <point x="51" y="733" type="curve" smooth="yes"/>
      <point x="51" y="286"/>
      <point x="298" y="-22"/>
      <point x="763" y="-22" type="curve" smooth="yes"/>
      <point x="1032" y="-22"/>
      <point x="1146" y="47"/>
    </contour>
    <contour>
      <point x="756" y="0" type="move" name="mark0"/>
    </contour>
  </outline>
</glyph>
<glyph name="I-cy" format="1">
  <advance width="832"/>
  <unicode hex="0406"/>
  <outline>
    <component base="I"/>
    <contour>
      <point x="443" y="-166" type="move" name="mark0"/>
    </contour>
  </outline>
</glyph>
<glyph name="Yi-cy" format="1">
  <advance width="832"/>
  <unicode hex="0407"/>
  <outline>
    <component base="I"/>
    <component base="dieresiscomb.case" xOffset="416"/>
    <contour>
      <point x="443" y="-166" type="move" name="mark0"/>
    </contour>
  </outline>
</glyph>
<glyph name="Lje-cy" format="1">
  <advance width="2110"/>
  <unicode hex="0409"/>
  <outline>
    <contour>
      <point x="1308" y="831" type="curve"/>
      <point x="1308" y="1319" type="line"/>
      <point x="1493" y="1347" type="line"/>
      <point x="1493" y="1486" type="line"/>
      <point x="222" y="1486" type="line"/>
      <point x="222" y="1347" type="line"/>
      <point x="450" y="1321" type="line"/>
      <point x="450" y="1181" type="line" smooth="yes"/>
      <point x="450" y="678"/>
      <point x="397" y="402"/>
      <point x="327" y="267" type="curve"/>
      <point x="293" y="197"/>
      <point x="256" y="181"/>
      <point x="205" y="181" type="curve" smooth="yes"/>
      <point x="137" y="181"/>
      <point x="98" y="185"/>
      <point x="49" y="189" type="curve"/>
      <point x="71" y="0" type="line"/>
      <point x="110" y="-8"/>
      <point x="165" y="-13"/>
      <point x="232" y="-13" type="curve" smooth="yes"/>
      <point x="337" y="-13"/>
      <point x="406" y="42"/>
      <point x="461" y="147" type="curve" smooth="yes"/>
      <point x="565" y="343"/>
      <point x="609" y="761"/>
      <point x="609" y="1175" type="curve" smooth="yes"/>
      <point x="609" y="1319" type="line"/>
      <point x="971" y="1319" type="line"/>
      <point x="971" y="155" type="line"/>
      <point x="762" y="132" type="line"/>
      <point x="762" y="0" type="line"/>
      <point x="1150" y="0" type="line" smooth="yes"/>
      <point x="1234" y="0"/>
      <point x="1501" y="-16"/>
      <point x="1549" y="-16" type="curve" smooth="yes"/>
      <point x="1877" y="-16"/>
      <point x="2073" y="151"/>
      <point x="2073" y="444" type="curve" smooth="yes"/>
      <point x="2073" y="701"/>
      <point x="1910" y="851"/>
      <point x="1564" y="851" type="curve" smooth="yes"/>
      <point x="1487" y="851"/>
      <point x="1342" y="838"/>
    </contour>
    <contour>
      <point x="1308" y="140" type="curve"/>
      <point x="1308" y="689" type="line"/>
      <point x="1337" y="694"/>
      <point x="1414" y="701"/>
      <point x="1466" y="701" type="curve" smooth="yes"/>
      <point x="1639" y="701"/>
      <point x="1722" y="620"/>
      <point x="1722" y="420" type="curve" smooth="yes"/>
      <point x="1722" y="255"/>
      <point x="1655" y="122"/>
      <point x="1449" y="122" type="curve" smooth="yes"/>
      <point x="1383" y="122"/>
      <point x="1344" y="130"/>
    </contour>
    <contour>
      <point x="651" y="-166" type="move" name="mark0"/>
    </contour>
  </outline>
</glyph>
<glyph name="Nje-cy" format="1">
  <advance width="2233"/>
  <unicode hex="040A"/>
  <outline>
    <contour>
      <point x="1688" y="855" type="curve" smooth="yes"/>
      <point x="1433" y="855" type="line"/>
      <point x="1433" y="1322" type="line"/>
      <point x="1587" y="1352" type="line"/>
      <point x="1587" y="1486" type="line"/>
      <point x="931" y="1486" type="line"/>
      <point x="931" y="1352" type="line"/>
      <point x="1092" y="1321" type="line"/>
      <point x="1092" y="835" type="line"/>
      <point x="564" y="835" type="line"/>
      <point x="564" y="1319" type="line"/>
      <point x="732" y="1347" type="line"/>
      <point x="732" y="1486" type="line"/>
      <point x="74" y="1486" type="line"/>
      <point x="74" y="1347" type="line"/>
      <point x="223" y="1320" type="line"/>
      <point x="223" y="153" type="line"/>
      <point x="69" y="132" type="line"/>
      <point x="69" y="0" type="line"/>
      <point x="736" y="0" type="line"/>
      <point x="736" y="136" type="line"/>
      <point x="564" y="162" type="line"/>
      <point x="564" y="677" type="line"/>
      <point x="1092" y="677" type="line"/>
      <point x="1092" y="162" type="line"/>
      <point x="934" y="136" type="line"/>
      <point x="934" y="0" type="line"/>
      <point x="1265" y="0" type="line" smooth="yes"/>
      <point x="1348" y="0"/>
      <point x="1631" y="-17"/>
      <point x="1684" y="-17" type="curve" smooth="yes"/>
      <point x="1986" y="-17"/>
      <point x="2198" y="139"/>
      <point x="2198" y="442" type="curve" smooth="yes"/>
      <point x="2198" y="703"/>
      <point x="2003" y="855"/>
    </contour>
    <contour>
      <point x="1433" y="143" type="curve"/>
      <point x="1433" y="709" type="line"/>
      <point x="1589" y="709" type="line" smooth="yes"/>
      <point x="1762" y="709"/>
      <point x="1845" y="627"/>
      <point x="1845" y="425" type="curve" smooth="yes"/>
      <point x="1845" y="257"/>
      <point x="1779" y="123"/>
      <point x="1572" y="123" type="curve" smooth="yes"/>
      <point x="1514" y="123"/>
      <point x="1468" y="134"/>
    </contour>
    <contour>
      <point x="807" y="-166" type="move" name="mark0"/>
    </contour>
  </outline>
</glyph>
<glyph name="Tshe-cy" format="1">
  <advance width="1908"/>
  <unicode hex="040B"/>
  <outline>
    <contour>
      <point x="914" y="764" type="curve"/>
      <point x="914" y="1342" type="line"/>
      <point x="1211" y="1319" type="line"/>
      <point x="1286" y="1005" type="line"/>
      <point x="1461" y="1005" type="line"/>
      <point x="1435" y="1486" type="line"/>
      <point x="69" y="1486" type="line"/>
      <point x="43" y="1005" type="line"/>
      <point x="226" y="1005" type="line"/>
      <point x="288" y="1321" type="line"/>
      <point x="570" y="1344" type="line"/>
      <point x="570" y="155" type="line"/>
      <point x="320" y="132" type="line"/>
      <point x="320" y="0" type="line"/>
      <point x="1088" y="0" type="line"/>
      <point x="1088" y="132" type="line"/>
      <point x="914" y="154" type="line"/>
      <point x="914" y="612" type="line"/>
      <point x="963" y="642"/>
      <point x="1045" y="681"/>
      <point x="1171" y="681" type="curve" smooth="yes"/>
      <point x="1339" y="681"/>
      <point x="1376" y="608"/>
      <point x="1376" y="343" type="curve" smooth="yes"/>
      <point x="1376" y="153" type="line"/>
      <point x="1249" y="132" type="line"/>
      <point x="1249" y="0" type="line"/>
      <point x="1859" y="0" type="line"/>
      <point x="1859" y="132" type="line"/>
      <point x="1717" y="153" type="line"/>
      <point x="1717" y="416" type="line" smooth="yes"/>
      <point x="1717" y="763"/>
      <point x="1585" y="861"/>
      <point x="1267" y="861" type="curve" smooth="yes"/>
      <point x="1141" y="861"/>
      <point x="1008" y="820"/>
    </contour>
    <contour>
      <point x="749" y="-166" type="move" name="mark0"/>
    </contour>
  </outline>
</glyph>
<glyph name="Iigrave-cy" format="1">
  <advance width="1708"/>
  <unicode hex="040D"/>
  <outline>
    <component base="Ii-cy"/>
    <component base="gravecomb.case" xOffset="868"/>
    <contour>
      <point x="754" y="-166" type="move" name="mark0"/>
    </contour>
  </outline>
</glyph>
<glyph name="Ushort-cy" format="1">
  <advance width="1350"/>
  <unicode hex="040E"/>
  <outline>
    <component base="U-cy"/>
    <component base="brevecomb-cy.case" xOffset="199"/>
    <contour>
      <point x="638" y="-166" type="move" name="mark0"/>
    </contour>
  </outline>
</glyph>
<glyph name="Dzhe-cy" format="1">
  <advance width="1648"/>
  <unicode hex="040F"/>
  <outline>
    <contour>
      <point x="980" y="0" type="curve"/>
      <point x="1582" y="0" type="line"/>
      <point x="1582" y="132" type="line"/>
      <point x="1425" y="153" type="line"/>
      <point x="1425" y="1319" type="line"/>
      <point x="1574" y="1347" type="line"/>
      <point x="1574" y="1486" type="line"/>
      <point x="917" y="1486" type="line"/>
      <point x="917" y="1347" type="line"/>
      <point x="1085" y="1319" type="line"/>
      <point x="1085" y="140" type="line"/>
      <point x="564" y="140" type="line"/>
      <point x="564" y="1319" type="line"/>
      <point x="737" y="1347" type="line"/>
      <point x="737" y="1486" type="line"/>
      <point x="72" y="1486" type="line"/>
      <point x="72" y="1347" type="line"/>
      <point x="224" y="1319" type="line"/>
      <point x="224" y="155" type="line"/>
      <point x="68" y="132" type="line"/>
      <point x="68" y="0" type="line"/>
      <point x="671" y="0" type="line"/>
      <point x="684" y="-20"/>
      <point x="728" y="-304"/>
      <point x="728" y="-410" type="curve"/>
      <point x="928" y="-410" type="line"/>
      <point x="930" y="-274"/>
      <point x="963" y="-51"/>
    </contour>
  </outline>
</glyph>
<glyph name="Be-cy" format="1">
  <advance width="1422"/>
  <unicode hex="0411"/>
  <outline>
    <contour>
      <point x="584" y="864" type="curve"/>
      <point x="584" y="1342" type="line"/>
      <point x="980" y="1324" type="line"/>
      <point x="1042" y="1076" type="line"/>
      <point x="1238" y="1076" type="line"/>
      <point x="1216" y="1486" type="line"/>
      <point x="72" y="1486" type="line"/>
      <point x="72" y="1346" type="line"/>
      <point x="242" y="1318" type="line"/>
      <point x="242" y="152" type="line"/>
      <point x="70" y="132" type="line"/>
      <point x="70" y="0" type="line"/>
      <point x="426" y="0" type="line" smooth="yes"/>
      <point x="508" y="0"/>
      <point x="786" y="-16"/>
      <point x="834" y="-16" type="curve" smooth="yes"/>
      <point x="1144" y="-16"/>
      <point x="1362" y="150"/>
      <point x="1362" y="454" type="curve" smooth="yes"/>
      <point x="1362" y="738"/>
      <point x="1192" y="876"/>
      <point x="836" y="876" type="curve" smooth="yes"/>
      <point x="788" y="876"/>
      <point x="606" y="868"/>
    </contour>
    <contour>
      <point x="584" y="142" type="curve"/>
      <point x="584" y="728" type="line"/>
      <point x="600" y="730"/>
      <point x="696" y="734"/>
      <point x="736" y="734" type="curve" smooth="yes"/>
      <point x="920" y="734"/>
      <point x="1010" y="648"/>
      <point x="1010" y="436" type="curve" smooth="yes"/>
      <point x="1010" y="260"/>
      <point x="940" y="124"/>
      <point x="722" y="124" type="curve" smooth="yes"/>
      <point x="648" y="124"/>
      <point x="612" y="134"/>
    </contour>
    <contour>
      <point x="698" y="-166" type="move" name="mark0"/>
    </contour>
  </outline>
</glyph>
<glyph name="Ge-cy" format="1">
  <advance width="1248"/>
  <unicode hex="0413"/>
  <outline>
    <contour>
      <point x="72" y="1486" type="line"/>
      <point x="72" y="1348" type="line"/>
      <point x="286" y="1318" type="line"/>
      <point x="286" y="154" type="line"/>
      <point x="70" y="132" type="line"/>
      <point x="70" y="0" type="line"/>
      <point x="944" y="0" type="line"/>
      <point x="944" y="132" type="line"/>
      <point x="628" y="154" type="line"/>
      <point x="628" y="1342" type="line"/>
      <point x="952" y="1320" type="line"/>
      <point x="1024" y="900" type="line"/>
      <point x="1220" y="900" type="line"/>
      <point x="1192" y="1486" type="line"/>
    </contour>
    <contour>
      <point x="306" y="0" type="move" name="bottomright"/>
    </contour>
    <contour>
      <point x="622" y="744" type="move" name="center"/>
    </contour>
    <contour>
      <point x="718" y="1486" type="move" name="top"/>
    </contour>
  </outline>
</glyph>
<glyph name="De-cy" format="1">
  <advance width="1547"/>
  <unicode hex="0414"/>
  <outline>
    <contour>
      <point x="1474" y="155" type="curve"/>
      <point x="1282" y="155" type="line"/>
      <point x="1282" y="1319" type="line"/>
      <point x="1474" y="1347" type="line"/>
      <point x="1474" y="1486" type="line"/>
      <point x="223" y="1486" type="line"/>
      <point x="223" y="1347" type="line"/>
      <point x="431" y="1319" type="line"/>
      <point x="431" y="1240" type="line" smooth="yes"/>
      <point x="431" y="595"/>
      <point x="270" y="264"/>
      <point x="195" y="155" type="curve"/>
      <point x="51" y="155" type="line"/>
      <point x="41" y="7"/>
      <point x="36" y="-344"/>
      <point x="33" y="-410" type="curve"/>
      <point x="221" y="-410" type="line"/>
      <point x="234" y="-324"/>
      <point x="294" y="-35"/>
      <point x="325" y="0" type="curve"/>
      <point x="1182" y="0" type="line"/>
      <point x="1205" y="-35"/>
      <point x="1253" y="-345"/>
      <point x="1255" y="-406" type="curve"/>
      <point x="1437" y="-406" type="line"/>
      <point x="1445" y="-379"/>
      <point x="1474" y="39"/>
    </contour>
    <contour>
      <point x="593" y="1228" type="curve"/>
      <point x="593" y="1338" type="line"/>
      <point x="943" y="1338" type="line"/>
      <point x="942" y="155" type="line"/>
      <point x="413" y="155" type="line"/>
      <point x="480" y="287"/>
      <point x="595" y="644"/>
    </contour>
  </outline>
</glyph>
<glyph name="Zhe-cy" format="1">
  <advance width="2176"/>
  <unicode hex="0416"/>
  <outline>
    <contour>
      <point x="1580" y="798" type="curve"/>
      <point x="1952" y="1318" type="line"/>
      <point x="2122" y="1346" type="line"/>
      <point x="2122" y="1486" type="line"/>
      <point x="1574" y="1486" type="line"/>
      <point x="1574" y="1346" type="line"/>
      <point x="1710" y="1320" type="line"/>
      <point x="1388" y="810" type="line"/>
      <point x="1252" y="810" type="line"/>
      <point x="1252" y="1320" type="line"/>
      <point x="1414" y="1346" type="line"/>
      <point x="1414" y="1486" type="line"/>
      <point x="764" y="1486" type="line"/>
      <point x="764" y="1346" type="line"/>
      <point x="924" y="1320" type="line"/>
      <point x="924" y="810" type="line"/>
      <point x="788" y="810" type="line"/>
      <point x="464" y="1320" type="line"/>
      <point x="600" y="1346" type="line"/>
      <point x="600" y="1486" type="line"/>
      <point x="56" y="1486" type="line"/>
      <point x="56" y="1346" type="line"/>
      <point x="222" y="1318" type="line"/>
      <point x="596" y="800" type="line"/>
      <point x="320" y="724"/>
      <point x="194" y="188"/>
      <point x="92" y="154" type="curve" smooth="yes"/>
      <point x="20" y="132" type="line"/>
      <point x="20" y="0" type="line"/>
      <point x="368" y="0" type="line" smooth="yes"/>
      <point x="532" y="0"/>
      <point x="644" y="688"/>
      <point x="856" y="688" type="curve" smooth="yes"/>
      <point x="924" y="688" type="line"/>
      <point x="924" y="154" type="line"/>
      <point x="752" y="132" type="line"/>
      <point x="752" y="0" type="line"/>
      <point x="1430" y="0" type="line"/>
      <point x="1430" y="130" type="line"/>
      <point x="1252" y="154" type="line"/>
      <point x="1252" y="688" type="line"/>
      <point x="1318" y="688" type="line" smooth="yes"/>
      <point x="1530" y="688"/>
      <point x="1636" y="0"/>
      <point x="1798" y="0" type="curve"/>
      <point x="2156" y="0" type="line"/>
      <point x="2156" y="132" type="line"/>
      <point x="2080" y="154" type="line" smooth="yes"/>
      <point x="1978" y="188"/>
      <point x="1854" y="722"/>
    </contour>
    <contour>
      <point x="2114" y="0" type="move" name="bottomright"/>
    </contour>
    <contour>
      <point x="1088" y="1486" type="move" name="top"/>
    </contour>
  </outline>
</glyph>
<glyph name="Ii-cy" format="1">
  <advance width="1708"/>
  <unicode hex="0418"/>
  <outline>
    <contour>
      <point x="72" y="1486" type="line"/>
      <point x="72" y="1346" type="line"/>
      <point x="222" y="1320" type="line"/>
      <point x="222" y="152" type="line"/>
      <point x="70" y="132" type="line"/>
      <point x="70" y="0" type="line"/>
      <point x="734" y="0" type="line"/>
      <point x="734" y="132" type="line"/>
      <point x="560" y="154" type="line"/>
      <point x="560" y="210" type="line"/>
      <point x="1040" y="846" type="line"/>
      <point x="1144" y="1052" type="line"/>
      <point x="1144" y="154" type="line"/>
      <point x="982" y="132" type="line"/>
      <point x="982" y="0" type="line"/>
      <point x="1638" y="0" type="line"/>
      <point x="1638" y="132" type="line"/>
      <point x="1482" y="154" type="line"/>
      <point x="1482" y="1318" type="line"/>
      <point x="1634" y="1346" type="line"/>
      <point x="1634" y="1486" type="line"/>
      <point x="980" y="1486" type="line"/>
      <point x="980" y="1346" type="line"/>
      <point x="1144" y="1318" type="line"/>
      <point x="1144" y="1276" type="line"/>
      <point x="676" y="642" type="line"/>
      <point x="560" y="434" type="line"/>
      <point x="560" y="1318" type="line"/>
      <point x="736" y="1348" type="line"/>
      <point x="736" y="1486" type="line"/>
    </contour>
    <contour>
      <point x="1528" y="0" type="move" name="bottomright"/>
    </contour>
    <contour>
      <point x="868" y="1486" type="move" name="top"/>
    </contour>
  </outline>
</glyph>
<glyph name="Ka-cy" format="1">
  <advance width="1502"/>
  <unicode hex="041A"/>
  <outline>
    <contour>
      <point x="886" y="804" type="curve"/>
      <point x="1260" y="1318" type="line"/>
      <point x="1430" y="1346" type="line"/>
      <point x="1430" y="1486" type="line"/>
      <point x="880" y="1486" type="line"/>
      <point x="880" y="1346" type="line"/>
      <point x="1020" y="1320" type="line"/>
      <point x="688" y="810" type="line"/>
      <point x="558" y="810" type="line"/>
      <point x="558" y="1318" type="line"/>
      <point x="706" y="1346" type="line"/>
      <point x="706" y="1486" type="line"/>
      <point x="70" y="1486" type="line"/>
      <point x="70" y="1346" type="line"/>
      <point x="218" y="1318" type="line"/>
      <point x="218" y="154" type="line"/>
      <point x="70" y="132" type="line"/>
      <point x="70" y="0" type="line"/>
      <point x="738" y="0" type="line"/>
      <point x="738" y="130" type="line"/>
      <point x="558" y="154" type="line"/>
      <point x="558" y="688" type="line"/>
      <point x="634" y="688" type="line" smooth="yes"/>
      <point x="846" y="688"/>
      <point x="940" y="0"/>
      <point x="1100" y="0" type="curve"/>
      <point x="1462" y="0" type="line"/>
      <point x="1462" y="132" type="line"/>
      <point x="1390" y="154" type="line" smooth="yes"/>
      <point x="1286" y="190"/>
      <point x="1164" y="744"/>
    </contour>
    <contour>
      <point x="1420" y="0" type="move" name="bottomright"/>
    </contour>
    <contour>
      <point x="728" y="744" type="move" name="center"/>
    </contour>
    <contour>
      <point x="728" y="1486" type="move" name="top"/>
    </contour>
  </outline>
</glyph>
<glyph name="El-cy" format="1">
  <advance width="1571"/>
  <unicode hex="041B"/>
  <outline>
    <contour>
      <point x="609" y="1175" type="curve" smooth="yes"/>
      <point x="609" y="1319" type="line"/>
      <point x="971" y="1319" type="line"/>
      <point x="971" y="155" type="line"/>
      <point x="762" y="132" type="line"/>
      <point x="762" y="0" type="line"/>
      <point x="1501" y="0" type="line"/>
      <point x="1501" y="132" type="line"/>
      <point x="1308" y="153" type="line"/>
      <point x="1308" y="1319" type="line"/>
      <point x="1492" y="1347" type="line"/>
      <point x="1492" y="1486" type="line"/>
      <point x="202" y="1486" type="line"/>
      <point x="202" y="1347" type="line"/>
      <point x="450" y="1319" type="line"/>
      <point x="450" y="1224" type="line" smooth="yes"/>
      <point x="450" y="663"/>
      <point x="397" y="403"/>
      <point x="327" y="268" type="curve"/>
      <point x="293" y="199"/>
      <point x="256" y="184"/>
      <point x="205" y="184" type="curve" smooth="yes"/>
      <point x="137" y="184"/>
      <point x="98" y="186"/>
      <point x="49" y="190" type="curve"/>
      <point x="71" y="0" type="line"/>
      <point x="110" y="-8"/>
      <point x="165" y="-13"/>
      <point x="232" y="-13" type="curve" smooth="yes"/>
      <point x="337" y="-13"/>
      <point x="414" y="38"/>
      <point x="468" y="141" type="curve" smooth="yes"/>
      <point x="571" y="339"/>
      <point x="609" y="761"/>
    </contour>
    <contour>
      <point x="605" y="-166" type="move" name="mark0"/>
    </contour>
  </outline>
</glyph>
<glyph name="Pe-cy" format="1">
  <advance width="1644"/>
  <unicode hex="041F"/>
  <outline>
    <contour>
      <point x="70" y="1486" type="line"/>
      <point x="70" y="1346" type="line"/>
      <point x="234" y="1318" type="line"/>
      <point x="234" y="152" type="line"/>
      <point x="76" y="132" type="line"/>
      <point x="76" y="0" type="line"/>
      <point x="720" y="0" type="line"/>
      <point x="720" y="132" type="line"/>
      <point x="574" y="152" type="line"/>
      <point x="574" y="1338" type="line"/>
      <point x="1068" y="1338" type="line"/>
      <point x="1068" y="154" type="line"/>
      <point x="924" y="132" type="line"/>
      <point x="924" y="0" type="line"/>
      <point x="1570" y="0" type="line"/>
      <point x="1570" y="132" type="line"/>
      <point x="1410" y="154" type="line"/>
      <point x="1410" y="1320" type="line"/>
      <point x="1574" y="1348" type="line"/>
      <point x="1574" y="1486" type="line"/>
    </contour>
    <contour>
      <point x="1086" y="0" type="move" name="bottomright"/>
    </contour>
  </outline>
</glyph>
<glyph name="Te-cy" format="1">
  <advance width="1456"/>
  <unicode hex="0422"/>
  <outline>
    <component base="T"/>
    <contour>
      <point x="731" y="-166" type="move" name="mark0"/>
    </contour>
  </outline>
</glyph>
<glyph name="U-cy" format="1">
  <advance width="1350"/>
  <unicode hex="0423"/>
  <outline>
    <contour>
      <point x="874" y="318" type="curve"/>
      <point x="1256" y="1318" type="line"/>
      <point x="1360" y="1346" type="line"/>
      <point x="1360" y="1486" type="line"/>
      <point x="906" y="1486" type="line"/>
      <point x="906" y="1346" type="line"/>
      <point x="1052" y="1320" type="line"/>
      <point x="846" y="714" type="line"/>
      <point x="792" y="552" type="line"/>
      <point x="738" y="712" type="line"/>
      <point x="492" y="1318" type="line"/>
      <point x="666" y="1346" type="line"/>
      <point x="666" y="1486" type="line"/>
      <point x="10" y="1486" type="line"/>
      <point x="10" y="1346" type="line"/>
      <point x="118" y="1320" type="line"/>
      <point x="578" y="310" type="line"/>
      <point x="558" y="218"/>
      <point x="520" y="190"/>
      <point x="390" y="190" type="curve" smooth="yes"/>
      <point x="348" y="190"/>
      <point x="280" y="190"/>
      <point x="242" y="192" type="curve"/>
      <point x="242" y="12" type="line"/>
      <point x="290" y="-6"/>
      <point x="400" y="-22"/>
      <point x="482" y="-22" type="curve" smooth="yes"/>
      <point x="726" y="-22"/>
      <point x="806" y="166"/>
    </contour>
    <contour>
      <point x="696" y="1486" type="move" name="top"/>
    </contour>
  </outline>
</glyph>
<glyph name="Ef-cy" format="1">
  <advance width="1741"/>
  <unicode hex="0424"/>
  <outline>
    <contour>
      <point x="1034" y="1244" type="curve"/>
      <point x="1034" y="1366" type="line"/>
      <point x="1201" y="1396" type="line"/>
      <point x="1201" y="1529" type="line"/>
      <point x="534" y="1529" type="line"/>
      <point x="534" y="1396" type="line"/>
      <point x="706" y="1366" type="line"/>
      <point x="706" y="1242" type="line"/>
      <point x="224" y="1231"/>
      <point x="32" y="1039"/>
      <point x="32" y="755" type="curve" smooth="yes"/>
      <point x="32" y="493"/>
      <point x="135" y="254"/>
      <point x="706" y="255" type="curve"/>
      <point x="706" y="117" type="line"/>
      <point x="535" y="95" type="line"/>
      <point x="535" y="-42" type="line"/>
      <point x="1204" y="-42" type="line"/>
      <point x="1204" y="94" type="line"/>
      <point x="1034" y="114" type="line"/>
      <point x="1034" y="254" type="line"/>
      <point x="1486" y="258"/>
      <point x="1709" y="463"/>
      <point x="1709" y="746" type="curve" smooth="yes"/>
      <point x="1709" y="1013"/>
      <point x="1612" y="1242"/>
    </contour>
    <contour>
      <point x="706" y="1134" type="curve"/>
      <point x="706" y="366" type="line"/>
      <point x="433" y="398"/>
      <point x="388" y="591"/>
      <point x="388" y="765" type="curve" smooth="yes"/>
      <point x="388" y="969"/>
      <point x="434" y="1117"/>
    </contour>
    <contour>
      <point x="1034" y="361" type="curve"/>
      <point x="1034" y="1130" type="line"/>
      <point x="1307" y="1098"/>
      <point x="1352" y="921"/>
      <point x="1352" y="744" type="curve" smooth="yes"/>
      <point x="1352" y="534"/>
      <point x="1305" y="381"/>
    </contour>
    <contour>
      <point x="874" y="-166" type="move" name="mark0"/>
    </contour>
  </outline>
</glyph>
<glyph name="Che-cy" format="1">
  <advance width="1487"/>
  <unicode hex="0427"/>
  <outline>
    <contour>
      <point x="919" y="620" type="curve"/>
      <point x="919" y="154" type="line"/>
      <point x="705" y="132" type="line"/>
      <point x="705" y="0" type="line"/>
      <point x="1417" y="0" type="line"/>
      <point x="1417" y="130" type="line"/>
      <point x="1260" y="154" type="line"/>
      <point x="1260" y="1319" type="line"/>
      <point x="1417" y="1347" type="line"/>
      <point x="1417" y="1486" type="line"/>
      <point x="763" y="1486" type="line"/>
      <point x="763" y="1347" type="line"/>
      <point x="919" y="1320" type="line"/>
      <point x="919" y="779" type="line"/>
      <point x="876" y="744"/>
      <point x="782" y="718"/>
      <point x="693" y="718" type="curve" smooth="yes"/>
      <point x="522" y="718"/>
      <point x="474" y="754"/>
      <point x="474" y="1059" type="curve" smooth="yes"/>
      <point x="474" y="1320" type="line"/>
      <point x="612" y="1346" type="line"/>
      <point x="612" y="1486" type="line"/>
      <point x="19" y="1486" type="line"/>
      <point x="19" y="1346" type="line"/>
      <point x="132" y="1318" type="line"/>
      <point x="132" y="986" type="line" smooth="yes"/>
      <point x="132" y="634"/>
      <point x="278" y="536"/>
      <point x="565" y="536" type="curve" smooth="yes"/>
      <point x="678" y="536"/>
      <point x="825" y="562"/>
    </contour>
    <contour>
      <point x="1444" y="0" type="move" name="bottomright"/>
    </contour>
    <contour>
      <point x="742" y="744" type="move" name="center"/>
    </contour>
    <contour>
      <point x="709" y="1486" type="move" name="top"/>
    </contour>
  </outline>
</glyph>
<glyph name="Sha-cy" format="1">
  <advance width="2325"/>
  <unicode hex="0428"/>
  <outline>
    <contour>
      <point x="71" y="1486" type="line"/>
      <point x="71" y="1347" type="line"/>
      <point x="224" y="1320" type="line"/>
      <point x="224" y="154" type="line"/>
      <point x="60" y="132" type="line"/>
      <point x="60" y="0" type="line"/>
      <point x="2264" y="0" type="line"/>
      <point x="2264" y="132" type="line"/>
      <point x="2101" y="153" type="line"/>
      <point x="2101" y="1320" type="line"/>
      <point x="2253" y="1347" type="line"/>
      <point x="2253" y="1486" type="line"/>
      <point x="1620" y="1486" type="line"/>
      <point x="1620" y="1347" type="line"/>
      <point x="1762" y="1319" type="line"/>
      <point x="1762" y="153" type="line"/>
      <point x="1335" y="153" type="line"/>
      <point x="1335" y="1320" type="line"/>
      <point x="1481" y="1347" type="line"/>
      <point x="1481" y="1486" type="line"/>
      <point x="853" y="1486" type="line"/>
      <point x="853" y="1347" type="line"/>
      <point x="997" y="1320" type="line"/>
      <point x="997" y="153" type="line"/>
      <point x="564" y="153" type="line"/>
      <point x="564" y="1320" type="line"/>
      <point x="715" y="1347" type="line"/>
      <point x="715" y="1486" type="line"/>
    </contour>
    <contour>
      <point x="745" y="-166" type="move" name="mark0"/>
    </contour>
  </outline>
</glyph>
<glyph name="Shcha-cy" format="1">
  <advance width="2373"/>
  <unicode hex="0429"/>
  <outline>
    <contour>
      <point x="2338" y="155" type="curve"/>
      <point x="2101" y="155" type="line"/>
      <point x="2101" y="1320" type="line"/>
      <point x="2253" y="1347" type="line"/>
      <point x="2253" y="1486" type="line"/>
      <point x="1620" y="1486" type="line"/>
      <point x="1620" y="1347" type="line"/>
      <point x="1762" y="1319" type="line"/>
      <point x="1762" y="153" type="line"/>
      <point x="1335" y="153" type="line"/>
      <point x="1335" y="1320" type="line"/>
      <point x="1481" y="1347" type="line"/>
      <point x="1481" y="1486" type="line"/>
      <point x="853" y="1486" type="line"/>
      <point x="853" y="1347" type="line"/>
      <point x="997" y="1320" type="line"/>
      <point x="997" y="153" type="line"/>
      <point x="564" y="153" type="line"/>
      <point x="564" y="1320" type="line"/>
      <point x="715" y="1347" type="line"/>
      <point x="715" y="1486" type="line"/>
      <point x="71" y="1486" type="line"/>
      <point x="71" y="1347" type="line"/>
      <point x="224" y="1320" type="line"/>
      <point x="224" y="154" type="line"/>
      <point x="60" y="132" type="line"/>
      <point x="60" y="0" type="line"/>
      <point x="2045" y="0" type="line"/>
      <point x="2069" y="-49"/>
      <point x="2104" y="-345"/>
      <point x="2105" y="-406" type="curve"/>
      <point x="2286" y="-406" type="line"/>
      <point x="2299" y="-338"/>
      <point x="2333" y="-1"/>
    </contour>
  </outline>
</glyph>
<glyph name="Hardsign-cy" format="1">
  <advance width="1716"/>
  <unicode hex="042A"/>
  <outline>
    <contour>
      <point x="1159" y="880" type="curve" smooth="yes"/>
      <point x="912" y="880" type="line"/>
      <point x="912" y="1319" type="line"/>
      <point x="1132" y="1353" type="line"/>
      <point x="1132" y="1486" type="line"/>
      <point x="81" y="1486" type="line"/>
      <point x="48" y="896" type="line"/>
      <point x="245" y="896" type="line"/>
      <point x="318" y="1321" type="line"/>
      <point x="569" y="1344" type="line"/>
      <point x="569" y="155" type="line"/>
      <point x="280" y="131" type="line"/>
      <point x="280" y="0" type="line"/>
      <point x="753" y="0" type="line" smooth="yes"/>
      <point x="836" y="0"/>
      <point x="1106" y="-16"/>
      <point x="1154" y="-16" type="curve" smooth="yes"/>
      <point x="1482" y="-16"/>
      <point x="1679" y="155"/>
      <point x="1679" y="459" type="curve" smooth="yes"/>
      <point x="1679" y="726"/>
      <point x="1519" y="880"/>
    </contour>
    <contour>
      <point x="912" y="138" type="curve"/>
      <point x="912" y="733" type="line"/>
      <point x="1070" y="733" type="line" smooth="yes"/>
      <point x="1242" y="733"/>
      <point x="1326" y="645"/>
      <point x="1326" y="435" type="curve" smooth="yes"/>
      <point x="1326" y="261"/>
      <point x="1258" y="122"/>
      <point x="1053" y="122" type="curve" smooth="yes"/>
      <point x="990" y="122"/>
      <point x="948" y="128"/>
    </contour>
    <contour>
      <point x="838" y="-166" type="move" name="mark0"/>
    </contour>
  </outline>
</glyph>
<glyph name="Yeru-cy" format="1">
  <advance width="2191"/>
  <unicode hex="042B"/>
  <outline>
    <contour>
      <point x="564" y="891" type="curve"/>
      <point x="564" y="1321" type="line"/>
      <point x="774" y="1352" type="line"/>
      <point x="774" y="1486" type="line"/>
      <point x="73" y="1486" type="line"/>
      <point x="73" y="1352" type="line"/>
      <point x="223" y="1322" type="line"/>
      <point x="223" y="153" type="line"/>
      <point x="70" y="132" type="line"/>
      <point x="70" y="0" type="line"/>
      <point x="367" y="0" type="line" smooth="yes"/>
      <point x="531" y="0"/>
      <point x="668" y="-16"/>
      <point x="793" y="-16" type="curve" smooth="yes"/>
      <point x="1095" y="-16"/>
      <point x="1332" y="161"/>
      <point x="1332" y="464" type="curve" smooth="yes"/>
      <point x="1332" y="730"/>
      <point x="1167" y="895"/>
      <point x="824" y="895" type="curve" smooth="yes"/>
      <point x="777" y="895"/>
      <point x="597" y="892"/>
    </contour>
    <contour>
      <point x="564" y="139" type="curve"/>
      <point x="564" y="748" type="line"/>
      <point x="589" y="749"/>
      <point x="691" y="752"/>
      <point x="722" y="752" type="curve" smooth="yes"/>
      <point x="895" y="752"/>
      <point x="978" y="655"/>
      <point x="978" y="446" type="curve" smooth="yes"/>
      <point x="978" y="271"/>
      <point x="910" y="123"/>
      <point x="704" y="123" type="curve" smooth="yes"/>
      <point x="642" y="123"/>
      <point x="601" y="129"/>
    </contour>
    <contour>
      <point x="1438" y="1486" type="line"/>
      <point x="1438" y="1347" type="line"/>
      <point x="1601" y="1319" type="line"/>
      <point x="1601" y="154" type="line"/>
      <point x="1440" y="132" type="line"/>
      <point x="1440" y="0" type="line"/>
      <point x="2112" y="0" type="line"/>
      <point x="2112" y="130" type="line"/>
      <point x="1945" y="153" type="line"/>
      <point x="1945" y="1319" type="line"/>
      <point x="2112" y="1347" type="line"/>
      <point x="2112" y="1486" type="line"/>
    </contour>
    <contour>
      <point x="1096" y="1486" type="move" name="top"/>
    </contour>
  </outline>
</glyph>
<glyph name="Softsign-cy" format="1">
  <advance width="1369"/>
  <unicode hex="042C"/>
  <outline>
    <contour>
      <point x="564" y="891" type="curve"/>
      <point x="564" y="1321" type="line"/>
      <point x="774" y="1352" type="line"/>
      <point x="774" y="1486" type="line"/>
      <point x="73" y="1486" type="line"/>
      <point x="73" y="1352" type="line"/>
      <point x="223" y="1322" type="line"/>
      <point x="223" y="153" type="line"/>
      <point x="70" y="132" type="line"/>
      <point x="70" y="0" type="line"/>
      <point x="367" y="0" type="line"/>
      <point x="531" y="0"/>
      <point x="668" y="-16"/>
      <point x="793" y="-16" type="curve" smooth="yes"/>
      <point x="1095" y="-16"/>
      <point x="1332" y="161"/>
      <point x="1332" y="464" type="curve" smooth="yes"/>
      <point x="1332" y="730"/>
      <point x="1167" y="895"/>
      <point x="824" y="895" type="curve" smooth="yes"/>
      <point x="777" y="895"/>
      <point x="597" y="892"/>
    </contour>
    <contour>
      <point x="564" y="139" type="curve"/>
      <point x="564" y="748" type="line"/>
      <point x="589" y="749"/>
      <point x="691" y="752"/>
      <point x="722" y="752" type="curve" smooth="yes"/>
      <point x="895" y="752"/>
      <point x="978" y="655"/>
      <point x="978" y="446" type="curve" smooth="yes"/>
      <point x="978" y="271"/>
      <point x="910" y="123"/>
      <point x="704" y="123" type="curve" smooth="yes"/>
      <point x="642" y="123"/>
      <point x="601" y="129"/>
    </contour>
  </outline>
</glyph>
<glyph name="Ereversed-cy" format="1">
  <advance width="1375"/>
  <unicode hex="042D"/>
  <outline>
    <contour>
      <point x="100" y="1426" type="curve"/>
      <point x="110" y="1068" type="line"/>
      <point x="310" y="1072" type="line"/>
      <point x="380" y="1290" type="line"/>
      <point x="408" y="1320"/>
      <point x="462" y="1362"/>
      <point x="588" y="1362" type="curve" smooth="yes"/>
      <point x="800" y="1362"/>
      <point x="908" y="1136"/>
      <point x="936" y="846" type="curve"/>
      <point x="370" y="860" type="line"/>
      <point x="370" y="662" type="line"/>
      <point x="942" y="676" type="line"/>
      <point x="934" y="298"/>
      <point x="796" y="114"/>
      <point x="580" y="114" type="curve" smooth="yes"/>
      <point x="466" y="114"/>
      <point x="424" y="154"/>
      <point x="400" y="184" type="curve"/>
      <point x="326" y="428" type="line"/>
      <point x="104" y="416" type="line"/>
      <point x="110" y="46" type="line"/>
      <point x="222" y="44"/>
      <point x="340" y="-22"/>
      <point x="558" y="-22" type="curve" smooth="yes"/>
      <point x="1032" y="-22"/>
      <point x="1322" y="266"/>
      <point x="1322" y="744" type="curve" smooth="yes"/>
      <point x="1322" y="1192"/>
      <point x="1082" y="1502"/>
      <point x="620" y="1502" type="curve" smooth="yes"/>
      <point x="342" y="1502"/>
      <point x="216" y="1432"/>
    </contour>
    <contour>
      <point x="680" y="1486" type="move" name="top"/>
    </contour>
  </outline>
</glyph>
<glyph name="Iu-cy" format="1">
  <advance width="2217"/>
  <unicode hex="042E"/>
  <outline>
    <contour>
      <point x="838" y="842" type="curve"/>
      <point x="564" y="842" type="line"/>
      <point x="564" y="1318" type="line"/>
      <point x="722" y="1346" type="line"/>
      <point x="722" y="1486" type="line"/>
      <point x="72" y="1486" type="line"/>
      <point x="72" y="1346" type="line"/>
      <point x="222" y="1318" type="line"/>
      <point x="222" y="154" type="line"/>
      <point x="70" y="132" type="line"/>
      <point x="70" y="0" type="line"/>
      <point x="728" y="0" type="line"/>
      <point x="728" y="132" type="line"/>
      <point x="564" y="154" type="line"/>
      <point x="564" y="674" type="line"/>
      <point x="834" y="674" type="line"/>
      <point x="848" y="252"/>
      <point x="1048" y="-20"/>
      <point x="1494" y="-20" type="curve" smooth="yes"/>
      <point x="1896" y="-20"/>
      <point x="2160" y="286"/>
      <point x="2164" y="768" type="curve" smooth="yes"/>
      <point x="2166" y="1220"/>
      <point x="1972" y="1504"/>
      <point x="1512" y="1504" type="curve" smooth="yes"/>
      <point x="1142" y="1506"/>
      <point x="878" y="1260"/>
    </contour>
    <contour>
      <point x="1502" y="1370" type="curve" smooth="yes"/>
      <point x="1684" y="1370"/>
      <point x="1788" y="1194"/>
      <point x="1788" y="766" type="curve" smooth="yes"/>
      <point x="1788" y="338"/>
      <point x="1690" y="116"/>
      <point x="1504" y="116" type="curve" smooth="yes"/>
      <point x="1314" y="116"/>
      <point x="1208" y="312"/>
      <point x="1208" y="740" type="curve" smooth="yes"/>
      <point x="1208" y="1174"/>
      <point x="1318" y="1370"/>
    </contour>
  </outline>
</glyph>
<glyph name="Ia-cy" format="1">
  <advance width="1477"/>
  <unicode hex="042F"/>
  <outline>
    <contour>
      <point x="899" y="631" type="curve"/>
      <point x="899" y="153" type="line"/>
      <point x="723" y="131" type="line"/>
      <point x="723" y="0" type="line"/>
      <point x="1404" y="0" type="line"/>
      <point x="1404" y="131" type="line"/>
      <point x="1240" y="153" type="line"/>
      <point x="1240" y="1319" type="line"/>
      <point x="1393" y="1347" type="line"/>
      <point x="1393" y="1486" type="line"/>
      <point x="1070" y="1486" type="line" smooth="yes"/>
      <point x="945" y="1486"/>
      <point x="872" y="1499"/>
      <point x="721" y="1499" type="curve" smooth="yes"/>
      <point x="325" y="1499"/>
      <point x="153" y="1379"/>
      <point x="153" y="1089" type="curve" smooth="yes"/>
      <point x="153" y="911"/>
      <point x="250" y="738"/>
      <point x="447" y="690" type="curve"/>
      <point x="222" y="602"/>
      <point x="169" y="182"/>
      <point x="70" y="153" type="curve"/>
      <point x="0" y="131" type="line"/>
      <point x="0" y="0" type="line"/>
      <point x="382" y="0" type="line" smooth="yes"/>
      <point x="466" y="0"/>
      <point x="546" y="550"/>
      <point x="687" y="632" type="curve"/>
      <point x="762" y="631"/>
      <point x="853" y="630"/>
    </contour>
    <contour>
      <point x="899" y="1355" type="curve"/>
      <point x="899" y="769" type="line"/>
      <point x="875" y="762"/>
      <point x="812" y="762"/>
      <point x="762" y="762" type="curve" smooth="yes"/>
      <point x="599" y="762"/>
      <point x="512" y="867"/>
      <point x="512" y="1090" type="curve" smooth="yes"/>
      <point x="512" y="1305"/>
      <point x="612" y="1366"/>
      <point x="759" y="1366" type="curve" smooth="yes"/>
      <point x="838" y="1366"/>
      <point x="869" y="1359"/>
    </contour>
  </outline>
</glyph>
<glyph name="be-cy" format="1">
  <advance width="1187"/>
  <unicode hex="0431"/>
  <outline>
    <contour>
      <point x="1063" y="1522" type="curve" smooth="yes"/>
      <point x="1095" y="1752" type="line"/>
      <point x="929" y="1752" type="line"/>
      <point x="902" y="1673" type="line" smooth="yes"/>
      <point x="886" y="1625"/>
      <point x="852" y="1611"/>
      <point x="779" y="1606" type="curve"/>
      <point x="640" y="1598"/>
      <point x="467" y="1539"/>
      <point x="350" y="1450" type="curve" smooth="yes"/>
      <point x="208" y="1340"/>
      <point x="53" y="1125"/>
      <point x="53" y="748" type="curve" smooth="yes"/>
      <point x="53" y="244"/>
      <point x="244" y="-16"/>
      <point x="602" y="-16" type="curve" smooth="yes"/>
      <point x="947" y="-16"/>
      <point x="1130" y="226"/>
      <point x="1130" y="591" type="curve" smooth="yes"/>
      <point x="1130" y="956"/>
      <point x="1014" y="1135"/>
      <point x="689" y="1135" type="curve" smooth="yes"/>
      <point x="517" y="1135"/>
      <point x="384" y="1038"/>
      <point x="329" y="970" type="curve"/>
      <point x="342" y="1177"/>
      <point x="394" y="1260"/>
      <point x="441" y="1297" type="curve" smooth="yes"/>
      <point x="534" y="1366"/>
      <point x="741" y="1403"/>
      <point x="939" y="1408" type="curve" smooth="yes"/>
      <point x="1020" y="1409"/>
      <point x="1053" y="1451"/>
    </contour>
    <contour>
      <point x="601" y="970" type="curve" smooth="yes"/>
      <point x="735" y="970"/>
      <point x="793" y="905"/>
      <point x="793" y="600" type="curve" smooth="yes"/>
      <point x="793" y="304"/>
      <point x="759" y="111"/>
      <point x="597" y="111" type="curve" smooth="yes"/>
      <point x="434" y="111"/>
      <point x="396" y="307"/>
      <point x="396" y="857" type="curve"/>
      <point x="419" y="899"/>
      <point x="482" y="970"/>
    </contour>
    <contour>
      <point x="616" y="-166" type="move" name="mark0"/>
    </contour>
  </outline>
</glyph>
<glyph name="ge-cy" format="1">
  <advance width="1061"/>
  <unicode hex="0433"/>
  <outline>
    <contour>
      <point x="71" y="1111" type="line"/>
      <point x="71" y="984" type="line"/>
      <point x="214" y="959" type="line"/>
      <point x="214" y="151" type="line"/>
      <point x="67" y="132" type="line"/>
      <point x="67" y="0" type="line"/>
      <point x="804" y="0" type="line"/>
      <point x="804" y="132" type="line"/>
      <point x="548" y="151" type="line"/>
      <point x="548" y="980" type="line"/>
      <point x="781" y="962" type="line"/>
      <point x="841" y="658" type="line"/>
      <point x="1027" y="658" type="line"/>
      <point x="1017" y="1111" type="line"/>
    </contour>
    <contour>
      <point x="213" y="0" type="move" name="bottomright"/>
    </contour>
    <contour>
      <point x="529" y="556" type="move" name="center"/>
    </contour>
    <contour>
      <point x="529" y="1111" type="move" name="top"/>
    </contour>
  </outline>
</glyph>
<glyph name="ze-cy" format="1">
  <advance width="1172"/>
  <unicode hex="0437"/>
  <outline>
    <contour>
      <point x="105" y="1080" type="curve"/>
      <point x="105" y="766" type="line"/>
      <point x="316" y="766" type="line"/>
      <point x="341" y="918" type="line"/>
      <point x="357" y="959"/>
      <point x="416" y="1004"/>
      <point x="512" y="1004" type="curve" smooth="yes"/>
      <point x="630" y="1004"/>
      <point x="680" y="960"/>
      <point x="680" y="860" type="curve" smooth="yes"/>
      <point x="680" y="743"/>
      <point x="606" y="673"/>
      <point x="507" y="656" type="curve" smooth="yes"/>
      <point x="421" y="645" type="line"/>
      <point x="418" y="481" type="line"/>
      <point x="443" y="488"/>
      <point x="518" y="503"/>
      <point x="542" y="503" type="curve" smooth="yes"/>
      <point x="674" y="504"/>
      <point x="713" y="419"/>
      <point x="713" y="318" type="curve" smooth="yes"/>
      <point x="713" y="216"/>
      <point x="666" y="115"/>
      <point x="514" y="115" type="curve" smooth="yes"/>
      <point x="436" y="115"/>
      <point x="368" y="135"/>
      <point x="342" y="172" type="curve"/>
      <point x="303" y="335" type="line"/>
      <point x="111" y="335" type="line"/>
      <point x="88" y="58" type="line"/>
      <point x="146" y="42"/>
      <point x="307" y="-16"/>
      <point x="559" y="-16" type="curve" smooth="yes"/>
      <point x="926" y="-16"/>
      <point x="1086" y="122"/>
      <point x="1084" y="338" type="curve" smooth="yes"/>
      <point x="1082" y="475"/>
      <point x="993" y="576"/>
      <point x="801" y="598" type="curve"/>
      <point x="943" y="651"/>
      <point x="1025" y="751"/>
      <point x="1025" y="865" type="curve" smooth="yes"/>
      <point x="1025" y="1033"/>
      <point x="888" y="1134"/>
      <point x="551" y="1134" type="curve" smooth="yes"/>
      <point x="340" y="1134"/>
      <point x="239" y="1080"/>
    </contour>
    <contour>
      <point x="571" y="0" type="move" name="bottom"/>
    </contour>
    <contour>
      <point x="571" y="1111" type="move" name="top"/>
    </contour>
  </outline>
</glyph>
<glyph name="ii-cy" format="1">
  <advance width="1549"/>
  <unicode hex="0438"/>
  <outline>
    <contour>
      <point x="84" y="1111" type="line"/>
      <point x="84" y="983" type="line"/>
      <point x="214" y="959" type="line"/>
      <point x="214" y="151" type="line"/>
      <point x="81" y="132" type="line"/>
      <point x="81" y="0" type="line"/>
      <point x="674" y="0" type="line"/>
      <point x="674" y="132" type="line"/>
      <point x="544" y="146" type="line"/>
      <point x="544" y="197" type="line"/>
      <point x="893" y="569" type="line"/>
      <point x="998" y="725" type="line"/>
      <point x="998" y="151" type="line"/>
      <point x="855" y="132" type="line"/>
      <point x="855" y="0" type="line"/>
      <point x="1466" y="0" type="line"/>
      <point x="1466" y="132" type="line"/>
      <point x="1329" y="151" type="line"/>
      <point x="1329" y="957" type="line"/>
      <point x="1460" y="983" type="line"/>
      <point x="1460" y="1111" type="line"/>
      <point x="873" y="1111" type="line"/>
      <point x="873" y="983" type="line"/>
      <point x="998" y="959" type="line"/>
      <point x="998" y="911" type="line"/>
      <point x="649" y="535" type="line"/>
      <point x="544" y="396" type="line"/>
      <point x="544" y="959" type="line"/>
      <point x="689" y="983" type="line"/>
      <point x="689" y="1111" type="line"/>
    </contour>
    <contour>
      <point x="1251" y="0" type="move" name="bottomright"/>
    </contour>
    <contour>
      <point x="771" y="1111" type="move" name="top"/>
    </contour>
  </outline>
</glyph>
<glyph name="em-cy" format="1">
  <advance width="1878"/>
  <unicode hex="043C"/>
  <outline>
    <contour>
      <point x="90" y="1111" type="line"/>
      <point x="90" y="983" type="line"/>
      <point x="277" y="959" type="line"/>
      <point x="144" y="151" type="line"/>
      <point x="-7" y="132" type="line"/>
      <point x="-7" y="0" type="line"/>
      <point x="514" y="0" type="line"/>
      <point x="514" y="132" type="line"/>
      <point x="345" y="150" type="line"/>
      <point x="419" y="740" type="line"/>
      <point x="445" y="993" type="line"/>
      <point x="524" y="740" type="line"/>
      <point x="762" y="76" type="line"/>
      <point x="1022" y="76" type="line"/>
      <point x="1239" y="734" type="line"/>
      <point x="1313" y="990" type="line"/>
      <point x="1348" y="731" type="line"/>
      <point x="1408" y="152" type="line"/>
      <point x="1260" y="132" type="line"/>
      <point x="1260" y="0" type="line"/>
      <point x="1889" y="0" type="line"/>
      <point x="1889" y="132" type="line"/>
      <point x="1747" y="151" type="line"/>
      <point x="1615" y="959" type="line"/>
      <point x="1794" y="983" type="line"/>
      <point x="1794" y="1111" type="line"/>
      <point x="1180" y="1111" type="line"/>
      <point x="992" y="508" type="line"/>
      <point x="954" y="356" type="line"/>
      <point x="910" y="508" type="line"/>
      <point x="711" y="1111" type="line"/>
    </contour>
    <contour>
      <point x="1679" y="0" type="move" name="bottomright"/>
    </contour>
  </outline>
</glyph>
<glyph name="o-cy" format="1">
  <advance width="1207"/>
  <unicode hex="043E"/>
  <outline>
    <component base="o"/>
    <contour>
      <point x="643" y="556" type="move" name="center"/>
    </contour>
    <contour>
      <point x="614" y="1111" type="move" name="top"/>
    </contour>
  </outline>
</glyph>
